M48
; DRILL file {KiCad (5.1.10)-1} date 10/13/21 19:52:32
; FORMAT={-:-/ absolute / metric / decimal}
; #@! TF.CreationDate,2021-10-13T19:52:32+02:00
; #@! TF.GenerationSoftware,Kicad,Pcbnew,(5.1.10)-1
; #@! TF.FileFunction,Plated,1,2,PTH
FMAT,2
METRIC
T1C0.500
T2C0.550
T3C0.600
T4C0.750
T5C0.800
T6C0.900
T7C1.000
T8C1.100
T9C1.300
%
G90
G05
T3
X66.04Y-33.02
X68.04Y-33.02
X77.47Y-34.29
X79.47Y-34.29
X115.57Y-34.29
X117.57Y-34.29
X142.24Y-34.29
X144.24Y-34.29
T4
X96.52Y-54.61
X97.79Y-54.61
X99.06Y-54.61
X120.65Y-54.61
X121.92Y-54.61
X123.19Y-54.61
T5
X55.88Y-67.31
X55.88Y-71.12
X60.96Y-38.1
X60.96Y-48.26
X66.04Y-67.31
X66.04Y-71.12
X66.08Y-43.18
X68.58Y-43.18
X77.47Y-39.37
X77.47Y-46.99
X78.74Y-55.88
X78.74Y-59.69
X78.74Y-63.5
X78.74Y-67.31
X80.01Y-39.37
X80.01Y-46.99
X82.55Y-39.37
X82.55Y-46.99
X85.09Y-39.37
X85.09Y-46.99
X87.63Y-39.37
X87.63Y-46.99
X88.9Y-55.88
X88.9Y-59.69
X88.9Y-63.5
X88.9Y-67.31
X90.17Y-39.37
X90.17Y-46.99
X92.71Y-39.37
X92.71Y-46.99
X96.56Y-62.23
X99.06Y-62.23
X105.41Y-55.88
X105.41Y-59.69
X105.41Y-63.5
X105.41Y-67.31
X107.95Y-41.91
X107.95Y-52.07
X111.76Y-34.29
X111.76Y-44.45
X115.57Y-39.37
X115.57Y-46.99
X115.57Y-55.88
X115.57Y-59.69
X115.57Y-63.5
X115.57Y-67.31
X118.11Y-39.37
X118.11Y-46.99
X120.65Y-39.37
X120.65Y-46.99
X123.19Y-39.37
X123.19Y-46.99
X129.54Y-39.37
X129.54Y-49.53
X133.35Y-39.37
X133.35Y-49.53
X137.16Y-39.37
X137.16Y-49.53
X142.24Y-39.37
X142.24Y-46.99
X144.78Y-39.37
X144.78Y-46.99
X147.32Y-39.37
X147.32Y-46.99
X149.86Y-39.37
X149.86Y-46.99
X152.4Y-39.37
X152.4Y-46.99
X154.94Y-39.37
X154.94Y-46.99
X157.48Y-39.37
X157.48Y-46.99
X160.02Y-39.37
X160.02Y-46.99
X161.33Y-64.77
X163.83Y-64.77
X166.37Y-39.37
X166.37Y-49.53
X170.18Y-39.37
X170.18Y-49.53
T6
X57.15Y-77.47
X57.15Y-80.01
X57.15Y-82.55
X69.85Y-74.93
X69.85Y-77.47
X69.85Y-80.01
X82.55Y-78.74
X82.55Y-81.28
X82.55Y-83.82
X95.25Y-73.66
X95.25Y-76.2
X95.25Y-78.74
X106.68Y-33.02
X106.68Y-35.56
X107.95Y-78.74
X107.95Y-81.28
X107.95Y-83.82
X120.65Y-71.12
X120.65Y-73.66
X120.65Y-76.2
X129.54Y-53.34
X129.54Y-55.88
X133.35Y-74.93
X133.35Y-77.47
X133.35Y-80.01
X137.16Y-31.75
X137.16Y-34.29
X146.05Y-67.31
X146.05Y-69.85
X146.05Y-72.39
X154.94Y-33.02
X154.94Y-35.56
X158.75Y-72.39
X158.75Y-74.93
X158.75Y-77.47
X171.45Y-76.2
X171.45Y-78.74
T7
X92.71Y-52.07
X92.71Y-54.61
X162.56Y-55.88
X162.56Y-58.42
T8
X58.27Y-55.19
X58.27Y-59.69
X64.77Y-55.19
X64.77Y-59.69
X78.74Y-52.07
X88.9Y-52.07
X97.79Y-39.37
X97.79Y-49.53
X102.87Y-39.37
X102.87Y-49.53
T9
X56.08Y-54.69
X56.08Y-59.69
X68.58Y-54.69
X68.58Y-59.69
T1
X173.495Y-53.03G85X174.145Y-53.03
G05
X173.495Y-60.03G85X174.145Y-60.03
G05
T2
X171.12Y-54.18G85X171.12Y-53.88
G05
X171.12Y-59.18G85X171.12Y-58.88
G05
T0
M30
