G04 #@! TF.GenerationSoftware,KiCad,Pcbnew,(5.1.10)-1*
G04 #@! TF.CreationDate,2021-10-13T19:52:24+02:00*
G04 #@! TF.ProjectId,frogger,66726f67-6765-4722-9e6b-696361645f70,1*
G04 #@! TF.SameCoordinates,Original*
G04 #@! TF.FileFunction,Legend,Top*
G04 #@! TF.FilePolarity,Positive*
%FSLAX46Y46*%
G04 Gerber Fmt 4.6, Leading zero omitted, Abs format (unit mm)*
G04 Created by KiCad (PCBNEW (5.1.10)-1) date 2021-10-13 19:52:24*
%MOMM*%
%LPD*%
G01*
G04 APERTURE LIST*
%ADD10C,0.150000*%
%ADD11C,1.000000*%
%ADD12C,0.120000*%
%ADD13C,0.010000*%
%ADD14O,1.600000X1.600000*%
%ADD15R,1.600000X1.600000*%
%ADD16C,1.000000*%
%ADD17R,1.700000X2.000000*%
%ADD18R,2.000000X0.500000*%
%ADD19C,1.800000*%
%ADD20R,1.800000X1.800000*%
%ADD21C,1.600000*%
%ADD22O,1.700000X1.700000*%
%ADD23R,1.700000X1.700000*%
%ADD24O,2.200000X2.200000*%
%ADD25R,2.200000X2.200000*%
%ADD26C,1.200000*%
%ADD27C,2.000000*%
%ADD28C,3.000000*%
%ADD29O,3.048000X1.850000*%
%ADD30R,1.050000X1.500000*%
%ADD31O,1.050000X1.500000*%
%ADD32O,1.550000X0.890000*%
%ADD33R,1.550000X1.200000*%
%ADD34R,1.550000X1.500000*%
%ADD35O,0.950000X1.250000*%
%ADD36R,1.350000X0.400000*%
G04 APERTURE END LIST*
D10*
X56792857Y-32608095D02*
X56745238Y-32560476D01*
X56697619Y-32417619D01*
X56697619Y-32322380D01*
X56745238Y-32179523D01*
X56840476Y-32084285D01*
X56935714Y-32036666D01*
X57126190Y-31989047D01*
X57269047Y-31989047D01*
X57459523Y-32036666D01*
X57554761Y-32084285D01*
X57650000Y-32179523D01*
X57697619Y-32322380D01*
X57697619Y-32417619D01*
X57650000Y-32560476D01*
X57602380Y-32608095D01*
X56697619Y-33036666D02*
X57697619Y-33036666D01*
X56697619Y-33465238D02*
X57221428Y-33465238D01*
X57316666Y-33417619D01*
X57364285Y-33322380D01*
X57364285Y-33179523D01*
X57316666Y-33084285D01*
X57269047Y-33036666D01*
X56697619Y-33941428D02*
X57364285Y-33941428D01*
X57173809Y-33941428D02*
X57269047Y-33989047D01*
X57316666Y-34036666D01*
X57364285Y-34131904D01*
X57364285Y-34227142D01*
X56697619Y-34560476D02*
X57364285Y-34560476D01*
X57697619Y-34560476D02*
X57650000Y-34512857D01*
X57602380Y-34560476D01*
X57650000Y-34608095D01*
X57697619Y-34560476D01*
X57602380Y-34560476D01*
X56745238Y-34989047D02*
X56697619Y-35084285D01*
X56697619Y-35274761D01*
X56745238Y-35370000D01*
X56840476Y-35417619D01*
X56888095Y-35417619D01*
X56983333Y-35370000D01*
X57030952Y-35274761D01*
X57030952Y-35131904D01*
X57078571Y-35036666D01*
X57173809Y-34989047D01*
X57221428Y-34989047D01*
X57316666Y-35036666D01*
X57364285Y-35131904D01*
X57364285Y-35274761D01*
X57316666Y-35370000D01*
X57364285Y-35703333D02*
X57364285Y-36084285D01*
X57697619Y-35846190D02*
X56840476Y-35846190D01*
X56745238Y-35893809D01*
X56697619Y-35989047D01*
X56697619Y-36084285D01*
X56697619Y-36560476D02*
X56745238Y-36465238D01*
X56792857Y-36417619D01*
X56888095Y-36370000D01*
X57173809Y-36370000D01*
X57269047Y-36417619D01*
X57316666Y-36465238D01*
X57364285Y-36560476D01*
X57364285Y-36703333D01*
X57316666Y-36798571D01*
X57269047Y-36846190D01*
X57173809Y-36893809D01*
X56888095Y-36893809D01*
X56792857Y-36846190D01*
X56745238Y-36798571D01*
X56697619Y-36703333D01*
X56697619Y-36560476D01*
X57364285Y-37179523D02*
X57364285Y-37560476D01*
X56697619Y-37322380D02*
X57554761Y-37322380D01*
X57650000Y-37370000D01*
X57697619Y-37465238D01*
X57697619Y-37560476D01*
X57364285Y-37750952D02*
X57364285Y-38131904D01*
X56697619Y-37893809D02*
X57554761Y-37893809D01*
X57650000Y-37941428D01*
X57697619Y-38036666D01*
X57697619Y-38131904D01*
X56745238Y-38846190D02*
X56697619Y-38750952D01*
X56697619Y-38560476D01*
X56745238Y-38465238D01*
X56840476Y-38417619D01*
X57221428Y-38417619D01*
X57316666Y-38465238D01*
X57364285Y-38560476D01*
X57364285Y-38750952D01*
X57316666Y-38846190D01*
X57221428Y-38893809D01*
X57126190Y-38893809D01*
X57030952Y-38417619D01*
X56697619Y-39322380D02*
X57364285Y-39322380D01*
X57173809Y-39322380D02*
X57269047Y-39370000D01*
X57316666Y-39417619D01*
X57364285Y-39512857D01*
X57364285Y-39608095D01*
X56697619Y-40703333D02*
X57697619Y-40703333D01*
X56697619Y-41274761D02*
X57269047Y-40846190D01*
X57697619Y-41274761D02*
X57126190Y-40703333D01*
X56697619Y-42131904D02*
X57221428Y-42131904D01*
X57316666Y-42084285D01*
X57364285Y-41989047D01*
X57364285Y-41798571D01*
X57316666Y-41703333D01*
X56745238Y-42131904D02*
X56697619Y-42036666D01*
X56697619Y-41798571D01*
X56745238Y-41703333D01*
X56840476Y-41655714D01*
X56935714Y-41655714D01*
X57030952Y-41703333D01*
X57078571Y-41798571D01*
X57078571Y-42036666D01*
X57126190Y-42131904D01*
X56697619Y-42608095D02*
X57364285Y-42608095D01*
X57173809Y-42608095D02*
X57269047Y-42655714D01*
X57316666Y-42703333D01*
X57364285Y-42798571D01*
X57364285Y-42893809D01*
X56697619Y-43370000D02*
X56745238Y-43274761D01*
X56840476Y-43227142D01*
X57697619Y-43227142D01*
X56745238Y-43703333D02*
X56697619Y-43798571D01*
X56697619Y-43989047D01*
X56745238Y-44084285D01*
X56840476Y-44131904D01*
X56888095Y-44131904D01*
X56983333Y-44084285D01*
X57030952Y-43989047D01*
X57030952Y-43846190D01*
X57078571Y-43750952D01*
X57173809Y-43703333D01*
X57221428Y-43703333D01*
X57316666Y-43750952D01*
X57364285Y-43846190D01*
X57364285Y-43989047D01*
X57316666Y-44084285D01*
X56745238Y-44512857D02*
X56697619Y-44608095D01*
X56697619Y-44798571D01*
X56745238Y-44893809D01*
X56840476Y-44941428D01*
X56888095Y-44941428D01*
X56983333Y-44893809D01*
X57030952Y-44798571D01*
X57030952Y-44655714D01*
X57078571Y-44560476D01*
X57173809Y-44512857D01*
X57221428Y-44512857D01*
X57316666Y-44560476D01*
X57364285Y-44655714D01*
X57364285Y-44798571D01*
X57316666Y-44893809D01*
X56697619Y-45512857D02*
X56745238Y-45417619D01*
X56792857Y-45370000D01*
X56888095Y-45322380D01*
X57173809Y-45322380D01*
X57269047Y-45370000D01*
X57316666Y-45417619D01*
X57364285Y-45512857D01*
X57364285Y-45655714D01*
X57316666Y-45750952D01*
X57269047Y-45798571D01*
X57173809Y-45846190D01*
X56888095Y-45846190D01*
X56792857Y-45798571D01*
X56745238Y-45750952D01*
X56697619Y-45655714D01*
X56697619Y-45512857D01*
X57364285Y-46274761D02*
X56697619Y-46274761D01*
X57269047Y-46274761D02*
X57316666Y-46322380D01*
X57364285Y-46417619D01*
X57364285Y-46560476D01*
X57316666Y-46655714D01*
X57221428Y-46703333D01*
X56697619Y-46703333D01*
X92924285Y-57602857D02*
X92638571Y-56840952D01*
X92352857Y-57602857D01*
X92257619Y-58840952D02*
X93257619Y-58840952D01*
X93257619Y-59079047D01*
X93210000Y-59221904D01*
X93114761Y-59317142D01*
X93019523Y-59364761D01*
X92829047Y-59412380D01*
X92686190Y-59412380D01*
X92495714Y-59364761D01*
X92400476Y-59317142D01*
X92305238Y-59221904D01*
X92257619Y-59079047D01*
X92257619Y-58840952D01*
X92257619Y-59840952D02*
X92924285Y-59840952D01*
X93257619Y-59840952D02*
X93210000Y-59793333D01*
X93162380Y-59840952D01*
X93210000Y-59888571D01*
X93257619Y-59840952D01*
X93162380Y-59840952D01*
X92924285Y-60174285D02*
X92924285Y-60555238D01*
X92257619Y-60317142D02*
X93114761Y-60317142D01*
X93210000Y-60364761D01*
X93257619Y-60460000D01*
X93257619Y-60555238D01*
X92924285Y-60745714D02*
X92924285Y-61126666D01*
X92257619Y-60888571D02*
X93114761Y-60888571D01*
X93210000Y-60936190D01*
X93257619Y-61031428D01*
X93257619Y-61126666D01*
X92257619Y-61460000D02*
X92924285Y-61460000D01*
X93257619Y-61460000D02*
X93210000Y-61412380D01*
X93162380Y-61460000D01*
X93210000Y-61507619D01*
X93257619Y-61460000D01*
X93162380Y-61460000D01*
X92305238Y-62364761D02*
X92257619Y-62269523D01*
X92257619Y-62079047D01*
X92305238Y-61983809D01*
X92352857Y-61936190D01*
X92448095Y-61888571D01*
X92733809Y-61888571D01*
X92829047Y-61936190D01*
X92876666Y-61983809D01*
X92924285Y-62079047D01*
X92924285Y-62269523D01*
X92876666Y-62364761D01*
X92924285Y-63221904D02*
X92257619Y-63221904D01*
X92924285Y-62793333D02*
X92400476Y-62793333D01*
X92305238Y-62840952D01*
X92257619Y-62936190D01*
X92257619Y-63079047D01*
X92305238Y-63174285D01*
X92352857Y-63221904D01*
X92257619Y-63840952D02*
X92305238Y-63745714D01*
X92400476Y-63698095D01*
X93257619Y-63698095D01*
X92924285Y-64079047D02*
X92924285Y-64460000D01*
X93257619Y-64221904D02*
X92400476Y-64221904D01*
X92305238Y-64269523D01*
X92257619Y-64364761D01*
X92257619Y-64460000D01*
X92924285Y-64698095D02*
X92257619Y-64936190D01*
X92924285Y-65174285D02*
X92257619Y-64936190D01*
X92019523Y-64840952D01*
X91971904Y-64793333D01*
X91924285Y-64698095D01*
D11*
X150590476Y-53163273D02*
X150590476Y-50877559D01*
X150590476Y-52020416D02*
X154590476Y-52520416D01*
X154019047Y-52068035D01*
X153638095Y-51639464D01*
X153447619Y-51234702D01*
X150590476Y-54877559D02*
X154590476Y-55377559D01*
X154590476Y-56329940D01*
X154400000Y-56877559D01*
X154019047Y-57210892D01*
X153638095Y-57353750D01*
X152876190Y-57448988D01*
X152304761Y-57377559D01*
X151542857Y-57091845D01*
X151161904Y-56853750D01*
X150780952Y-56425178D01*
X150590476Y-55829940D01*
X150590476Y-54877559D01*
X152685714Y-63520416D02*
X152685714Y-62187083D01*
X150590476Y-61925178D02*
X154590476Y-62425178D01*
X154590476Y-64329940D01*
X150590476Y-65353749D02*
X153257142Y-65687083D01*
X152495238Y-65591845D02*
X152876190Y-65829940D01*
X153066666Y-66044226D01*
X153257142Y-66448988D01*
X153257142Y-66829940D01*
X150590476Y-68401369D02*
X150780952Y-68044226D01*
X150971428Y-67877559D01*
X151352380Y-67734702D01*
X152495238Y-67877559D01*
X152876190Y-68115654D01*
X153066666Y-68329940D01*
X153257142Y-68734702D01*
X153257142Y-69306130D01*
X153066666Y-69663273D01*
X152876190Y-69829940D01*
X152495238Y-69972797D01*
X151352380Y-69829940D01*
X150971428Y-69591845D01*
X150780952Y-69377559D01*
X150590476Y-68972797D01*
X150590476Y-68401369D01*
X153257142Y-73496607D02*
X150019047Y-73091845D01*
X149638095Y-72853749D01*
X149447619Y-72639464D01*
X149257142Y-72234702D01*
X149257142Y-71663273D01*
X149447619Y-71306130D01*
X150780952Y-73187083D02*
X150590476Y-72782321D01*
X150590476Y-72020416D01*
X150780952Y-71663273D01*
X150971428Y-71496607D01*
X151352380Y-71353749D01*
X152495238Y-71496607D01*
X152876190Y-71734702D01*
X153066666Y-71948988D01*
X153257142Y-72353749D01*
X153257142Y-73115654D01*
X153066666Y-73472797D01*
X153257142Y-77115654D02*
X150019047Y-76710892D01*
X149638095Y-76472797D01*
X149447619Y-76258511D01*
X149257142Y-75853749D01*
X149257142Y-75282321D01*
X149447619Y-74925178D01*
X150780952Y-76806130D02*
X150590476Y-76401369D01*
X150590476Y-75639464D01*
X150780952Y-75282321D01*
X150971428Y-75115654D01*
X151352380Y-74972797D01*
X152495238Y-75115654D01*
X152876190Y-75353749D01*
X153066666Y-75568035D01*
X153257142Y-75972797D01*
X153257142Y-76734702D01*
X153066666Y-77091845D01*
X150780952Y-80234702D02*
X150590476Y-79829940D01*
X150590476Y-79068035D01*
X150780952Y-78710892D01*
X151161904Y-78568035D01*
X152685714Y-78758511D01*
X153066666Y-78996607D01*
X153257142Y-79401369D01*
X153257142Y-80163273D01*
X153066666Y-80520416D01*
X152685714Y-80663273D01*
X152304761Y-80615654D01*
X151923809Y-78663273D01*
X150590476Y-82115654D02*
X153257142Y-82448988D01*
X152495238Y-82353749D02*
X152876190Y-82591845D01*
X153066666Y-82806130D01*
X153257142Y-83210892D01*
X153257142Y-83591845D01*
D10*
X74032619Y-49530952D02*
X75032619Y-49530952D01*
X75032619Y-49911904D01*
X74985000Y-50007142D01*
X74937380Y-50054761D01*
X74842142Y-50102380D01*
X74699285Y-50102380D01*
X74604047Y-50054761D01*
X74556428Y-50007142D01*
X74508809Y-49911904D01*
X74508809Y-49530952D01*
X74032619Y-50530952D02*
X74699285Y-50530952D01*
X74508809Y-50530952D02*
X74604047Y-50578571D01*
X74651666Y-50626190D01*
X74699285Y-50721428D01*
X74699285Y-50816666D01*
X74080238Y-51530952D02*
X74032619Y-51435714D01*
X74032619Y-51245238D01*
X74080238Y-51150000D01*
X74175476Y-51102380D01*
X74556428Y-51102380D01*
X74651666Y-51150000D01*
X74699285Y-51245238D01*
X74699285Y-51435714D01*
X74651666Y-51530952D01*
X74556428Y-51578571D01*
X74461190Y-51578571D01*
X74365952Y-51102380D01*
X74080238Y-51959523D02*
X74032619Y-52054761D01*
X74032619Y-52245238D01*
X74080238Y-52340476D01*
X74175476Y-52388095D01*
X74223095Y-52388095D01*
X74318333Y-52340476D01*
X74365952Y-52245238D01*
X74365952Y-52102380D01*
X74413571Y-52007142D01*
X74508809Y-51959523D01*
X74556428Y-51959523D01*
X74651666Y-52007142D01*
X74699285Y-52102380D01*
X74699285Y-52245238D01*
X74651666Y-52340476D01*
X74080238Y-52769047D02*
X74032619Y-52864285D01*
X74032619Y-53054761D01*
X74080238Y-53150000D01*
X74175476Y-53197619D01*
X74223095Y-53197619D01*
X74318333Y-53150000D01*
X74365952Y-53054761D01*
X74365952Y-52911904D01*
X74413571Y-52816666D01*
X74508809Y-52769047D01*
X74556428Y-52769047D01*
X74651666Y-52816666D01*
X74699285Y-52911904D01*
X74699285Y-53054761D01*
X74651666Y-53150000D01*
X74699285Y-54292857D02*
X74032619Y-54483333D01*
X74508809Y-54673809D01*
X74032619Y-54864285D01*
X74699285Y-55054761D01*
X74032619Y-55435714D02*
X75032619Y-55435714D01*
X74032619Y-55864285D02*
X74556428Y-55864285D01*
X74651666Y-55816666D01*
X74699285Y-55721428D01*
X74699285Y-55578571D01*
X74651666Y-55483333D01*
X74604047Y-55435714D01*
X74080238Y-56721428D02*
X74032619Y-56626190D01*
X74032619Y-56435714D01*
X74080238Y-56340476D01*
X74175476Y-56292857D01*
X74556428Y-56292857D01*
X74651666Y-56340476D01*
X74699285Y-56435714D01*
X74699285Y-56626190D01*
X74651666Y-56721428D01*
X74556428Y-56769047D01*
X74461190Y-56769047D01*
X74365952Y-56292857D01*
X74699285Y-57197619D02*
X74032619Y-57197619D01*
X74604047Y-57197619D02*
X74651666Y-57245238D01*
X74699285Y-57340476D01*
X74699285Y-57483333D01*
X74651666Y-57578571D01*
X74556428Y-57626190D01*
X74032619Y-57626190D01*
X74699285Y-59292857D02*
X73889761Y-59292857D01*
X73794523Y-59245238D01*
X73746904Y-59197619D01*
X73699285Y-59102380D01*
X73699285Y-58959523D01*
X73746904Y-58864285D01*
X74080238Y-59292857D02*
X74032619Y-59197619D01*
X74032619Y-59007142D01*
X74080238Y-58911904D01*
X74127857Y-58864285D01*
X74223095Y-58816666D01*
X74508809Y-58816666D01*
X74604047Y-58864285D01*
X74651666Y-58911904D01*
X74699285Y-59007142D01*
X74699285Y-59197619D01*
X74651666Y-59292857D01*
X74032619Y-59769047D02*
X74699285Y-59769047D01*
X74508809Y-59769047D02*
X74604047Y-59816666D01*
X74651666Y-59864285D01*
X74699285Y-59959523D01*
X74699285Y-60054761D01*
X74080238Y-60769047D02*
X74032619Y-60673809D01*
X74032619Y-60483333D01*
X74080238Y-60388095D01*
X74175476Y-60340476D01*
X74556428Y-60340476D01*
X74651666Y-60388095D01*
X74699285Y-60483333D01*
X74699285Y-60673809D01*
X74651666Y-60769047D01*
X74556428Y-60816666D01*
X74461190Y-60816666D01*
X74365952Y-60340476D01*
X74080238Y-61626190D02*
X74032619Y-61530952D01*
X74032619Y-61340476D01*
X74080238Y-61245238D01*
X74175476Y-61197619D01*
X74556428Y-61197619D01*
X74651666Y-61245238D01*
X74699285Y-61340476D01*
X74699285Y-61530952D01*
X74651666Y-61626190D01*
X74556428Y-61673809D01*
X74461190Y-61673809D01*
X74365952Y-61197619D01*
X74699285Y-62102380D02*
X74032619Y-62102380D01*
X74604047Y-62102380D02*
X74651666Y-62150000D01*
X74699285Y-62245238D01*
X74699285Y-62388095D01*
X74651666Y-62483333D01*
X74556428Y-62530952D01*
X74032619Y-62530952D01*
X74699285Y-63626190D02*
X74699285Y-64007142D01*
X75032619Y-63769047D02*
X74175476Y-63769047D01*
X74080238Y-63816666D01*
X74032619Y-63911904D01*
X74032619Y-64007142D01*
X74032619Y-64483333D02*
X74080238Y-64388095D01*
X74127857Y-64340476D01*
X74223095Y-64292857D01*
X74508809Y-64292857D01*
X74604047Y-64340476D01*
X74651666Y-64388095D01*
X74699285Y-64483333D01*
X74699285Y-64626190D01*
X74651666Y-64721428D01*
X74604047Y-64769047D01*
X74508809Y-64816666D01*
X74223095Y-64816666D01*
X74127857Y-64769047D01*
X74080238Y-64721428D01*
X74032619Y-64626190D01*
X74032619Y-64483333D01*
X72382619Y-50126190D02*
X73382619Y-50126190D01*
X72382619Y-50554761D02*
X72906428Y-50554761D01*
X73001666Y-50507142D01*
X73049285Y-50411904D01*
X73049285Y-50269047D01*
X73001666Y-50173809D01*
X72954047Y-50126190D01*
X72430238Y-51411904D02*
X72382619Y-51316666D01*
X72382619Y-51126190D01*
X72430238Y-51030952D01*
X72525476Y-50983333D01*
X72906428Y-50983333D01*
X73001666Y-51030952D01*
X73049285Y-51126190D01*
X73049285Y-51316666D01*
X73001666Y-51411904D01*
X72906428Y-51459523D01*
X72811190Y-51459523D01*
X72715952Y-50983333D01*
X72382619Y-52030952D02*
X72430238Y-51935714D01*
X72525476Y-51888095D01*
X73382619Y-51888095D01*
X73049285Y-52411904D02*
X72049285Y-52411904D01*
X73001666Y-52411904D02*
X73049285Y-52507142D01*
X73049285Y-52697619D01*
X73001666Y-52792857D01*
X72954047Y-52840476D01*
X72858809Y-52888095D01*
X72573095Y-52888095D01*
X72477857Y-52840476D01*
X72430238Y-52792857D01*
X72382619Y-52697619D01*
X72382619Y-52507142D01*
X72430238Y-52411904D01*
X72906428Y-54411904D02*
X72906428Y-54078571D01*
X72382619Y-54078571D02*
X73382619Y-54078571D01*
X73382619Y-54554761D01*
X72382619Y-54935714D02*
X73049285Y-54935714D01*
X72858809Y-54935714D02*
X72954047Y-54983333D01*
X73001666Y-55030952D01*
X73049285Y-55126190D01*
X73049285Y-55221428D01*
X72382619Y-55697619D02*
X72430238Y-55602380D01*
X72477857Y-55554761D01*
X72573095Y-55507142D01*
X72858809Y-55507142D01*
X72954047Y-55554761D01*
X73001666Y-55602380D01*
X73049285Y-55697619D01*
X73049285Y-55840476D01*
X73001666Y-55935714D01*
X72954047Y-55983333D01*
X72858809Y-56030952D01*
X72573095Y-56030952D01*
X72477857Y-55983333D01*
X72430238Y-55935714D01*
X72382619Y-55840476D01*
X72382619Y-55697619D01*
X73049285Y-56888095D02*
X72239761Y-56888095D01*
X72144523Y-56840476D01*
X72096904Y-56792857D01*
X72049285Y-56697619D01*
X72049285Y-56554761D01*
X72096904Y-56459523D01*
X72430238Y-56888095D02*
X72382619Y-56792857D01*
X72382619Y-56602380D01*
X72430238Y-56507142D01*
X72477857Y-56459523D01*
X72573095Y-56411904D01*
X72858809Y-56411904D01*
X72954047Y-56459523D01*
X73001666Y-56507142D01*
X73049285Y-56602380D01*
X73049285Y-56792857D01*
X73001666Y-56888095D01*
X73049285Y-57792857D02*
X72239761Y-57792857D01*
X72144523Y-57745238D01*
X72096904Y-57697619D01*
X72049285Y-57602380D01*
X72049285Y-57459523D01*
X72096904Y-57364285D01*
X72430238Y-57792857D02*
X72382619Y-57697619D01*
X72382619Y-57507142D01*
X72430238Y-57411904D01*
X72477857Y-57364285D01*
X72573095Y-57316666D01*
X72858809Y-57316666D01*
X72954047Y-57364285D01*
X73001666Y-57411904D01*
X73049285Y-57507142D01*
X73049285Y-57697619D01*
X73001666Y-57792857D01*
X72430238Y-58650000D02*
X72382619Y-58554761D01*
X72382619Y-58364285D01*
X72430238Y-58269047D01*
X72525476Y-58221428D01*
X72906428Y-58221428D01*
X73001666Y-58269047D01*
X73049285Y-58364285D01*
X73049285Y-58554761D01*
X73001666Y-58650000D01*
X72906428Y-58697619D01*
X72811190Y-58697619D01*
X72715952Y-58221428D01*
X72382619Y-59126190D02*
X73049285Y-59126190D01*
X72858809Y-59126190D02*
X72954047Y-59173809D01*
X73001666Y-59221428D01*
X73049285Y-59316666D01*
X73049285Y-59411904D01*
X72382619Y-60935714D02*
X72906428Y-60935714D01*
X73001666Y-60888095D01*
X73049285Y-60792857D01*
X73049285Y-60602380D01*
X73001666Y-60507142D01*
X72430238Y-60935714D02*
X72382619Y-60840476D01*
X72382619Y-60602380D01*
X72430238Y-60507142D01*
X72525476Y-60459523D01*
X72620714Y-60459523D01*
X72715952Y-60507142D01*
X72763571Y-60602380D01*
X72763571Y-60840476D01*
X72811190Y-60935714D01*
X72382619Y-61554761D02*
X72430238Y-61459523D01*
X72525476Y-61411904D01*
X73382619Y-61411904D01*
X72382619Y-62078571D02*
X72430238Y-61983333D01*
X72477857Y-61935714D01*
X72573095Y-61888095D01*
X72858809Y-61888095D01*
X72954047Y-61935714D01*
X73001666Y-61983333D01*
X73049285Y-62078571D01*
X73049285Y-62221428D01*
X73001666Y-62316666D01*
X72954047Y-62364285D01*
X72858809Y-62411904D01*
X72573095Y-62411904D01*
X72477857Y-62364285D01*
X72430238Y-62316666D01*
X72382619Y-62221428D01*
X72382619Y-62078571D01*
X73049285Y-62840476D02*
X72382619Y-62840476D01*
X72954047Y-62840476D02*
X73001666Y-62888095D01*
X73049285Y-62983333D01*
X73049285Y-63126190D01*
X73001666Y-63221428D01*
X72906428Y-63269047D01*
X72382619Y-63269047D01*
X73049285Y-64173809D02*
X72239761Y-64173809D01*
X72144523Y-64126190D01*
X72096904Y-64078571D01*
X72049285Y-63983333D01*
X72049285Y-63840476D01*
X72096904Y-63745238D01*
X72430238Y-64173809D02*
X72382619Y-64078571D01*
X72382619Y-63888095D01*
X72430238Y-63792857D01*
X72477857Y-63745238D01*
X72573095Y-63697619D01*
X72858809Y-63697619D01*
X72954047Y-63745238D01*
X73001666Y-63792857D01*
X73049285Y-63888095D01*
X73049285Y-64078571D01*
X73001666Y-64173809D01*
X173285714Y-48655714D02*
X173952380Y-48417619D01*
X173285714Y-48179523D01*
X173952380Y-47274761D02*
X173952380Y-47846190D01*
X173952380Y-47560476D02*
X172952380Y-47560476D01*
X173095238Y-47655714D01*
X173190476Y-47750952D01*
X173238095Y-47846190D01*
X173857142Y-46846190D02*
X173904761Y-46798571D01*
X173952380Y-46846190D01*
X173904761Y-46893809D01*
X173857142Y-46846190D01*
X173952380Y-46846190D01*
X172952380Y-46179523D02*
X172952380Y-46084285D01*
X173000000Y-45989047D01*
X173047619Y-45941428D01*
X173142857Y-45893809D01*
X173333333Y-45846190D01*
X173571428Y-45846190D01*
X173761904Y-45893809D01*
X173857142Y-45941428D01*
X173904761Y-45989047D01*
X173952380Y-46084285D01*
X173952380Y-46179523D01*
X173904761Y-46274761D01*
X173857142Y-46322380D01*
X173761904Y-46370000D01*
X173571428Y-46417619D01*
X173333333Y-46417619D01*
X173142857Y-46370000D01*
X173047619Y-46322380D01*
X173000000Y-46274761D01*
X172952380Y-46179523D01*
X173047619Y-44703333D02*
X173000000Y-44655714D01*
X172952380Y-44560476D01*
X172952380Y-44322380D01*
X173000000Y-44227142D01*
X173047619Y-44179523D01*
X173142857Y-44131904D01*
X173238095Y-44131904D01*
X173380952Y-44179523D01*
X173952380Y-44750952D01*
X173952380Y-44131904D01*
X172952380Y-43512857D02*
X172952380Y-43417619D01*
X173000000Y-43322380D01*
X173047619Y-43274761D01*
X173142857Y-43227142D01*
X173333333Y-43179523D01*
X173571428Y-43179523D01*
X173761904Y-43227142D01*
X173857142Y-43274761D01*
X173904761Y-43322380D01*
X173952380Y-43417619D01*
X173952380Y-43512857D01*
X173904761Y-43608095D01*
X173857142Y-43655714D01*
X173761904Y-43703333D01*
X173571428Y-43750952D01*
X173333333Y-43750952D01*
X173142857Y-43703333D01*
X173047619Y-43655714D01*
X173000000Y-43608095D01*
X172952380Y-43512857D01*
X173047619Y-42798571D02*
X173000000Y-42750952D01*
X172952380Y-42655714D01*
X172952380Y-42417619D01*
X173000000Y-42322380D01*
X173047619Y-42274761D01*
X173142857Y-42227142D01*
X173238095Y-42227142D01*
X173380952Y-42274761D01*
X173952380Y-42846190D01*
X173952380Y-42227142D01*
X173952380Y-41274761D02*
X173952380Y-41846190D01*
X173952380Y-41560476D02*
X172952380Y-41560476D01*
X173095238Y-41655714D01*
X173190476Y-41750952D01*
X173238095Y-41846190D01*
X173571428Y-40846190D02*
X173571428Y-40084285D01*
X173952380Y-39084285D02*
X173952380Y-39655714D01*
X173952380Y-39370000D02*
X172952380Y-39370000D01*
X173095238Y-39465238D01*
X173190476Y-39560476D01*
X173238095Y-39655714D01*
X172952380Y-38465238D02*
X172952380Y-38370000D01*
X173000000Y-38274761D01*
X173047619Y-38227142D01*
X173142857Y-38179523D01*
X173333333Y-38131904D01*
X173571428Y-38131904D01*
X173761904Y-38179523D01*
X173857142Y-38227142D01*
X173904761Y-38274761D01*
X173952380Y-38370000D01*
X173952380Y-38465238D01*
X173904761Y-38560476D01*
X173857142Y-38608095D01*
X173761904Y-38655714D01*
X173571428Y-38703333D01*
X173333333Y-38703333D01*
X173142857Y-38655714D01*
X173047619Y-38608095D01*
X173000000Y-38560476D01*
X172952380Y-38465238D01*
X173571428Y-37703333D02*
X173571428Y-36941428D01*
X173952380Y-35941428D02*
X173952380Y-36512857D01*
X173952380Y-36227142D02*
X172952380Y-36227142D01*
X173095238Y-36322380D01*
X173190476Y-36417619D01*
X173238095Y-36512857D01*
X173047619Y-35560476D02*
X173000000Y-35512857D01*
X172952380Y-35417619D01*
X172952380Y-35179523D01*
X173000000Y-35084285D01*
X173047619Y-35036666D01*
X173142857Y-34989047D01*
X173238095Y-34989047D01*
X173380952Y-35036666D01*
X173952380Y-35608095D01*
X173952380Y-34989047D01*
X172904761Y-33084285D02*
X174190476Y-33941428D01*
X172904761Y-32036666D02*
X174190476Y-32893809D01*
X173857142Y-31131904D02*
X173904761Y-31179523D01*
X173952380Y-31322380D01*
X173952380Y-31417619D01*
X173904761Y-31560476D01*
X173809523Y-31655714D01*
X173714285Y-31703333D01*
X173523809Y-31750952D01*
X173380952Y-31750952D01*
X173190476Y-31703333D01*
X173095238Y-31655714D01*
X173000000Y-31560476D01*
X172952380Y-31417619D01*
X172952380Y-31322380D01*
X173000000Y-31179523D01*
X173047619Y-31131904D01*
X173952380Y-30703333D02*
X172952380Y-30703333D01*
X173952380Y-30131904D02*
X173380952Y-30560476D01*
X172952380Y-30131904D02*
X173523809Y-30703333D01*
D12*
X158750000Y-71120000D02*
X171450000Y-73660000D01*
X146050000Y-66040000D02*
X158750000Y-71120000D01*
X133350000Y-73660000D02*
X146050000Y-66040000D01*
X120650000Y-69850000D02*
X133350000Y-73660000D01*
X107950000Y-77470000D02*
X120650000Y-69850000D01*
X95250000Y-72390000D02*
X107950000Y-77470000D01*
X158750000Y-78740000D02*
X171450000Y-81280000D01*
X146050000Y-73660000D02*
X158750000Y-78740000D01*
X133350000Y-81280000D02*
X146050000Y-73660000D01*
X120650000Y-77470000D02*
X133350000Y-81280000D01*
X107950000Y-85090000D02*
X120650000Y-77470000D01*
X95250000Y-80010000D02*
X107950000Y-85090000D01*
X82550000Y-77470000D02*
X95250000Y-72390000D01*
X69850000Y-73660000D02*
X82550000Y-77470000D01*
X57150000Y-76200000D02*
X69850000Y-73660000D01*
X82550000Y-85090000D02*
X95250000Y-80010000D01*
X69850000Y-81280000D02*
X82550000Y-85090000D01*
X57150000Y-83820000D02*
X69850000Y-81280000D01*
X69850000Y-74930000D02*
X57150000Y-77470000D01*
X82550000Y-78740000D02*
X69850000Y-74930000D01*
X95250000Y-73660000D02*
X82550000Y-78740000D01*
X107950000Y-78740000D02*
X95250000Y-73660000D01*
X120650000Y-71120000D02*
X107950000Y-78740000D01*
X133350000Y-74930000D02*
X120650000Y-71120000D01*
X146050000Y-67310000D02*
X133350000Y-74930000D01*
X158750000Y-72390000D02*
X146050000Y-67310000D01*
X171450000Y-74930000D02*
X158750000Y-72390000D01*
X158750000Y-77470000D02*
X171450000Y-80010000D01*
X146050000Y-72390000D02*
X158750000Y-77470000D01*
X133350000Y-80010000D02*
X146050000Y-72390000D01*
X120650000Y-76200000D02*
X133350000Y-80010000D01*
X107950000Y-83820000D02*
X120650000Y-76200000D01*
X95250000Y-78740000D02*
X107950000Y-83820000D01*
X82550000Y-83820000D02*
X95250000Y-78740000D01*
X69850000Y-80010000D02*
X82550000Y-83820000D01*
X57150000Y-82550000D02*
X69850000Y-80010000D01*
X140910000Y-44180000D02*
X140910000Y-45830000D01*
X140910000Y-45830000D02*
X161350000Y-45830000D01*
X161350000Y-45830000D02*
X161350000Y-40530000D01*
X161350000Y-40530000D02*
X140910000Y-40530000D01*
X140910000Y-40530000D02*
X140910000Y-42180000D01*
X140910000Y-42180000D02*
G75*
G02*
X140910000Y-44180000I0J-1000000D01*
G01*
X114240000Y-42180000D02*
G75*
G02*
X114240000Y-44180000I0J-1000000D01*
G01*
X114240000Y-44180000D02*
X114240000Y-45830000D01*
X114240000Y-45830000D02*
X124520000Y-45830000D01*
X124520000Y-45830000D02*
X124520000Y-40530000D01*
X124520000Y-40530000D02*
X114240000Y-40530000D01*
X114240000Y-40530000D02*
X114240000Y-42180000D01*
X76140000Y-42180000D02*
G75*
G02*
X76140000Y-44180000I0J-1000000D01*
G01*
X76140000Y-44180000D02*
X76140000Y-45830000D01*
X76140000Y-45830000D02*
X94040000Y-45830000D01*
X94040000Y-45830000D02*
X94040000Y-40530000D01*
X94040000Y-40530000D02*
X76140000Y-40530000D01*
X76140000Y-40530000D02*
X76140000Y-42180000D01*
X176090000Y-71220000D02*
X174140000Y-71220000D01*
X171920000Y-71220000D02*
X168690000Y-71220000D01*
X166770000Y-70500000D02*
X166770000Y-69420000D01*
X166770000Y-65200000D02*
X166770000Y-64120000D01*
X171920000Y-63400000D02*
X168690000Y-63400000D01*
X176090000Y-63400000D02*
X174140000Y-63400000D01*
X166770000Y-69420000D02*
X166340000Y-69420000D01*
X176090000Y-63400000D02*
X176090000Y-71220000D01*
X138240000Y-34580000D02*
X138396000Y-34580000D01*
X135924000Y-34580000D02*
X136080000Y-34580000D01*
X138239837Y-31978870D02*
G75*
G02*
X138240000Y-34060961I-1079837J-1041130D01*
G01*
X136080163Y-31978870D02*
G75*
G03*
X136080000Y-34060961I1079837J-1041130D01*
G01*
X138238608Y-31347665D02*
G75*
G02*
X138395516Y-34580000I-1078608J-1672335D01*
G01*
X136081392Y-31347665D02*
G75*
G03*
X135924484Y-34580000I1078608J-1672335D01*
G01*
D13*
G36*
X144310451Y-56240417D02*
G01*
X144259642Y-56341498D01*
X144224582Y-56382575D01*
X144114805Y-56465414D01*
X143999726Y-56506275D01*
X143878808Y-56505247D01*
X143751510Y-56462417D01*
X143746683Y-56460037D01*
X143645966Y-56388614D01*
X143571968Y-56292628D01*
X143529153Y-56181187D01*
X143521985Y-56063403D01*
X143529848Y-56017584D01*
X143579645Y-55888208D01*
X143657766Y-55789988D01*
X143762469Y-55724282D01*
X143892008Y-55692447D01*
X143951428Y-55689500D01*
X144055908Y-55708211D01*
X144159191Y-55758576D01*
X144247141Y-55831941D01*
X144296677Y-55900837D01*
X144330986Y-56006608D01*
X144334905Y-56124294D01*
X144310451Y-56240417D01*
G37*
X144310451Y-56240417D02*
X144259642Y-56341498D01*
X144224582Y-56382575D01*
X144114805Y-56465414D01*
X143999726Y-56506275D01*
X143878808Y-56505247D01*
X143751510Y-56462417D01*
X143746683Y-56460037D01*
X143645966Y-56388614D01*
X143571968Y-56292628D01*
X143529153Y-56181187D01*
X143521985Y-56063403D01*
X143529848Y-56017584D01*
X143579645Y-55888208D01*
X143657766Y-55789988D01*
X143762469Y-55724282D01*
X143892008Y-55692447D01*
X143951428Y-55689500D01*
X144055908Y-55708211D01*
X144159191Y-55758576D01*
X144247141Y-55831941D01*
X144296677Y-55900837D01*
X144330986Y-56006608D01*
X144334905Y-56124294D01*
X144310451Y-56240417D01*
G36*
X147397369Y-58071823D02*
G01*
X147363694Y-58268390D01*
X147298864Y-58461359D01*
X147207880Y-58638703D01*
X147102379Y-58781080D01*
X147045796Y-58836814D01*
X146973801Y-58897058D01*
X146892905Y-58957667D01*
X146809622Y-59014498D01*
X146730465Y-59063407D01*
X146661947Y-59100251D01*
X146610579Y-59120886D01*
X146582876Y-59121169D01*
X146579866Y-59113513D01*
X146588986Y-59085562D01*
X146613517Y-59027442D01*
X146650019Y-58946892D01*
X146695055Y-58851648D01*
X146709327Y-58822167D01*
X146784097Y-58664412D01*
X146860703Y-58495367D01*
X146936515Y-58321492D01*
X147008902Y-58149247D01*
X147075237Y-57985094D01*
X147132889Y-57835493D01*
X147179229Y-57706904D01*
X147211627Y-57605789D01*
X147224050Y-57557459D01*
X147242429Y-57503863D01*
X147265049Y-57487181D01*
X147290225Y-57502410D01*
X147316270Y-57544549D01*
X147341499Y-57608593D01*
X147364228Y-57689541D01*
X147382768Y-57782391D01*
X147395437Y-57882139D01*
X147400547Y-57983784D01*
X147397369Y-58071823D01*
G37*
X147397369Y-58071823D02*
X147363694Y-58268390D01*
X147298864Y-58461359D01*
X147207880Y-58638703D01*
X147102379Y-58781080D01*
X147045796Y-58836814D01*
X146973801Y-58897058D01*
X146892905Y-58957667D01*
X146809622Y-59014498D01*
X146730465Y-59063407D01*
X146661947Y-59100251D01*
X146610579Y-59120886D01*
X146582876Y-59121169D01*
X146579866Y-59113513D01*
X146588986Y-59085562D01*
X146613517Y-59027442D01*
X146650019Y-58946892D01*
X146695055Y-58851648D01*
X146709327Y-58822167D01*
X146784097Y-58664412D01*
X146860703Y-58495367D01*
X146936515Y-58321492D01*
X147008902Y-58149247D01*
X147075237Y-57985094D01*
X147132889Y-57835493D01*
X147179229Y-57706904D01*
X147211627Y-57605789D01*
X147224050Y-57557459D01*
X147242429Y-57503863D01*
X147265049Y-57487181D01*
X147290225Y-57502410D01*
X147316270Y-57544549D01*
X147341499Y-57608593D01*
X147364228Y-57689541D01*
X147382768Y-57782391D01*
X147395437Y-57882139D01*
X147400547Y-57983784D01*
X147397369Y-58071823D01*
G36*
X142431745Y-66697115D02*
G01*
X142395912Y-66833750D01*
X142297913Y-67077002D01*
X142160368Y-67321140D01*
X141985923Y-67563596D01*
X141777224Y-67801804D01*
X141536918Y-68033195D01*
X141267651Y-68255201D01*
X140972069Y-68465256D01*
X140652818Y-68660791D01*
X140345583Y-68823150D01*
X140081095Y-68947580D01*
X139836183Y-69050592D01*
X139597411Y-69137274D01*
X139351346Y-69212710D01*
X139229134Y-69245785D01*
X139021278Y-69297404D01*
X138839853Y-69336110D01*
X138671681Y-69363938D01*
X138503587Y-69382922D01*
X138322395Y-69395099D01*
X138239500Y-69398662D01*
X137889496Y-69397127D01*
X137546101Y-69367149D01*
X137214046Y-69310089D01*
X136898062Y-69227311D01*
X136602880Y-69120177D01*
X136333233Y-68990049D01*
X136093852Y-68838291D01*
X135978545Y-68747579D01*
X135892153Y-68671010D01*
X135834470Y-68613285D01*
X135806799Y-68576111D01*
X135810443Y-68561195D01*
X135841577Y-68568212D01*
X135873053Y-68573499D01*
X135939835Y-68580174D01*
X136034941Y-68587695D01*
X136151388Y-68595522D01*
X136282194Y-68603111D01*
X136309826Y-68604571D01*
X136559111Y-68613029D01*
X136817331Y-68613591D01*
X137074291Y-68606679D01*
X137319796Y-68592716D01*
X137543649Y-68572123D01*
X137733841Y-68545634D01*
X137897269Y-68513099D01*
X138080974Y-68469114D01*
X138269972Y-68417786D01*
X138449277Y-68363219D01*
X138603905Y-68309520D01*
X138624495Y-68301619D01*
X138732690Y-68256060D01*
X138868580Y-68193662D01*
X139023307Y-68118943D01*
X139188016Y-68036422D01*
X139353850Y-67950618D01*
X139511953Y-67866049D01*
X139653468Y-67787234D01*
X139769539Y-67718692D01*
X139781382Y-67711344D01*
X140103553Y-67489006D01*
X140421057Y-67228521D01*
X140730027Y-66934071D01*
X141026597Y-66609834D01*
X141306900Y-66259989D01*
X141567070Y-65888718D01*
X141765137Y-65566960D01*
X141822678Y-65468409D01*
X141873987Y-65382303D01*
X141914825Y-65315623D01*
X141940955Y-65275348D01*
X141947055Y-65267417D01*
X141963360Y-65262479D01*
X141987689Y-65277039D01*
X142023184Y-65314690D01*
X142072989Y-65379028D01*
X142140246Y-65473647D01*
X142187648Y-65542584D01*
X142311554Y-65758771D01*
X142398777Y-65987658D01*
X142448457Y-66223903D01*
X142459734Y-66462168D01*
X142431745Y-66697115D01*
G37*
X142431745Y-66697115D02*
X142395912Y-66833750D01*
X142297913Y-67077002D01*
X142160368Y-67321140D01*
X141985923Y-67563596D01*
X141777224Y-67801804D01*
X141536918Y-68033195D01*
X141267651Y-68255201D01*
X140972069Y-68465256D01*
X140652818Y-68660791D01*
X140345583Y-68823150D01*
X140081095Y-68947580D01*
X139836183Y-69050592D01*
X139597411Y-69137274D01*
X139351346Y-69212710D01*
X139229134Y-69245785D01*
X139021278Y-69297404D01*
X138839853Y-69336110D01*
X138671681Y-69363938D01*
X138503587Y-69382922D01*
X138322395Y-69395099D01*
X138239500Y-69398662D01*
X137889496Y-69397127D01*
X137546101Y-69367149D01*
X137214046Y-69310089D01*
X136898062Y-69227311D01*
X136602880Y-69120177D01*
X136333233Y-68990049D01*
X136093852Y-68838291D01*
X135978545Y-68747579D01*
X135892153Y-68671010D01*
X135834470Y-68613285D01*
X135806799Y-68576111D01*
X135810443Y-68561195D01*
X135841577Y-68568212D01*
X135873053Y-68573499D01*
X135939835Y-68580174D01*
X136034941Y-68587695D01*
X136151388Y-68595522D01*
X136282194Y-68603111D01*
X136309826Y-68604571D01*
X136559111Y-68613029D01*
X136817331Y-68613591D01*
X137074291Y-68606679D01*
X137319796Y-68592716D01*
X137543649Y-68572123D01*
X137733841Y-68545634D01*
X137897269Y-68513099D01*
X138080974Y-68469114D01*
X138269972Y-68417786D01*
X138449277Y-68363219D01*
X138603905Y-68309520D01*
X138624495Y-68301619D01*
X138732690Y-68256060D01*
X138868580Y-68193662D01*
X139023307Y-68118943D01*
X139188016Y-68036422D01*
X139353850Y-67950618D01*
X139511953Y-67866049D01*
X139653468Y-67787234D01*
X139769539Y-67718692D01*
X139781382Y-67711344D01*
X140103553Y-67489006D01*
X140421057Y-67228521D01*
X140730027Y-66934071D01*
X141026597Y-66609834D01*
X141306900Y-66259989D01*
X141567070Y-65888718D01*
X141765137Y-65566960D01*
X141822678Y-65468409D01*
X141873987Y-65382303D01*
X141914825Y-65315623D01*
X141940955Y-65275348D01*
X141947055Y-65267417D01*
X141963360Y-65262479D01*
X141987689Y-65277039D01*
X142023184Y-65314690D01*
X142072989Y-65379028D01*
X142140246Y-65473647D01*
X142187648Y-65542584D01*
X142311554Y-65758771D01*
X142398777Y-65987658D01*
X142448457Y-66223903D01*
X142459734Y-66462168D01*
X142431745Y-66697115D01*
G36*
X146737293Y-55509584D02*
G01*
X146735719Y-55737868D01*
X146730820Y-55933271D01*
X146721522Y-56105185D01*
X146706748Y-56263002D01*
X146685423Y-56416115D01*
X146656473Y-56573916D01*
X146618822Y-56745797D01*
X146575082Y-56926408D01*
X146424002Y-57447097D01*
X146233458Y-57960385D01*
X146005900Y-58461575D01*
X145743778Y-58945968D01*
X145449545Y-59408868D01*
X145125649Y-59845575D01*
X144930694Y-60078691D01*
X144870359Y-60146635D01*
X144810117Y-60211708D01*
X144745974Y-60277664D01*
X144673937Y-60348254D01*
X144590011Y-60427232D01*
X144490204Y-60518350D01*
X144370520Y-60625359D01*
X144226967Y-60752014D01*
X144055551Y-60902065D01*
X144039167Y-60916369D01*
X143730142Y-61190083D01*
X143453314Y-61444335D01*
X143205506Y-61682919D01*
X142983543Y-61909630D01*
X142784250Y-62128262D01*
X142604449Y-62342613D01*
X142440967Y-62556475D01*
X142290626Y-62773644D01*
X142150252Y-62997916D01*
X142016668Y-63233085D01*
X141886700Y-63482946D01*
X141879715Y-63496945D01*
X141831989Y-63593987D01*
X141786129Y-63690124D01*
X141739542Y-63791244D01*
X141689637Y-63903232D01*
X141633822Y-64031977D01*
X141569507Y-64183363D01*
X141494100Y-64363277D01*
X141421781Y-64537167D01*
X141231323Y-64956239D01*
X141020401Y-65342299D01*
X140785060Y-65701315D01*
X140521346Y-66039257D01*
X140225303Y-66362093D01*
X140187687Y-66399834D01*
X139836781Y-66721928D01*
X139470351Y-67005957D01*
X139089580Y-67251454D01*
X138695654Y-67457951D01*
X138289756Y-67624979D01*
X137873069Y-67752071D01*
X137446779Y-67838758D01*
X137012069Y-67884573D01*
X136570123Y-67889048D01*
X136436951Y-67882301D01*
X136121747Y-67852112D01*
X135830404Y-67802108D01*
X135548880Y-67728861D01*
X135263131Y-67628942D01*
X135069516Y-67548524D01*
X134944627Y-67489875D01*
X134806359Y-67418261D01*
X134661628Y-67337913D01*
X134517349Y-67253062D01*
X134380438Y-67167943D01*
X134257811Y-67086785D01*
X134156384Y-67013821D01*
X134083072Y-66953284D01*
X134061536Y-66931710D01*
X134045334Y-66914279D01*
X134037413Y-66901622D01*
X134043315Y-66891884D01*
X134068580Y-66883209D01*
X134118748Y-66873740D01*
X134199361Y-66861622D01*
X134315960Y-66844997D01*
X134323667Y-66843895D01*
X134551810Y-66802949D01*
X134778309Y-66746743D01*
X134996268Y-66677934D01*
X135198789Y-66599175D01*
X135378973Y-66513122D01*
X135529924Y-66422431D01*
X135634971Y-66339142D01*
X135739097Y-66220395D01*
X135801512Y-66098127D01*
X135822812Y-65970319D01*
X135803595Y-65834957D01*
X135793555Y-65802687D01*
X135766272Y-65739145D01*
X135727115Y-65680771D01*
X135671100Y-65623385D01*
X135593245Y-65562805D01*
X135488567Y-65494848D01*
X135352082Y-65415335D01*
X135292266Y-65382005D01*
X135121423Y-65283983D01*
X134932905Y-65169514D01*
X134735725Y-65044544D01*
X134538897Y-64915015D01*
X134351435Y-64786872D01*
X134182353Y-64666058D01*
X134040666Y-64558517D01*
X134027333Y-64547908D01*
X133586082Y-64169065D01*
X133177689Y-63765468D01*
X132803016Y-63338590D01*
X132462924Y-62889906D01*
X132158274Y-62420892D01*
X131889929Y-61933022D01*
X131658750Y-61427771D01*
X131465599Y-60906614D01*
X131311336Y-60371025D01*
X131196824Y-59822479D01*
X131170740Y-59658250D01*
X131151135Y-59499184D01*
X131135404Y-59319220D01*
X131123923Y-59128831D01*
X131117071Y-58938487D01*
X131115224Y-58758660D01*
X131118761Y-58599822D01*
X131128005Y-58472917D01*
X131151207Y-58308165D01*
X131183036Y-58138001D01*
X131219927Y-57979998D01*
X131247474Y-57884094D01*
X131287958Y-57796537D01*
X131352025Y-57730229D01*
X131363811Y-57721415D01*
X131443192Y-57673984D01*
X131550287Y-57623804D01*
X131671332Y-57576612D01*
X131792567Y-57538145D01*
X131822083Y-57530365D01*
X131913417Y-57507461D01*
X131902116Y-57397522D01*
X131896371Y-57330226D01*
X131889733Y-57234831D01*
X131883137Y-57125536D01*
X131878839Y-57044167D01*
X131872320Y-56924805D01*
X131863515Y-56781559D01*
X131853596Y-56632736D01*
X131844074Y-56501089D01*
X131835409Y-56381331D01*
X131830866Y-56295713D01*
X131830801Y-56236212D01*
X131835568Y-56194804D01*
X131845523Y-56163465D01*
X131860241Y-56135484D01*
X131935899Y-56045817D01*
X132036085Y-55982111D01*
X132149411Y-55949632D01*
X132256766Y-55952096D01*
X132331655Y-55982291D01*
X132411984Y-56039929D01*
X132485636Y-56113932D01*
X132540492Y-56193224D01*
X132554608Y-56224347D01*
X132581477Y-56315811D01*
X132607877Y-56440798D01*
X132632581Y-56590503D01*
X132654359Y-56756124D01*
X132671981Y-56928855D01*
X132684219Y-57099894D01*
X132687795Y-57178144D01*
X132692520Y-57303896D01*
X132696925Y-57393856D01*
X132702220Y-57454535D01*
X132709616Y-57492447D01*
X132720322Y-57514105D01*
X132735548Y-57526022D01*
X132753855Y-57533701D01*
X132829089Y-57550713D01*
X132890583Y-57536850D01*
X132940951Y-57489410D01*
X132982808Y-57405687D01*
X133018769Y-57282979D01*
X133025665Y-57252698D01*
X133041762Y-57149021D01*
X133053036Y-57013966D01*
X133059492Y-56858210D01*
X133061138Y-56692432D01*
X133057980Y-56527310D01*
X133050024Y-56373522D01*
X133037278Y-56241746D01*
X133024986Y-56165750D01*
X133000087Y-56022633D01*
X132992525Y-55911026D01*
X133003454Y-55823321D01*
X133034029Y-55751912D01*
X133085404Y-55689189D01*
X133099281Y-55676101D01*
X133203941Y-55602416D01*
X133315276Y-55568400D01*
X133403027Y-55566921D01*
X133515866Y-55591206D01*
X133602148Y-55645700D01*
X133667766Y-55734728D01*
X133687169Y-55775375D01*
X133724226Y-55871799D01*
X133752936Y-55972577D01*
X133774195Y-56084598D01*
X133788902Y-56214750D01*
X133797954Y-56369923D01*
X133802249Y-56557003D01*
X133802891Y-56663167D01*
X133800453Y-56885270D01*
X133791403Y-57074134D01*
X133774498Y-57238510D01*
X133748490Y-57387151D01*
X133712134Y-57528809D01*
X133664186Y-57672236D01*
X133656258Y-57693538D01*
X133629933Y-57768278D01*
X133611159Y-57830745D01*
X133604000Y-57867407D01*
X133620149Y-57896160D01*
X133662761Y-57939642D01*
X133723090Y-57989083D01*
X133731812Y-57995516D01*
X133823729Y-58070031D01*
X133932152Y-58169930D01*
X134048653Y-58286384D01*
X134164805Y-58410567D01*
X134272181Y-58533651D01*
X134362353Y-58646806D01*
X134390334Y-58685336D01*
X134569688Y-58964680D01*
X134738704Y-59277184D01*
X134897577Y-59623591D01*
X135046498Y-60004646D01*
X135185662Y-60421092D01*
X135315261Y-60873673D01*
X135435490Y-61363132D01*
X135546540Y-61890214D01*
X135648605Y-62455662D01*
X135741879Y-63060219D01*
X135826554Y-63704630D01*
X135902825Y-64389638D01*
X135921793Y-64579500D01*
X135946695Y-64818750D01*
X135971143Y-65018926D01*
X135995840Y-65183274D01*
X136021493Y-65315038D01*
X136048806Y-65417463D01*
X136078484Y-65493793D01*
X136111232Y-65547272D01*
X136137883Y-65574065D01*
X136214279Y-65609677D01*
X136299271Y-65609789D01*
X136383960Y-65577451D01*
X136459444Y-65515710D01*
X136506974Y-65447664D01*
X136527023Y-65391472D01*
X136539857Y-65309990D01*
X136545467Y-65200333D01*
X136543840Y-65059613D01*
X136534968Y-64884944D01*
X136518839Y-64673440D01*
X136503561Y-64505417D01*
X136396246Y-63567490D01*
X136255504Y-62652189D01*
X136080388Y-61754990D01*
X135869950Y-60871367D01*
X135623243Y-59996796D01*
X135438167Y-59416581D01*
X135258629Y-58878579D01*
X135338760Y-58705138D01*
X135376823Y-58626460D01*
X135410739Y-58562972D01*
X135435222Y-58524304D01*
X135441702Y-58517597D01*
X135473731Y-58516714D01*
X135545906Y-58528752D01*
X135658074Y-58553673D01*
X135810078Y-58591439D01*
X136001766Y-58642013D01*
X136232982Y-58705356D01*
X136461500Y-58769497D01*
X136788565Y-58860549D01*
X137080855Y-58938255D01*
X137343452Y-59003539D01*
X137581438Y-59057323D01*
X137799895Y-59100529D01*
X138003904Y-59134080D01*
X138198547Y-59158897D01*
X138388907Y-59175905D01*
X138580064Y-59186024D01*
X138777101Y-59190177D01*
X138779250Y-59190193D01*
X138907876Y-59190699D01*
X139001757Y-59189585D01*
X139068473Y-59186048D01*
X139115603Y-59179282D01*
X139150729Y-59168484D01*
X139181430Y-59152851D01*
X139192000Y-59146420D01*
X139279289Y-59074360D01*
X139326038Y-58994177D01*
X139332638Y-58908564D01*
X139299478Y-58820214D01*
X139226948Y-58731818D01*
X139119988Y-58648991D01*
X139037655Y-58600664D01*
X138948243Y-58558893D01*
X138846908Y-58522578D01*
X138728801Y-58490623D01*
X138589076Y-58461926D01*
X138422887Y-58435390D01*
X138225388Y-58409916D01*
X137991731Y-58384406D01*
X137922000Y-58377387D01*
X137515441Y-58333874D01*
X137148595Y-58287584D01*
X136818890Y-58237756D01*
X136523755Y-58183629D01*
X136260617Y-58124441D01*
X136026905Y-58059431D01*
X135820046Y-57987836D01*
X135637469Y-57908897D01*
X135476601Y-57821851D01*
X135334872Y-57725936D01*
X135209707Y-57620392D01*
X135144163Y-57554967D01*
X135031438Y-57423490D01*
X134915601Y-57267489D01*
X134807380Y-57102443D01*
X134717505Y-56943835D01*
X134709003Y-56927053D01*
X134623573Y-56728011D01*
X134557338Y-56509313D01*
X134509469Y-56266402D01*
X134479138Y-55994723D01*
X134465514Y-55689718D01*
X134464547Y-55583667D01*
X134466001Y-55394304D01*
X134471256Y-55239435D01*
X134480754Y-55111354D01*
X134494941Y-55002354D01*
X134499647Y-54975116D01*
X134515678Y-54878963D01*
X134527978Y-54789585D01*
X134534658Y-54721394D01*
X134535333Y-54702897D01*
X134528616Y-54656644D01*
X134510094Y-54579472D01*
X134482212Y-54480323D01*
X134447414Y-54368143D01*
X134426858Y-54306031D01*
X134367010Y-54128537D01*
X134319879Y-53986298D01*
X134284322Y-53874569D01*
X134259194Y-53788603D01*
X134243355Y-53723657D01*
X134235659Y-53674985D01*
X134234965Y-53637840D01*
X134240130Y-53607479D01*
X134250010Y-53579155D01*
X134251126Y-53576461D01*
X134316754Y-53465405D01*
X134406263Y-53389298D01*
X134519717Y-53348099D01*
X134610830Y-53340000D01*
X134737400Y-53359754D01*
X134847911Y-53417239D01*
X134938959Y-53509789D01*
X135007141Y-53634737D01*
X135015529Y-53657072D01*
X135039357Y-53716351D01*
X135060183Y-53754924D01*
X135069468Y-53763333D01*
X135075762Y-53764092D01*
X135080312Y-53762797D01*
X135082926Y-53754093D01*
X135083413Y-53732624D01*
X135081583Y-53693036D01*
X135077245Y-53629971D01*
X135070208Y-53538075D01*
X135060281Y-53411992D01*
X135054189Y-53334655D01*
X135041705Y-53159947D01*
X135035099Y-53021348D01*
X135034727Y-52912996D01*
X135040948Y-52829027D01*
X135054117Y-52763581D01*
X135074591Y-52710793D01*
X135094202Y-52677112D01*
X135152749Y-52616093D01*
X135235124Y-52562506D01*
X135324139Y-52525732D01*
X135391777Y-52514699D01*
X135455844Y-52528126D01*
X135535210Y-52562428D01*
X135614684Y-52609111D01*
X135679075Y-52659684D01*
X135705190Y-52689919D01*
X135735267Y-52748638D01*
X135762720Y-52830894D01*
X135788517Y-52941035D01*
X135813627Y-53083412D01*
X135839022Y-53262373D01*
X135847237Y-53327034D01*
X135866341Y-53474830D01*
X135882906Y-53585599D01*
X135898399Y-53664459D01*
X135914288Y-53716526D01*
X135932042Y-53746917D01*
X135953130Y-53760748D01*
X135972429Y-53763334D01*
X136010620Y-53772553D01*
X136071984Y-53796596D01*
X136135726Y-53826565D01*
X136201350Y-53858872D01*
X136251488Y-53881756D01*
X136274541Y-53890065D01*
X136289337Y-53872188D01*
X136310396Y-53826695D01*
X136320267Y-53800375D01*
X136382728Y-53624556D01*
X136434925Y-53484368D01*
X136479763Y-53375208D01*
X136520144Y-53292472D01*
X136558972Y-53231559D01*
X136599150Y-53187864D01*
X136643581Y-53156786D01*
X136695168Y-53133720D01*
X136752333Y-53115362D01*
X136851602Y-53096680D01*
X136935517Y-53107208D01*
X137015145Y-53150315D01*
X137091135Y-53218569D01*
X137148541Y-53280678D01*
X137186024Y-53334375D01*
X137204988Y-53389113D01*
X137206834Y-53454350D01*
X137192967Y-53539540D01*
X137164789Y-53654139D01*
X137159001Y-53676005D01*
X137125984Y-53794101D01*
X137085745Y-53928614D01*
X137040954Y-54071515D01*
X136994282Y-54214774D01*
X136948399Y-54350364D01*
X136905977Y-54470255D01*
X136869684Y-54566418D01*
X136842192Y-54630826D01*
X136839826Y-54635615D01*
X136814972Y-54693572D01*
X136803506Y-54749978D01*
X136805473Y-54815948D01*
X136820919Y-54902600D01*
X136841281Y-54987474D01*
X136860540Y-55068319D01*
X136884975Y-55178024D01*
X136911834Y-55303862D01*
X136938363Y-55433109D01*
X136946004Y-55471449D01*
X136977356Y-55627987D01*
X137002563Y-55747855D01*
X137023071Y-55836034D01*
X137040328Y-55897501D01*
X137055778Y-55937235D01*
X137070868Y-55960215D01*
X137087044Y-55971419D01*
X137091681Y-55973041D01*
X137127769Y-55981200D01*
X137194304Y-55994039D01*
X137279952Y-56009420D01*
X137329333Y-56017891D01*
X137642383Y-56082003D01*
X137921716Y-56163656D01*
X138172952Y-56264745D01*
X138371921Y-56369314D01*
X138562001Y-56496733D01*
X138761928Y-56659706D01*
X138967337Y-56853913D01*
X139173862Y-57075032D01*
X139377140Y-57318742D01*
X139516689Y-57502557D01*
X139581941Y-57588652D01*
X139646833Y-57668623D01*
X139702641Y-57731999D01*
X139732723Y-57761848D01*
X139812062Y-57814336D01*
X139883074Y-57826509D01*
X139943661Y-57798537D01*
X139986533Y-57741153D01*
X140011531Y-57665510D01*
X140013494Y-57575664D01*
X139991453Y-57467271D01*
X139944440Y-57335990D01*
X139871487Y-57177478D01*
X139852318Y-57139417D01*
X139740202Y-56938231D01*
X139616445Y-56754905D01*
X139473575Y-56579994D01*
X139304116Y-56404050D01*
X139175901Y-56284416D01*
X139101639Y-56215241D01*
X139041422Y-56154880D01*
X139001033Y-56109448D01*
X138986257Y-56085064D01*
X138986403Y-56084041D01*
X139008482Y-56060509D01*
X139063377Y-56018021D01*
X139147340Y-55958950D01*
X139256622Y-55885674D01*
X139387475Y-55800567D01*
X139536150Y-55706004D01*
X139698898Y-55604363D01*
X139871971Y-55498017D01*
X140051620Y-55389343D01*
X140234096Y-55280716D01*
X140415651Y-55174512D01*
X140483167Y-55135544D01*
X140987091Y-54852595D01*
X141477180Y-54590895D01*
X141951309Y-54351379D01*
X142407357Y-54134980D01*
X142843199Y-53942631D01*
X143256712Y-53775266D01*
X143645775Y-53633819D01*
X143854655Y-53567784D01*
X143854655Y-54927312D01*
X143650268Y-54948170D01*
X143458033Y-55001776D01*
X143352835Y-55049413D01*
X143269692Y-55103937D01*
X143173330Y-55183247D01*
X143073252Y-55277778D01*
X142978966Y-55377963D01*
X142899976Y-55474237D01*
X142845790Y-55557034D01*
X142842958Y-55562500D01*
X142809259Y-55630956D01*
X142784910Y-55688768D01*
X142768507Y-55744810D01*
X142758646Y-55807959D01*
X142753924Y-55887090D01*
X142752937Y-55991080D01*
X142754216Y-56123722D01*
X142758583Y-56462693D01*
X142853556Y-56628596D01*
X142975586Y-56804404D01*
X143125791Y-56959432D01*
X143296878Y-57088031D01*
X143481553Y-57184552D01*
X143637000Y-57235556D01*
X143718000Y-57249413D01*
X143819642Y-57259170D01*
X143920281Y-57262767D01*
X143922750Y-57262759D01*
X144140711Y-57242592D01*
X144341239Y-57183861D01*
X144524832Y-57086349D01*
X144691991Y-56949840D01*
X144727298Y-56913825D01*
X144869850Y-56734209D01*
X144974590Y-56539910D01*
X145040862Y-56334986D01*
X145068007Y-56123499D01*
X145055368Y-55909508D01*
X145002287Y-55697072D01*
X144946155Y-55562500D01*
X144875927Y-55448131D01*
X144777707Y-55328362D01*
X144662478Y-55214310D01*
X144541226Y-55117094D01*
X144449947Y-55060321D01*
X144263574Y-54983478D01*
X144062117Y-54939111D01*
X143854655Y-54927312D01*
X143854655Y-53567784D01*
X144008263Y-53519221D01*
X144342054Y-53432409D01*
X144372075Y-53425667D01*
X144576583Y-53389341D01*
X144798653Y-53365435D01*
X145026284Y-53354268D01*
X145247472Y-53356158D01*
X145450214Y-53371425D01*
X145589941Y-53393257D01*
X145785763Y-53454627D01*
X145967972Y-53555391D01*
X146135810Y-53694605D01*
X146288518Y-53871328D01*
X146425337Y-54084619D01*
X146545509Y-54333535D01*
X146648276Y-54617135D01*
X146689275Y-54758167D01*
X146703968Y-54815124D01*
X146715365Y-54868358D01*
X146723873Y-54924238D01*
X146729900Y-54989136D01*
X146733852Y-55069422D01*
X146736136Y-55171468D01*
X146737160Y-55301644D01*
X146737332Y-55466321D01*
X146737293Y-55509584D01*
G37*
X146737293Y-55509584D02*
X146735719Y-55737868D01*
X146730820Y-55933271D01*
X146721522Y-56105185D01*
X146706748Y-56263002D01*
X146685423Y-56416115D01*
X146656473Y-56573916D01*
X146618822Y-56745797D01*
X146575082Y-56926408D01*
X146424002Y-57447097D01*
X146233458Y-57960385D01*
X146005900Y-58461575D01*
X145743778Y-58945968D01*
X145449545Y-59408868D01*
X145125649Y-59845575D01*
X144930694Y-60078691D01*
X144870359Y-60146635D01*
X144810117Y-60211708D01*
X144745974Y-60277664D01*
X144673937Y-60348254D01*
X144590011Y-60427232D01*
X144490204Y-60518350D01*
X144370520Y-60625359D01*
X144226967Y-60752014D01*
X144055551Y-60902065D01*
X144039167Y-60916369D01*
X143730142Y-61190083D01*
X143453314Y-61444335D01*
X143205506Y-61682919D01*
X142983543Y-61909630D01*
X142784250Y-62128262D01*
X142604449Y-62342613D01*
X142440967Y-62556475D01*
X142290626Y-62773644D01*
X142150252Y-62997916D01*
X142016668Y-63233085D01*
X141886700Y-63482946D01*
X141879715Y-63496945D01*
X141831989Y-63593987D01*
X141786129Y-63690124D01*
X141739542Y-63791244D01*
X141689637Y-63903232D01*
X141633822Y-64031977D01*
X141569507Y-64183363D01*
X141494100Y-64363277D01*
X141421781Y-64537167D01*
X141231323Y-64956239D01*
X141020401Y-65342299D01*
X140785060Y-65701315D01*
X140521346Y-66039257D01*
X140225303Y-66362093D01*
X140187687Y-66399834D01*
X139836781Y-66721928D01*
X139470351Y-67005957D01*
X139089580Y-67251454D01*
X138695654Y-67457951D01*
X138289756Y-67624979D01*
X137873069Y-67752071D01*
X137446779Y-67838758D01*
X137012069Y-67884573D01*
X136570123Y-67889048D01*
X136436951Y-67882301D01*
X136121747Y-67852112D01*
X135830404Y-67802108D01*
X135548880Y-67728861D01*
X135263131Y-67628942D01*
X135069516Y-67548524D01*
X134944627Y-67489875D01*
X134806359Y-67418261D01*
X134661628Y-67337913D01*
X134517349Y-67253062D01*
X134380438Y-67167943D01*
X134257811Y-67086785D01*
X134156384Y-67013821D01*
X134083072Y-66953284D01*
X134061536Y-66931710D01*
X134045334Y-66914279D01*
X134037413Y-66901622D01*
X134043315Y-66891884D01*
X134068580Y-66883209D01*
X134118748Y-66873740D01*
X134199361Y-66861622D01*
X134315960Y-66844997D01*
X134323667Y-66843895D01*
X134551810Y-66802949D01*
X134778309Y-66746743D01*
X134996268Y-66677934D01*
X135198789Y-66599175D01*
X135378973Y-66513122D01*
X135529924Y-66422431D01*
X135634971Y-66339142D01*
X135739097Y-66220395D01*
X135801512Y-66098127D01*
X135822812Y-65970319D01*
X135803595Y-65834957D01*
X135793555Y-65802687D01*
X135766272Y-65739145D01*
X135727115Y-65680771D01*
X135671100Y-65623385D01*
X135593245Y-65562805D01*
X135488567Y-65494848D01*
X135352082Y-65415335D01*
X135292266Y-65382005D01*
X135121423Y-65283983D01*
X134932905Y-65169514D01*
X134735725Y-65044544D01*
X134538897Y-64915015D01*
X134351435Y-64786872D01*
X134182353Y-64666058D01*
X134040666Y-64558517D01*
X134027333Y-64547908D01*
X133586082Y-64169065D01*
X133177689Y-63765468D01*
X132803016Y-63338590D01*
X132462924Y-62889906D01*
X132158274Y-62420892D01*
X131889929Y-61933022D01*
X131658750Y-61427771D01*
X131465599Y-60906614D01*
X131311336Y-60371025D01*
X131196824Y-59822479D01*
X131170740Y-59658250D01*
X131151135Y-59499184D01*
X131135404Y-59319220D01*
X131123923Y-59128831D01*
X131117071Y-58938487D01*
X131115224Y-58758660D01*
X131118761Y-58599822D01*
X131128005Y-58472917D01*
X131151207Y-58308165D01*
X131183036Y-58138001D01*
X131219927Y-57979998D01*
X131247474Y-57884094D01*
X131287958Y-57796537D01*
X131352025Y-57730229D01*
X131363811Y-57721415D01*
X131443192Y-57673984D01*
X131550287Y-57623804D01*
X131671332Y-57576612D01*
X131792567Y-57538145D01*
X131822083Y-57530365D01*
X131913417Y-57507461D01*
X131902116Y-57397522D01*
X131896371Y-57330226D01*
X131889733Y-57234831D01*
X131883137Y-57125536D01*
X131878839Y-57044167D01*
X131872320Y-56924805D01*
X131863515Y-56781559D01*
X131853596Y-56632736D01*
X131844074Y-56501089D01*
X131835409Y-56381331D01*
X131830866Y-56295713D01*
X131830801Y-56236212D01*
X131835568Y-56194804D01*
X131845523Y-56163465D01*
X131860241Y-56135484D01*
X131935899Y-56045817D01*
X132036085Y-55982111D01*
X132149411Y-55949632D01*
X132256766Y-55952096D01*
X132331655Y-55982291D01*
X132411984Y-56039929D01*
X132485636Y-56113932D01*
X132540492Y-56193224D01*
X132554608Y-56224347D01*
X132581477Y-56315811D01*
X132607877Y-56440798D01*
X132632581Y-56590503D01*
X132654359Y-56756124D01*
X132671981Y-56928855D01*
X132684219Y-57099894D01*
X132687795Y-57178144D01*
X132692520Y-57303896D01*
X132696925Y-57393856D01*
X132702220Y-57454535D01*
X132709616Y-57492447D01*
X132720322Y-57514105D01*
X132735548Y-57526022D01*
X132753855Y-57533701D01*
X132829089Y-57550713D01*
X132890583Y-57536850D01*
X132940951Y-57489410D01*
X132982808Y-57405687D01*
X133018769Y-57282979D01*
X133025665Y-57252698D01*
X133041762Y-57149021D01*
X133053036Y-57013966D01*
X133059492Y-56858210D01*
X133061138Y-56692432D01*
X133057980Y-56527310D01*
X133050024Y-56373522D01*
X133037278Y-56241746D01*
X133024986Y-56165750D01*
X133000087Y-56022633D01*
X132992525Y-55911026D01*
X133003454Y-55823321D01*
X133034029Y-55751912D01*
X133085404Y-55689189D01*
X133099281Y-55676101D01*
X133203941Y-55602416D01*
X133315276Y-55568400D01*
X133403027Y-55566921D01*
X133515866Y-55591206D01*
X133602148Y-55645700D01*
X133667766Y-55734728D01*
X133687169Y-55775375D01*
X133724226Y-55871799D01*
X133752936Y-55972577D01*
X133774195Y-56084598D01*
X133788902Y-56214750D01*
X133797954Y-56369923D01*
X133802249Y-56557003D01*
X133802891Y-56663167D01*
X133800453Y-56885270D01*
X133791403Y-57074134D01*
X133774498Y-57238510D01*
X133748490Y-57387151D01*
X133712134Y-57528809D01*
X133664186Y-57672236D01*
X133656258Y-57693538D01*
X133629933Y-57768278D01*
X133611159Y-57830745D01*
X133604000Y-57867407D01*
X133620149Y-57896160D01*
X133662761Y-57939642D01*
X133723090Y-57989083D01*
X133731812Y-57995516D01*
X133823729Y-58070031D01*
X133932152Y-58169930D01*
X134048653Y-58286384D01*
X134164805Y-58410567D01*
X134272181Y-58533651D01*
X134362353Y-58646806D01*
X134390334Y-58685336D01*
X134569688Y-58964680D01*
X134738704Y-59277184D01*
X134897577Y-59623591D01*
X135046498Y-60004646D01*
X135185662Y-60421092D01*
X135315261Y-60873673D01*
X135435490Y-61363132D01*
X135546540Y-61890214D01*
X135648605Y-62455662D01*
X135741879Y-63060219D01*
X135826554Y-63704630D01*
X135902825Y-64389638D01*
X135921793Y-64579500D01*
X135946695Y-64818750D01*
X135971143Y-65018926D01*
X135995840Y-65183274D01*
X136021493Y-65315038D01*
X136048806Y-65417463D01*
X136078484Y-65493793D01*
X136111232Y-65547272D01*
X136137883Y-65574065D01*
X136214279Y-65609677D01*
X136299271Y-65609789D01*
X136383960Y-65577451D01*
X136459444Y-65515710D01*
X136506974Y-65447664D01*
X136527023Y-65391472D01*
X136539857Y-65309990D01*
X136545467Y-65200333D01*
X136543840Y-65059613D01*
X136534968Y-64884944D01*
X136518839Y-64673440D01*
X136503561Y-64505417D01*
X136396246Y-63567490D01*
X136255504Y-62652189D01*
X136080388Y-61754990D01*
X135869950Y-60871367D01*
X135623243Y-59996796D01*
X135438167Y-59416581D01*
X135258629Y-58878579D01*
X135338760Y-58705138D01*
X135376823Y-58626460D01*
X135410739Y-58562972D01*
X135435222Y-58524304D01*
X135441702Y-58517597D01*
X135473731Y-58516714D01*
X135545906Y-58528752D01*
X135658074Y-58553673D01*
X135810078Y-58591439D01*
X136001766Y-58642013D01*
X136232982Y-58705356D01*
X136461500Y-58769497D01*
X136788565Y-58860549D01*
X137080855Y-58938255D01*
X137343452Y-59003539D01*
X137581438Y-59057323D01*
X137799895Y-59100529D01*
X138003904Y-59134080D01*
X138198547Y-59158897D01*
X138388907Y-59175905D01*
X138580064Y-59186024D01*
X138777101Y-59190177D01*
X138779250Y-59190193D01*
X138907876Y-59190699D01*
X139001757Y-59189585D01*
X139068473Y-59186048D01*
X139115603Y-59179282D01*
X139150729Y-59168484D01*
X139181430Y-59152851D01*
X139192000Y-59146420D01*
X139279289Y-59074360D01*
X139326038Y-58994177D01*
X139332638Y-58908564D01*
X139299478Y-58820214D01*
X139226948Y-58731818D01*
X139119988Y-58648991D01*
X139037655Y-58600664D01*
X138948243Y-58558893D01*
X138846908Y-58522578D01*
X138728801Y-58490623D01*
X138589076Y-58461926D01*
X138422887Y-58435390D01*
X138225388Y-58409916D01*
X137991731Y-58384406D01*
X137922000Y-58377387D01*
X137515441Y-58333874D01*
X137148595Y-58287584D01*
X136818890Y-58237756D01*
X136523755Y-58183629D01*
X136260617Y-58124441D01*
X136026905Y-58059431D01*
X135820046Y-57987836D01*
X135637469Y-57908897D01*
X135476601Y-57821851D01*
X135334872Y-57725936D01*
X135209707Y-57620392D01*
X135144163Y-57554967D01*
X135031438Y-57423490D01*
X134915601Y-57267489D01*
X134807380Y-57102443D01*
X134717505Y-56943835D01*
X134709003Y-56927053D01*
X134623573Y-56728011D01*
X134557338Y-56509313D01*
X134509469Y-56266402D01*
X134479138Y-55994723D01*
X134465514Y-55689718D01*
X134464547Y-55583667D01*
X134466001Y-55394304D01*
X134471256Y-55239435D01*
X134480754Y-55111354D01*
X134494941Y-55002354D01*
X134499647Y-54975116D01*
X134515678Y-54878963D01*
X134527978Y-54789585D01*
X134534658Y-54721394D01*
X134535333Y-54702897D01*
X134528616Y-54656644D01*
X134510094Y-54579472D01*
X134482212Y-54480323D01*
X134447414Y-54368143D01*
X134426858Y-54306031D01*
X134367010Y-54128537D01*
X134319879Y-53986298D01*
X134284322Y-53874569D01*
X134259194Y-53788603D01*
X134243355Y-53723657D01*
X134235659Y-53674985D01*
X134234965Y-53637840D01*
X134240130Y-53607479D01*
X134250010Y-53579155D01*
X134251126Y-53576461D01*
X134316754Y-53465405D01*
X134406263Y-53389298D01*
X134519717Y-53348099D01*
X134610830Y-53340000D01*
X134737400Y-53359754D01*
X134847911Y-53417239D01*
X134938959Y-53509789D01*
X135007141Y-53634737D01*
X135015529Y-53657072D01*
X135039357Y-53716351D01*
X135060183Y-53754924D01*
X135069468Y-53763333D01*
X135075762Y-53764092D01*
X135080312Y-53762797D01*
X135082926Y-53754093D01*
X135083413Y-53732624D01*
X135081583Y-53693036D01*
X135077245Y-53629971D01*
X135070208Y-53538075D01*
X135060281Y-53411992D01*
X135054189Y-53334655D01*
X135041705Y-53159947D01*
X135035099Y-53021348D01*
X135034727Y-52912996D01*
X135040948Y-52829027D01*
X135054117Y-52763581D01*
X135074591Y-52710793D01*
X135094202Y-52677112D01*
X135152749Y-52616093D01*
X135235124Y-52562506D01*
X135324139Y-52525732D01*
X135391777Y-52514699D01*
X135455844Y-52528126D01*
X135535210Y-52562428D01*
X135614684Y-52609111D01*
X135679075Y-52659684D01*
X135705190Y-52689919D01*
X135735267Y-52748638D01*
X135762720Y-52830894D01*
X135788517Y-52941035D01*
X135813627Y-53083412D01*
X135839022Y-53262373D01*
X135847237Y-53327034D01*
X135866341Y-53474830D01*
X135882906Y-53585599D01*
X135898399Y-53664459D01*
X135914288Y-53716526D01*
X135932042Y-53746917D01*
X135953130Y-53760748D01*
X135972429Y-53763334D01*
X136010620Y-53772553D01*
X136071984Y-53796596D01*
X136135726Y-53826565D01*
X136201350Y-53858872D01*
X136251488Y-53881756D01*
X136274541Y-53890065D01*
X136289337Y-53872188D01*
X136310396Y-53826695D01*
X136320267Y-53800375D01*
X136382728Y-53624556D01*
X136434925Y-53484368D01*
X136479763Y-53375208D01*
X136520144Y-53292472D01*
X136558972Y-53231559D01*
X136599150Y-53187864D01*
X136643581Y-53156786D01*
X136695168Y-53133720D01*
X136752333Y-53115362D01*
X136851602Y-53096680D01*
X136935517Y-53107208D01*
X137015145Y-53150315D01*
X137091135Y-53218569D01*
X137148541Y-53280678D01*
X137186024Y-53334375D01*
X137204988Y-53389113D01*
X137206834Y-53454350D01*
X137192967Y-53539540D01*
X137164789Y-53654139D01*
X137159001Y-53676005D01*
X137125984Y-53794101D01*
X137085745Y-53928614D01*
X137040954Y-54071515D01*
X136994282Y-54214774D01*
X136948399Y-54350364D01*
X136905977Y-54470255D01*
X136869684Y-54566418D01*
X136842192Y-54630826D01*
X136839826Y-54635615D01*
X136814972Y-54693572D01*
X136803506Y-54749978D01*
X136805473Y-54815948D01*
X136820919Y-54902600D01*
X136841281Y-54987474D01*
X136860540Y-55068319D01*
X136884975Y-55178024D01*
X136911834Y-55303862D01*
X136938363Y-55433109D01*
X136946004Y-55471449D01*
X136977356Y-55627987D01*
X137002563Y-55747855D01*
X137023071Y-55836034D01*
X137040328Y-55897501D01*
X137055778Y-55937235D01*
X137070868Y-55960215D01*
X137087044Y-55971419D01*
X137091681Y-55973041D01*
X137127769Y-55981200D01*
X137194304Y-55994039D01*
X137279952Y-56009420D01*
X137329333Y-56017891D01*
X137642383Y-56082003D01*
X137921716Y-56163656D01*
X138172952Y-56264745D01*
X138371921Y-56369314D01*
X138562001Y-56496733D01*
X138761928Y-56659706D01*
X138967337Y-56853913D01*
X139173862Y-57075032D01*
X139377140Y-57318742D01*
X139516689Y-57502557D01*
X139581941Y-57588652D01*
X139646833Y-57668623D01*
X139702641Y-57731999D01*
X139732723Y-57761848D01*
X139812062Y-57814336D01*
X139883074Y-57826509D01*
X139943661Y-57798537D01*
X139986533Y-57741153D01*
X140011531Y-57665510D01*
X140013494Y-57575664D01*
X139991453Y-57467271D01*
X139944440Y-57335990D01*
X139871487Y-57177478D01*
X139852318Y-57139417D01*
X139740202Y-56938231D01*
X139616445Y-56754905D01*
X139473575Y-56579994D01*
X139304116Y-56404050D01*
X139175901Y-56284416D01*
X139101639Y-56215241D01*
X139041422Y-56154880D01*
X139001033Y-56109448D01*
X138986257Y-56085064D01*
X138986403Y-56084041D01*
X139008482Y-56060509D01*
X139063377Y-56018021D01*
X139147340Y-55958950D01*
X139256622Y-55885674D01*
X139387475Y-55800567D01*
X139536150Y-55706004D01*
X139698898Y-55604363D01*
X139871971Y-55498017D01*
X140051620Y-55389343D01*
X140234096Y-55280716D01*
X140415651Y-55174512D01*
X140483167Y-55135544D01*
X140987091Y-54852595D01*
X141477180Y-54590895D01*
X141951309Y-54351379D01*
X142407357Y-54134980D01*
X142843199Y-53942631D01*
X143256712Y-53775266D01*
X143645775Y-53633819D01*
X143854655Y-53567784D01*
X143854655Y-54927312D01*
X143650268Y-54948170D01*
X143458033Y-55001776D01*
X143352835Y-55049413D01*
X143269692Y-55103937D01*
X143173330Y-55183247D01*
X143073252Y-55277778D01*
X142978966Y-55377963D01*
X142899976Y-55474237D01*
X142845790Y-55557034D01*
X142842958Y-55562500D01*
X142809259Y-55630956D01*
X142784910Y-55688768D01*
X142768507Y-55744810D01*
X142758646Y-55807959D01*
X142753924Y-55887090D01*
X142752937Y-55991080D01*
X142754216Y-56123722D01*
X142758583Y-56462693D01*
X142853556Y-56628596D01*
X142975586Y-56804404D01*
X143125791Y-56959432D01*
X143296878Y-57088031D01*
X143481553Y-57184552D01*
X143637000Y-57235556D01*
X143718000Y-57249413D01*
X143819642Y-57259170D01*
X143920281Y-57262767D01*
X143922750Y-57262759D01*
X144140711Y-57242592D01*
X144341239Y-57183861D01*
X144524832Y-57086349D01*
X144691991Y-56949840D01*
X144727298Y-56913825D01*
X144869850Y-56734209D01*
X144974590Y-56539910D01*
X145040862Y-56334986D01*
X145068007Y-56123499D01*
X145055368Y-55909508D01*
X145002287Y-55697072D01*
X144946155Y-55562500D01*
X144875927Y-55448131D01*
X144777707Y-55328362D01*
X144662478Y-55214310D01*
X144541226Y-55117094D01*
X144449947Y-55060321D01*
X144263574Y-54983478D01*
X144062117Y-54939111D01*
X143854655Y-54927312D01*
X143854655Y-53567784D01*
X144008263Y-53519221D01*
X144342054Y-53432409D01*
X144372075Y-53425667D01*
X144576583Y-53389341D01*
X144798653Y-53365435D01*
X145026284Y-53354268D01*
X145247472Y-53356158D01*
X145450214Y-53371425D01*
X145589941Y-53393257D01*
X145785763Y-53454627D01*
X145967972Y-53555391D01*
X146135810Y-53694605D01*
X146288518Y-53871328D01*
X146425337Y-54084619D01*
X146545509Y-54333535D01*
X146648276Y-54617135D01*
X146689275Y-54758167D01*
X146703968Y-54815124D01*
X146715365Y-54868358D01*
X146723873Y-54924238D01*
X146729900Y-54989136D01*
X146733852Y-55069422D01*
X146736136Y-55171468D01*
X146737160Y-55301644D01*
X146737332Y-55466321D01*
X146737293Y-55509584D01*
G36*
X134631801Y-65910181D02*
G01*
X134559956Y-65923728D01*
X134457206Y-65936018D01*
X134329264Y-65946824D01*
X134181839Y-65955919D01*
X134020643Y-65963079D01*
X133851386Y-65968076D01*
X133679779Y-65970684D01*
X133511533Y-65970678D01*
X133352360Y-65967830D01*
X133207969Y-65961916D01*
X133127750Y-65956560D01*
X132935032Y-65940058D01*
X132776193Y-65921950D01*
X132643761Y-65898764D01*
X132530264Y-65867032D01*
X132428230Y-65823284D01*
X132330186Y-65764051D01*
X132228662Y-65685863D01*
X132116184Y-65585251D01*
X131985282Y-65458745D01*
X131923211Y-65397256D01*
X131697886Y-65166518D01*
X131501653Y-64949840D01*
X131327908Y-64738531D01*
X131170043Y-64523897D01*
X131021453Y-64297246D01*
X130875531Y-64049886D01*
X130812090Y-63935228D01*
X130586223Y-63488526D01*
X130391123Y-63036586D01*
X130227585Y-62582829D01*
X130096406Y-62130678D01*
X129998380Y-61683554D01*
X129934304Y-61244877D01*
X129904974Y-60818071D01*
X129911184Y-60406555D01*
X129933613Y-60157431D01*
X129968003Y-59935028D01*
X130017549Y-59722930D01*
X130085976Y-59508263D01*
X130177008Y-59278152D01*
X130209632Y-59203399D01*
X130257275Y-59097577D01*
X130299961Y-59005259D01*
X130334345Y-58933486D01*
X130357085Y-58889297D01*
X130363690Y-58879011D01*
X130372453Y-58890873D01*
X130381957Y-58936989D01*
X130390845Y-59009333D01*
X130395836Y-59069279D01*
X130457584Y-59674842D01*
X130557462Y-60264241D01*
X130695197Y-60836551D01*
X130870516Y-61390851D01*
X131083147Y-61926217D01*
X131332819Y-62441725D01*
X131456952Y-62666577D01*
X131723632Y-63102288D01*
X132008873Y-63510482D01*
X132319235Y-63899597D01*
X132661282Y-64278074D01*
X132887347Y-64506404D01*
X133088948Y-64699125D01*
X133282347Y-64873793D01*
X133475455Y-65036636D01*
X133676181Y-65193885D01*
X133892437Y-65351771D01*
X134132133Y-65516522D01*
X134361675Y-65667559D01*
X134467218Y-65737478D01*
X134555162Y-65798844D01*
X134620767Y-65848115D01*
X134659292Y-65881751D01*
X134667032Y-65895602D01*
X134631801Y-65910181D01*
G37*
X134631801Y-65910181D02*
X134559956Y-65923728D01*
X134457206Y-65936018D01*
X134329264Y-65946824D01*
X134181839Y-65955919D01*
X134020643Y-65963079D01*
X133851386Y-65968076D01*
X133679779Y-65970684D01*
X133511533Y-65970678D01*
X133352360Y-65967830D01*
X133207969Y-65961916D01*
X133127750Y-65956560D01*
X132935032Y-65940058D01*
X132776193Y-65921950D01*
X132643761Y-65898764D01*
X132530264Y-65867032D01*
X132428230Y-65823284D01*
X132330186Y-65764051D01*
X132228662Y-65685863D01*
X132116184Y-65585251D01*
X131985282Y-65458745D01*
X131923211Y-65397256D01*
X131697886Y-65166518D01*
X131501653Y-64949840D01*
X131327908Y-64738531D01*
X131170043Y-64523897D01*
X131021453Y-64297246D01*
X130875531Y-64049886D01*
X130812090Y-63935228D01*
X130586223Y-63488526D01*
X130391123Y-63036586D01*
X130227585Y-62582829D01*
X130096406Y-62130678D01*
X129998380Y-61683554D01*
X129934304Y-61244877D01*
X129904974Y-60818071D01*
X129911184Y-60406555D01*
X129933613Y-60157431D01*
X129968003Y-59935028D01*
X130017549Y-59722930D01*
X130085976Y-59508263D01*
X130177008Y-59278152D01*
X130209632Y-59203399D01*
X130257275Y-59097577D01*
X130299961Y-59005259D01*
X130334345Y-58933486D01*
X130357085Y-58889297D01*
X130363690Y-58879011D01*
X130372453Y-58890873D01*
X130381957Y-58936989D01*
X130390845Y-59009333D01*
X130395836Y-59069279D01*
X130457584Y-59674842D01*
X130557462Y-60264241D01*
X130695197Y-60836551D01*
X130870516Y-61390851D01*
X131083147Y-61926217D01*
X131332819Y-62441725D01*
X131456952Y-62666577D01*
X131723632Y-63102288D01*
X132008873Y-63510482D01*
X132319235Y-63899597D01*
X132661282Y-64278074D01*
X132887347Y-64506404D01*
X133088948Y-64699125D01*
X133282347Y-64873793D01*
X133475455Y-65036636D01*
X133676181Y-65193885D01*
X133892437Y-65351771D01*
X134132133Y-65516522D01*
X134361675Y-65667559D01*
X134467218Y-65737478D01*
X134555162Y-65798844D01*
X134620767Y-65848115D01*
X134659292Y-65881751D01*
X134667032Y-65895602D01*
X134631801Y-65910181D01*
D12*
X137160000Y-48490000D02*
X137160000Y-47720000D01*
X137160000Y-40410000D02*
X137160000Y-41180000D01*
X138530000Y-47720000D02*
X138530000Y-41180000D01*
X135790000Y-47720000D02*
X138530000Y-47720000D01*
X135790000Y-41180000D02*
X135790000Y-47720000D01*
X138530000Y-41180000D02*
X135790000Y-41180000D01*
X94014000Y-77760000D02*
X94170000Y-77760000D01*
X96330000Y-77760000D02*
X96486000Y-77760000D01*
X96329837Y-75158870D02*
G75*
G02*
X96330000Y-77240961I-1079837J-1041130D01*
G01*
X94170163Y-75158870D02*
G75*
G03*
X94170000Y-77240961I1079837J-1041130D01*
G01*
X96328608Y-74527665D02*
G75*
G02*
X96485516Y-77760000I-1078608J-1672335D01*
G01*
X94171392Y-74527665D02*
G75*
G03*
X94014484Y-77760000I1078608J-1672335D01*
G01*
X87090000Y-61060000D02*
X87090000Y-58320000D01*
X87090000Y-58320000D02*
X80550000Y-58320000D01*
X80550000Y-58320000D02*
X80550000Y-61060000D01*
X80550000Y-61060000D02*
X87090000Y-61060000D01*
X87860000Y-59690000D02*
X87090000Y-59690000D01*
X79780000Y-59690000D02*
X80550000Y-59690000D01*
X91380000Y-55940000D02*
X94040000Y-55940000D01*
X91380000Y-53340000D02*
X91380000Y-55940000D01*
X94040000Y-53340000D02*
X94040000Y-55940000D01*
X91380000Y-53340000D02*
X94040000Y-53340000D01*
X91380000Y-52070000D02*
X91380000Y-50740000D01*
X91380000Y-50740000D02*
X92710000Y-50740000D01*
X81100000Y-50600000D02*
X81100000Y-53540000D01*
X81100000Y-53540000D02*
X86540000Y-53540000D01*
X86540000Y-53540000D02*
X86540000Y-50600000D01*
X86540000Y-50600000D02*
X81100000Y-50600000D01*
X80080000Y-52070000D02*
X81100000Y-52070000D01*
X87560000Y-52070000D02*
X86540000Y-52070000D01*
X82000000Y-50600000D02*
X82000000Y-53540000D01*
X82120000Y-50600000D02*
X82120000Y-53540000D01*
X81880000Y-50600000D02*
X81880000Y-53540000D01*
X81314000Y-82840000D02*
X81470000Y-82840000D01*
X83630000Y-82840000D02*
X83786000Y-82840000D01*
X83629837Y-80238870D02*
G75*
G02*
X83630000Y-82320961I-1079837J-1041130D01*
G01*
X81470163Y-80238870D02*
G75*
G03*
X81470000Y-82320961I1079837J-1041130D01*
G01*
X83628608Y-79607665D02*
G75*
G02*
X83785516Y-82840000I-1078608J-1672335D01*
G01*
X81471392Y-79607665D02*
G75*
G03*
X81314484Y-82840000I1078608J-1672335D01*
G01*
X57690000Y-65940000D02*
X57690000Y-68680000D01*
X57690000Y-68680000D02*
X64230000Y-68680000D01*
X64230000Y-68680000D02*
X64230000Y-65940000D01*
X64230000Y-65940000D02*
X57690000Y-65940000D01*
X56920000Y-67310000D02*
X57690000Y-67310000D01*
X65000000Y-67310000D02*
X64230000Y-67310000D01*
X69660000Y-33020000D02*
G75*
G03*
X69660000Y-33020000I-2620000J0D01*
G01*
X63770000Y-54190000D02*
X59270000Y-54190000D01*
X65020000Y-58190000D02*
X65020000Y-56690000D01*
X59270000Y-60690000D02*
X63770000Y-60690000D01*
X58020000Y-56690000D02*
X58020000Y-58190000D01*
X150340000Y-34290000D02*
G75*
G03*
X150340000Y-34290000I-1750000J0D01*
G01*
X95730000Y-35560000D02*
G75*
G03*
X95730000Y-35560000I-1750000J0D01*
G01*
X102080000Y-35560000D02*
G75*
G03*
X102080000Y-35560000I-1750000J0D01*
G01*
X128750000Y-35560000D02*
G75*
G03*
X128750000Y-35560000I-1750000J0D01*
G01*
X123670000Y-34290000D02*
G75*
G03*
X123670000Y-34290000I-1750000J0D01*
G01*
X86840000Y-34290000D02*
G75*
G03*
X86840000Y-34290000I-1750000J0D01*
G01*
X161770000Y-31750000D02*
G75*
G03*
X161770000Y-31750000I-1750000J0D01*
G01*
X170660000Y-31750000D02*
G75*
G03*
X170660000Y-31750000I-1750000J0D01*
G01*
X68480000Y-63340000D02*
X56180000Y-63340000D01*
X56180000Y-58760000D02*
X56180000Y-55620000D01*
X56180000Y-51040000D02*
X68480000Y-51040000D01*
X68480000Y-60620000D02*
X68480000Y-63340000D01*
X66809050Y-57150000D02*
G75*
G03*
X66809050Y-57150000I-4579050J0D01*
G01*
X68480000Y-51040000D02*
X68480000Y-53760000D01*
X68480000Y-55620000D02*
X68480000Y-58760000D01*
X56180000Y-53760000D02*
X56180000Y-51040000D01*
X56180000Y-63340000D02*
X56180000Y-60620000D01*
X128170000Y-47720000D02*
X130910000Y-47720000D01*
X130910000Y-47720000D02*
X130910000Y-41180000D01*
X130910000Y-41180000D02*
X128170000Y-41180000D01*
X128170000Y-41180000D02*
X128170000Y-47720000D01*
X129540000Y-48490000D02*
X129540000Y-47720000D01*
X129540000Y-40410000D02*
X129540000Y-41180000D01*
X171550000Y-41180000D02*
X168810000Y-41180000D01*
X168810000Y-41180000D02*
X168810000Y-47720000D01*
X168810000Y-47720000D02*
X171550000Y-47720000D01*
X171550000Y-47720000D02*
X171550000Y-41180000D01*
X170180000Y-40410000D02*
X170180000Y-41180000D01*
X170180000Y-48490000D02*
X170180000Y-47720000D01*
X110390000Y-42640000D02*
X113130000Y-42640000D01*
X113130000Y-42640000D02*
X113130000Y-36100000D01*
X113130000Y-36100000D02*
X110390000Y-36100000D01*
X110390000Y-36100000D02*
X110390000Y-42640000D01*
X111760000Y-43410000D02*
X111760000Y-42640000D01*
X111760000Y-35330000D02*
X111760000Y-36100000D01*
X57690000Y-69750000D02*
X57690000Y-72490000D01*
X57690000Y-72490000D02*
X64230000Y-72490000D01*
X64230000Y-72490000D02*
X64230000Y-69750000D01*
X64230000Y-69750000D02*
X57690000Y-69750000D01*
X56920000Y-71120000D02*
X57690000Y-71120000D01*
X65000000Y-71120000D02*
X64230000Y-71120000D01*
X107220000Y-65940000D02*
X107220000Y-68680000D01*
X107220000Y-68680000D02*
X113760000Y-68680000D01*
X113760000Y-68680000D02*
X113760000Y-65940000D01*
X113760000Y-65940000D02*
X107220000Y-65940000D01*
X106450000Y-67310000D02*
X107220000Y-67310000D01*
X114530000Y-67310000D02*
X113760000Y-67310000D01*
X165000000Y-47720000D02*
X167740000Y-47720000D01*
X167740000Y-47720000D02*
X167740000Y-41180000D01*
X167740000Y-41180000D02*
X165000000Y-41180000D01*
X165000000Y-41180000D02*
X165000000Y-47720000D01*
X166370000Y-48490000D02*
X166370000Y-47720000D01*
X166370000Y-40410000D02*
X166370000Y-41180000D01*
X134720000Y-41180000D02*
X131980000Y-41180000D01*
X131980000Y-41180000D02*
X131980000Y-47720000D01*
X131980000Y-47720000D02*
X134720000Y-47720000D01*
X134720000Y-47720000D02*
X134720000Y-41180000D01*
X133350000Y-40410000D02*
X133350000Y-41180000D01*
X133350000Y-48490000D02*
X133350000Y-47720000D01*
X106580000Y-50260000D02*
X109320000Y-50260000D01*
X109320000Y-50260000D02*
X109320000Y-43720000D01*
X109320000Y-43720000D02*
X106580000Y-43720000D01*
X106580000Y-43720000D02*
X106580000Y-50260000D01*
X107950000Y-51030000D02*
X107950000Y-50260000D01*
X107950000Y-42950000D02*
X107950000Y-43720000D01*
X113760000Y-57250000D02*
X113760000Y-54510000D01*
X113760000Y-54510000D02*
X107220000Y-54510000D01*
X107220000Y-54510000D02*
X107220000Y-57250000D01*
X107220000Y-57250000D02*
X113760000Y-57250000D01*
X114530000Y-55880000D02*
X113760000Y-55880000D01*
X106450000Y-55880000D02*
X107220000Y-55880000D01*
X107220000Y-58320000D02*
X107220000Y-61060000D01*
X107220000Y-61060000D02*
X113760000Y-61060000D01*
X113760000Y-61060000D02*
X113760000Y-58320000D01*
X113760000Y-58320000D02*
X107220000Y-58320000D01*
X106450000Y-59690000D02*
X107220000Y-59690000D01*
X114530000Y-59690000D02*
X113760000Y-59690000D01*
X113760000Y-64870000D02*
X113760000Y-62130000D01*
X113760000Y-62130000D02*
X107220000Y-62130000D01*
X107220000Y-62130000D02*
X107220000Y-64870000D01*
X107220000Y-64870000D02*
X113760000Y-64870000D01*
X114530000Y-63500000D02*
X113760000Y-63500000D01*
X106450000Y-63500000D02*
X107220000Y-63500000D01*
X62330000Y-39910000D02*
X59590000Y-39910000D01*
X59590000Y-39910000D02*
X59590000Y-46450000D01*
X59590000Y-46450000D02*
X62330000Y-46450000D01*
X62330000Y-46450000D02*
X62330000Y-39910000D01*
X60960000Y-39140000D02*
X60960000Y-39910000D01*
X60960000Y-47220000D02*
X60960000Y-46450000D01*
X87090000Y-64870000D02*
X87090000Y-62130000D01*
X87090000Y-62130000D02*
X80550000Y-62130000D01*
X80550000Y-62130000D02*
X80550000Y-64870000D01*
X80550000Y-64870000D02*
X87090000Y-64870000D01*
X87860000Y-63500000D02*
X87090000Y-63500000D01*
X79780000Y-63500000D02*
X80550000Y-63500000D01*
X80550000Y-65940000D02*
X80550000Y-68680000D01*
X80550000Y-68680000D02*
X87090000Y-68680000D01*
X87090000Y-68680000D02*
X87090000Y-65940000D01*
X87090000Y-65940000D02*
X80550000Y-65940000D01*
X79780000Y-67310000D02*
X80550000Y-67310000D01*
X87860000Y-67310000D02*
X87090000Y-67310000D01*
X80550000Y-54510000D02*
X80550000Y-57250000D01*
X80550000Y-57250000D02*
X87090000Y-57250000D01*
X87090000Y-57250000D02*
X87090000Y-54510000D01*
X87090000Y-54510000D02*
X80550000Y-54510000D01*
X79780000Y-55880000D02*
X80550000Y-55880000D01*
X87860000Y-55880000D02*
X87090000Y-55880000D01*
X120120000Y-56460000D02*
X123720000Y-56460000D01*
X123758478Y-56448478D02*
G75*
G03*
X121920000Y-52010000I-1838478J1838478D01*
G01*
X120081522Y-56448478D02*
G75*
G02*
X121920000Y-52010000I1838478J1838478D01*
G01*
X95990000Y-56460000D02*
X99590000Y-56460000D01*
X99628478Y-56448478D02*
G75*
G03*
X97790000Y-52010000I-1838478J1838478D01*
G01*
X95951522Y-56448478D02*
G75*
G02*
X97790000Y-52010000I1838478J1838478D01*
G01*
X163890000Y-54550000D02*
X161230000Y-54550000D01*
X163890000Y-57150000D02*
X163890000Y-54550000D01*
X161230000Y-57150000D02*
X161230000Y-54550000D01*
X163890000Y-57150000D02*
X161230000Y-57150000D01*
X163890000Y-58420000D02*
X163890000Y-59750000D01*
X163890000Y-59750000D02*
X162560000Y-59750000D01*
X170630000Y-58290000D02*
X170180000Y-58290000D01*
X170180000Y-57840000D02*
X170180000Y-58290000D01*
X170860000Y-60290000D02*
X170860000Y-59870000D01*
X172840000Y-60290000D02*
X170860000Y-60290000D01*
X175210000Y-60290000D02*
X174810000Y-60290000D01*
X174810000Y-52770000D02*
X175210000Y-52770000D01*
X170860000Y-52770000D02*
X170860000Y-53190000D01*
X172840000Y-52770000D02*
X170860000Y-52770000D01*
X130776000Y-53050000D02*
X130620000Y-53050000D01*
X128460000Y-53050000D02*
X128304000Y-53050000D01*
X128460163Y-55651130D02*
G75*
G02*
X128460000Y-53569039I1079837J1041130D01*
G01*
X130619837Y-55651130D02*
G75*
G03*
X130620000Y-53569039I-1079837J1041130D01*
G01*
X128461392Y-56282335D02*
G75*
G02*
X128304484Y-53050000I1078608J1672335D01*
G01*
X130618608Y-56282335D02*
G75*
G03*
X130775516Y-53050000I-1078608J1672335D01*
G01*
X153704000Y-35850000D02*
X153860000Y-35850000D01*
X156020000Y-35850000D02*
X156176000Y-35850000D01*
X156019837Y-33248870D02*
G75*
G02*
X156020000Y-35330961I-1079837J-1041130D01*
G01*
X153860163Y-33248870D02*
G75*
G03*
X153860000Y-35330961I1079837J-1041130D01*
G01*
X156018608Y-32617665D02*
G75*
G02*
X156175516Y-35850000I-1078608J-1672335D01*
G01*
X153861392Y-32617665D02*
G75*
G03*
X153704484Y-35850000I1078608J-1672335D01*
G01*
X105444000Y-35850000D02*
X105600000Y-35850000D01*
X107760000Y-35850000D02*
X107916000Y-35850000D01*
X107759837Y-33248870D02*
G75*
G02*
X107760000Y-35330961I-1079837J-1041130D01*
G01*
X105600163Y-33248870D02*
G75*
G03*
X105600000Y-35330961I1079837J-1041130D01*
G01*
X107758608Y-32617665D02*
G75*
G02*
X107915516Y-35850000I-1078608J-1672335D01*
G01*
X105601392Y-32617665D02*
G75*
G03*
X105444484Y-35850000I1078608J-1672335D01*
G01*
X170214000Y-79030000D02*
X170370000Y-79030000D01*
X172530000Y-79030000D02*
X172686000Y-79030000D01*
X172529837Y-76428870D02*
G75*
G02*
X172530000Y-78510961I-1079837J-1041130D01*
G01*
X170370163Y-76428870D02*
G75*
G03*
X170370000Y-78510961I1079837J-1041130D01*
G01*
X172528608Y-75797665D02*
G75*
G02*
X172685516Y-79030000I-1078608J-1672335D01*
G01*
X170371392Y-75797665D02*
G75*
G03*
X170214484Y-79030000I1078608J-1672335D01*
G01*
X157514000Y-76490000D02*
X157670000Y-76490000D01*
X159830000Y-76490000D02*
X159986000Y-76490000D01*
X159829837Y-73888870D02*
G75*
G02*
X159830000Y-75970961I-1079837J-1041130D01*
G01*
X157670163Y-73888870D02*
G75*
G03*
X157670000Y-75970961I1079837J-1041130D01*
G01*
X159828608Y-73257665D02*
G75*
G02*
X159985516Y-76490000I-1078608J-1672335D01*
G01*
X157671392Y-73257665D02*
G75*
G03*
X157514484Y-76490000I1078608J-1672335D01*
G01*
X144814000Y-71410000D02*
X144970000Y-71410000D01*
X147130000Y-71410000D02*
X147286000Y-71410000D01*
X147129837Y-68808870D02*
G75*
G02*
X147130000Y-70890961I-1079837J-1041130D01*
G01*
X144970163Y-68808870D02*
G75*
G03*
X144970000Y-70890961I1079837J-1041130D01*
G01*
X147128608Y-68177665D02*
G75*
G02*
X147285516Y-71410000I-1078608J-1672335D01*
G01*
X144971392Y-68177665D02*
G75*
G03*
X144814484Y-71410000I1078608J-1672335D01*
G01*
X132114000Y-79030000D02*
X132270000Y-79030000D01*
X134430000Y-79030000D02*
X134586000Y-79030000D01*
X134429837Y-76428870D02*
G75*
G02*
X134430000Y-78510961I-1079837J-1041130D01*
G01*
X132270163Y-76428870D02*
G75*
G03*
X132270000Y-78510961I1079837J-1041130D01*
G01*
X134428608Y-75797665D02*
G75*
G02*
X134585516Y-79030000I-1078608J-1672335D01*
G01*
X132271392Y-75797665D02*
G75*
G03*
X132114484Y-79030000I1078608J-1672335D01*
G01*
X119414000Y-75220000D02*
X119570000Y-75220000D01*
X121730000Y-75220000D02*
X121886000Y-75220000D01*
X121729837Y-72618870D02*
G75*
G02*
X121730000Y-74700961I-1079837J-1041130D01*
G01*
X119570163Y-72618870D02*
G75*
G03*
X119570000Y-74700961I1079837J-1041130D01*
G01*
X121728608Y-71987665D02*
G75*
G02*
X121885516Y-75220000I-1078608J-1672335D01*
G01*
X119571392Y-71987665D02*
G75*
G03*
X119414484Y-75220000I1078608J-1672335D01*
G01*
X106714000Y-82840000D02*
X106870000Y-82840000D01*
X109030000Y-82840000D02*
X109186000Y-82840000D01*
X109029837Y-80238870D02*
G75*
G02*
X109030000Y-82320961I-1079837J-1041130D01*
G01*
X106870163Y-80238870D02*
G75*
G03*
X106870000Y-82320961I1079837J-1041130D01*
G01*
X109028608Y-79607665D02*
G75*
G02*
X109185516Y-82840000I-1078608J-1672335D01*
G01*
X106871392Y-79607665D02*
G75*
G03*
X106714484Y-82840000I1078608J-1672335D01*
G01*
X68614000Y-79030000D02*
X68770000Y-79030000D01*
X70930000Y-79030000D02*
X71086000Y-79030000D01*
X70929837Y-76428870D02*
G75*
G02*
X70930000Y-78510961I-1079837J-1041130D01*
G01*
X68770163Y-76428870D02*
G75*
G03*
X68770000Y-78510961I1079837J-1041130D01*
G01*
X70928608Y-75797665D02*
G75*
G02*
X71085516Y-79030000I-1078608J-1672335D01*
G01*
X68771392Y-75797665D02*
G75*
G03*
X68614484Y-79030000I1078608J-1672335D01*
G01*
X55914000Y-81570000D02*
X56070000Y-81570000D01*
X58230000Y-81570000D02*
X58386000Y-81570000D01*
X58229837Y-78968870D02*
G75*
G02*
X58230000Y-81050961I-1079837J-1041130D01*
G01*
X56070163Y-78968870D02*
G75*
G03*
X56070000Y-81050961I1079837J-1041130D01*
G01*
X58228608Y-78337665D02*
G75*
G02*
X58385516Y-81570000I-1078608J-1672335D01*
G01*
X56071392Y-78337665D02*
G75*
G03*
X55914484Y-81570000I1078608J-1672335D01*
G01*
X104340000Y-41730000D02*
X101400000Y-41730000D01*
X101400000Y-41730000D02*
X101400000Y-47170000D01*
X101400000Y-47170000D02*
X104340000Y-47170000D01*
X104340000Y-47170000D02*
X104340000Y-41730000D01*
X102870000Y-40710000D02*
X102870000Y-41730000D01*
X102870000Y-48190000D02*
X102870000Y-47170000D01*
X104340000Y-42630000D02*
X101400000Y-42630000D01*
X104340000Y-42750000D02*
X101400000Y-42750000D01*
X104340000Y-42510000D02*
X101400000Y-42510000D01*
X99260000Y-41730000D02*
X96320000Y-41730000D01*
X96320000Y-41730000D02*
X96320000Y-47170000D01*
X96320000Y-47170000D02*
X99260000Y-47170000D01*
X99260000Y-47170000D02*
X99260000Y-41730000D01*
X97790000Y-40710000D02*
X97790000Y-41730000D01*
X97790000Y-48190000D02*
X97790000Y-47170000D01*
X99260000Y-42630000D02*
X96320000Y-42630000D01*
X99260000Y-42750000D02*
X96320000Y-42750000D01*
X99260000Y-42510000D02*
X96320000Y-42510000D01*
X100430000Y-62230000D02*
G75*
G03*
X100430000Y-62230000I-2620000J0D01*
G01*
X97810000Y-64810000D02*
X97810000Y-59650000D01*
X97770000Y-64810000D02*
X97770000Y-59650000D01*
X97730000Y-64809000D02*
X97730000Y-59651000D01*
X97690000Y-64808000D02*
X97690000Y-59652000D01*
X97650000Y-64806000D02*
X97650000Y-59654000D01*
X97610000Y-64803000D02*
X97610000Y-59657000D01*
X97570000Y-64799000D02*
X97570000Y-63270000D01*
X97570000Y-61190000D02*
X97570000Y-59661000D01*
X97530000Y-64795000D02*
X97530000Y-63270000D01*
X97530000Y-61190000D02*
X97530000Y-59665000D01*
X97490000Y-64791000D02*
X97490000Y-63270000D01*
X97490000Y-61190000D02*
X97490000Y-59669000D01*
X97450000Y-64786000D02*
X97450000Y-63270000D01*
X97450000Y-61190000D02*
X97450000Y-59674000D01*
X97410000Y-64780000D02*
X97410000Y-63270000D01*
X97410000Y-61190000D02*
X97410000Y-59680000D01*
X97370000Y-64773000D02*
X97370000Y-63270000D01*
X97370000Y-61190000D02*
X97370000Y-59687000D01*
X97330000Y-64766000D02*
X97330000Y-63270000D01*
X97330000Y-61190000D02*
X97330000Y-59694000D01*
X97290000Y-64758000D02*
X97290000Y-63270000D01*
X97290000Y-61190000D02*
X97290000Y-59702000D01*
X97250000Y-64750000D02*
X97250000Y-63270000D01*
X97250000Y-61190000D02*
X97250000Y-59710000D01*
X97210000Y-64741000D02*
X97210000Y-63270000D01*
X97210000Y-61190000D02*
X97210000Y-59719000D01*
X97170000Y-64731000D02*
X97170000Y-63270000D01*
X97170000Y-61190000D02*
X97170000Y-59729000D01*
X97130000Y-64721000D02*
X97130000Y-63270000D01*
X97130000Y-61190000D02*
X97130000Y-59739000D01*
X97089000Y-64710000D02*
X97089000Y-63270000D01*
X97089000Y-61190000D02*
X97089000Y-59750000D01*
X97049000Y-64698000D02*
X97049000Y-63270000D01*
X97049000Y-61190000D02*
X97049000Y-59762000D01*
X97009000Y-64685000D02*
X97009000Y-63270000D01*
X97009000Y-61190000D02*
X97009000Y-59775000D01*
X96969000Y-64672000D02*
X96969000Y-63270000D01*
X96969000Y-61190000D02*
X96969000Y-59788000D01*
X96929000Y-64658000D02*
X96929000Y-63270000D01*
X96929000Y-61190000D02*
X96929000Y-59802000D01*
X96889000Y-64644000D02*
X96889000Y-63270000D01*
X96889000Y-61190000D02*
X96889000Y-59816000D01*
X96849000Y-64628000D02*
X96849000Y-63270000D01*
X96849000Y-61190000D02*
X96849000Y-59832000D01*
X96809000Y-64612000D02*
X96809000Y-63270000D01*
X96809000Y-61190000D02*
X96809000Y-59848000D01*
X96769000Y-64595000D02*
X96769000Y-63270000D01*
X96769000Y-61190000D02*
X96769000Y-59865000D01*
X96729000Y-64578000D02*
X96729000Y-63270000D01*
X96729000Y-61190000D02*
X96729000Y-59882000D01*
X96689000Y-64559000D02*
X96689000Y-63270000D01*
X96689000Y-61190000D02*
X96689000Y-59901000D01*
X96649000Y-64540000D02*
X96649000Y-63270000D01*
X96649000Y-61190000D02*
X96649000Y-59920000D01*
X96609000Y-64520000D02*
X96609000Y-63270000D01*
X96609000Y-61190000D02*
X96609000Y-59940000D01*
X96569000Y-64498000D02*
X96569000Y-63270000D01*
X96569000Y-61190000D02*
X96569000Y-59962000D01*
X96529000Y-64477000D02*
X96529000Y-63270000D01*
X96529000Y-61190000D02*
X96529000Y-59983000D01*
X96489000Y-64454000D02*
X96489000Y-63270000D01*
X96489000Y-61190000D02*
X96489000Y-60006000D01*
X96449000Y-64430000D02*
X96449000Y-63270000D01*
X96449000Y-61190000D02*
X96449000Y-60030000D01*
X96409000Y-64405000D02*
X96409000Y-63270000D01*
X96409000Y-61190000D02*
X96409000Y-60055000D01*
X96369000Y-64379000D02*
X96369000Y-63270000D01*
X96369000Y-61190000D02*
X96369000Y-60081000D01*
X96329000Y-64352000D02*
X96329000Y-63270000D01*
X96329000Y-61190000D02*
X96329000Y-60108000D01*
X96289000Y-64325000D02*
X96289000Y-63270000D01*
X96289000Y-61190000D02*
X96289000Y-60135000D01*
X96249000Y-64295000D02*
X96249000Y-63270000D01*
X96249000Y-61190000D02*
X96249000Y-60165000D01*
X96209000Y-64265000D02*
X96209000Y-63270000D01*
X96209000Y-61190000D02*
X96209000Y-60195000D01*
X96169000Y-64234000D02*
X96169000Y-63270000D01*
X96169000Y-61190000D02*
X96169000Y-60226000D01*
X96129000Y-64201000D02*
X96129000Y-63270000D01*
X96129000Y-61190000D02*
X96129000Y-60259000D01*
X96089000Y-64167000D02*
X96089000Y-63270000D01*
X96089000Y-61190000D02*
X96089000Y-60293000D01*
X96049000Y-64131000D02*
X96049000Y-63270000D01*
X96049000Y-61190000D02*
X96049000Y-60329000D01*
X96009000Y-64094000D02*
X96009000Y-63270000D01*
X96009000Y-61190000D02*
X96009000Y-60366000D01*
X95969000Y-64056000D02*
X95969000Y-63270000D01*
X95969000Y-61190000D02*
X95969000Y-60404000D01*
X95929000Y-64015000D02*
X95929000Y-63270000D01*
X95929000Y-61190000D02*
X95929000Y-60445000D01*
X95889000Y-63973000D02*
X95889000Y-63270000D01*
X95889000Y-61190000D02*
X95889000Y-60487000D01*
X95849000Y-63929000D02*
X95849000Y-63270000D01*
X95849000Y-61190000D02*
X95849000Y-60531000D01*
X95809000Y-63883000D02*
X95809000Y-63270000D01*
X95809000Y-61190000D02*
X95809000Y-60577000D01*
X95769000Y-63835000D02*
X95769000Y-63270000D01*
X95769000Y-61190000D02*
X95769000Y-60625000D01*
X95729000Y-63784000D02*
X95729000Y-63270000D01*
X95729000Y-61190000D02*
X95729000Y-60676000D01*
X95689000Y-63730000D02*
X95689000Y-63270000D01*
X95689000Y-61190000D02*
X95689000Y-60730000D01*
X95649000Y-63673000D02*
X95649000Y-63270000D01*
X95649000Y-61190000D02*
X95649000Y-60787000D01*
X95609000Y-63613000D02*
X95609000Y-63270000D01*
X95609000Y-61190000D02*
X95609000Y-60847000D01*
X95569000Y-63549000D02*
X95569000Y-63270000D01*
X95569000Y-61190000D02*
X95569000Y-60911000D01*
X95529000Y-63481000D02*
X95529000Y-63270000D01*
X95529000Y-61190000D02*
X95529000Y-60979000D01*
X95489000Y-63408000D02*
X95489000Y-61052000D01*
X95449000Y-63328000D02*
X95449000Y-61132000D01*
X95409000Y-63241000D02*
X95409000Y-61219000D01*
X95369000Y-63145000D02*
X95369000Y-61315000D01*
X95329000Y-63035000D02*
X95329000Y-61425000D01*
X95289000Y-62907000D02*
X95289000Y-61553000D01*
X95249000Y-62748000D02*
X95249000Y-61712000D01*
X95209000Y-62514000D02*
X95209000Y-61946000D01*
X100614775Y-63705000D02*
X100114775Y-63705000D01*
X100364775Y-63955000D02*
X100364775Y-63455000D01*
X145860000Y-34290000D02*
G75*
G03*
X145860000Y-34290000I-2620000J0D01*
G01*
X119190000Y-34290000D02*
G75*
G03*
X119190000Y-34290000I-2620000J0D01*
G01*
X81090000Y-34290000D02*
G75*
G03*
X81090000Y-34290000I-2620000J0D01*
G01*
X165200000Y-64770000D02*
G75*
G03*
X165200000Y-64770000I-2620000J0D01*
G01*
X162580000Y-67350000D02*
X162580000Y-62190000D01*
X162540000Y-67350000D02*
X162540000Y-62190000D01*
X162500000Y-67349000D02*
X162500000Y-62191000D01*
X162460000Y-67348000D02*
X162460000Y-62192000D01*
X162420000Y-67346000D02*
X162420000Y-62194000D01*
X162380000Y-67343000D02*
X162380000Y-62197000D01*
X162340000Y-67339000D02*
X162340000Y-65810000D01*
X162340000Y-63730000D02*
X162340000Y-62201000D01*
X162300000Y-67335000D02*
X162300000Y-65810000D01*
X162300000Y-63730000D02*
X162300000Y-62205000D01*
X162260000Y-67331000D02*
X162260000Y-65810000D01*
X162260000Y-63730000D02*
X162260000Y-62209000D01*
X162220000Y-67326000D02*
X162220000Y-65810000D01*
X162220000Y-63730000D02*
X162220000Y-62214000D01*
X162180000Y-67320000D02*
X162180000Y-65810000D01*
X162180000Y-63730000D02*
X162180000Y-62220000D01*
X162140000Y-67313000D02*
X162140000Y-65810000D01*
X162140000Y-63730000D02*
X162140000Y-62227000D01*
X162100000Y-67306000D02*
X162100000Y-65810000D01*
X162100000Y-63730000D02*
X162100000Y-62234000D01*
X162060000Y-67298000D02*
X162060000Y-65810000D01*
X162060000Y-63730000D02*
X162060000Y-62242000D01*
X162020000Y-67290000D02*
X162020000Y-65810000D01*
X162020000Y-63730000D02*
X162020000Y-62250000D01*
X161980000Y-67281000D02*
X161980000Y-65810000D01*
X161980000Y-63730000D02*
X161980000Y-62259000D01*
X161940000Y-67271000D02*
X161940000Y-65810000D01*
X161940000Y-63730000D02*
X161940000Y-62269000D01*
X161900000Y-67261000D02*
X161900000Y-65810000D01*
X161900000Y-63730000D02*
X161900000Y-62279000D01*
X161859000Y-67250000D02*
X161859000Y-65810000D01*
X161859000Y-63730000D02*
X161859000Y-62290000D01*
X161819000Y-67238000D02*
X161819000Y-65810000D01*
X161819000Y-63730000D02*
X161819000Y-62302000D01*
X161779000Y-67225000D02*
X161779000Y-65810000D01*
X161779000Y-63730000D02*
X161779000Y-62315000D01*
X161739000Y-67212000D02*
X161739000Y-65810000D01*
X161739000Y-63730000D02*
X161739000Y-62328000D01*
X161699000Y-67198000D02*
X161699000Y-65810000D01*
X161699000Y-63730000D02*
X161699000Y-62342000D01*
X161659000Y-67184000D02*
X161659000Y-65810000D01*
X161659000Y-63730000D02*
X161659000Y-62356000D01*
X161619000Y-67168000D02*
X161619000Y-65810000D01*
X161619000Y-63730000D02*
X161619000Y-62372000D01*
X161579000Y-67152000D02*
X161579000Y-65810000D01*
X161579000Y-63730000D02*
X161579000Y-62388000D01*
X161539000Y-67135000D02*
X161539000Y-65810000D01*
X161539000Y-63730000D02*
X161539000Y-62405000D01*
X161499000Y-67118000D02*
X161499000Y-65810000D01*
X161499000Y-63730000D02*
X161499000Y-62422000D01*
X161459000Y-67099000D02*
X161459000Y-65810000D01*
X161459000Y-63730000D02*
X161459000Y-62441000D01*
X161419000Y-67080000D02*
X161419000Y-65810000D01*
X161419000Y-63730000D02*
X161419000Y-62460000D01*
X161379000Y-67060000D02*
X161379000Y-65810000D01*
X161379000Y-63730000D02*
X161379000Y-62480000D01*
X161339000Y-67038000D02*
X161339000Y-65810000D01*
X161339000Y-63730000D02*
X161339000Y-62502000D01*
X161299000Y-67017000D02*
X161299000Y-65810000D01*
X161299000Y-63730000D02*
X161299000Y-62523000D01*
X161259000Y-66994000D02*
X161259000Y-65810000D01*
X161259000Y-63730000D02*
X161259000Y-62546000D01*
X161219000Y-66970000D02*
X161219000Y-65810000D01*
X161219000Y-63730000D02*
X161219000Y-62570000D01*
X161179000Y-66945000D02*
X161179000Y-65810000D01*
X161179000Y-63730000D02*
X161179000Y-62595000D01*
X161139000Y-66919000D02*
X161139000Y-65810000D01*
X161139000Y-63730000D02*
X161139000Y-62621000D01*
X161099000Y-66892000D02*
X161099000Y-65810000D01*
X161099000Y-63730000D02*
X161099000Y-62648000D01*
X161059000Y-66865000D02*
X161059000Y-65810000D01*
X161059000Y-63730000D02*
X161059000Y-62675000D01*
X161019000Y-66835000D02*
X161019000Y-65810000D01*
X161019000Y-63730000D02*
X161019000Y-62705000D01*
X160979000Y-66805000D02*
X160979000Y-65810000D01*
X160979000Y-63730000D02*
X160979000Y-62735000D01*
X160939000Y-66774000D02*
X160939000Y-65810000D01*
X160939000Y-63730000D02*
X160939000Y-62766000D01*
X160899000Y-66741000D02*
X160899000Y-65810000D01*
X160899000Y-63730000D02*
X160899000Y-62799000D01*
X160859000Y-66707000D02*
X160859000Y-65810000D01*
X160859000Y-63730000D02*
X160859000Y-62833000D01*
X160819000Y-66671000D02*
X160819000Y-65810000D01*
X160819000Y-63730000D02*
X160819000Y-62869000D01*
X160779000Y-66634000D02*
X160779000Y-65810000D01*
X160779000Y-63730000D02*
X160779000Y-62906000D01*
X160739000Y-66596000D02*
X160739000Y-65810000D01*
X160739000Y-63730000D02*
X160739000Y-62944000D01*
X160699000Y-66555000D02*
X160699000Y-65810000D01*
X160699000Y-63730000D02*
X160699000Y-62985000D01*
X160659000Y-66513000D02*
X160659000Y-65810000D01*
X160659000Y-63730000D02*
X160659000Y-63027000D01*
X160619000Y-66469000D02*
X160619000Y-65810000D01*
X160619000Y-63730000D02*
X160619000Y-63071000D01*
X160579000Y-66423000D02*
X160579000Y-65810000D01*
X160579000Y-63730000D02*
X160579000Y-63117000D01*
X160539000Y-66375000D02*
X160539000Y-65810000D01*
X160539000Y-63730000D02*
X160539000Y-63165000D01*
X160499000Y-66324000D02*
X160499000Y-65810000D01*
X160499000Y-63730000D02*
X160499000Y-63216000D01*
X160459000Y-66270000D02*
X160459000Y-65810000D01*
X160459000Y-63730000D02*
X160459000Y-63270000D01*
X160419000Y-66213000D02*
X160419000Y-65810000D01*
X160419000Y-63730000D02*
X160419000Y-63327000D01*
X160379000Y-66153000D02*
X160379000Y-65810000D01*
X160379000Y-63730000D02*
X160379000Y-63387000D01*
X160339000Y-66089000D02*
X160339000Y-65810000D01*
X160339000Y-63730000D02*
X160339000Y-63451000D01*
X160299000Y-66021000D02*
X160299000Y-65810000D01*
X160299000Y-63730000D02*
X160299000Y-63519000D01*
X160259000Y-65948000D02*
X160259000Y-63592000D01*
X160219000Y-65868000D02*
X160219000Y-63672000D01*
X160179000Y-65781000D02*
X160179000Y-63759000D01*
X160139000Y-65685000D02*
X160139000Y-63855000D01*
X160099000Y-65575000D02*
X160099000Y-63965000D01*
X160059000Y-65447000D02*
X160059000Y-64093000D01*
X160019000Y-65288000D02*
X160019000Y-64252000D01*
X159979000Y-65054000D02*
X159979000Y-64486000D01*
X165384775Y-66245000D02*
X164884775Y-66245000D01*
X165134775Y-66495000D02*
X165134775Y-65995000D01*
X69950000Y-43180000D02*
G75*
G03*
X69950000Y-43180000I-2620000J0D01*
G01*
X67330000Y-45760000D02*
X67330000Y-40600000D01*
X67290000Y-45760000D02*
X67290000Y-40600000D01*
X67250000Y-45759000D02*
X67250000Y-40601000D01*
X67210000Y-45758000D02*
X67210000Y-40602000D01*
X67170000Y-45756000D02*
X67170000Y-40604000D01*
X67130000Y-45753000D02*
X67130000Y-40607000D01*
X67090000Y-45749000D02*
X67090000Y-44220000D01*
X67090000Y-42140000D02*
X67090000Y-40611000D01*
X67050000Y-45745000D02*
X67050000Y-44220000D01*
X67050000Y-42140000D02*
X67050000Y-40615000D01*
X67010000Y-45741000D02*
X67010000Y-44220000D01*
X67010000Y-42140000D02*
X67010000Y-40619000D01*
X66970000Y-45736000D02*
X66970000Y-44220000D01*
X66970000Y-42140000D02*
X66970000Y-40624000D01*
X66930000Y-45730000D02*
X66930000Y-44220000D01*
X66930000Y-42140000D02*
X66930000Y-40630000D01*
X66890000Y-45723000D02*
X66890000Y-44220000D01*
X66890000Y-42140000D02*
X66890000Y-40637000D01*
X66850000Y-45716000D02*
X66850000Y-44220000D01*
X66850000Y-42140000D02*
X66850000Y-40644000D01*
X66810000Y-45708000D02*
X66810000Y-44220000D01*
X66810000Y-42140000D02*
X66810000Y-40652000D01*
X66770000Y-45700000D02*
X66770000Y-44220000D01*
X66770000Y-42140000D02*
X66770000Y-40660000D01*
X66730000Y-45691000D02*
X66730000Y-44220000D01*
X66730000Y-42140000D02*
X66730000Y-40669000D01*
X66690000Y-45681000D02*
X66690000Y-44220000D01*
X66690000Y-42140000D02*
X66690000Y-40679000D01*
X66650000Y-45671000D02*
X66650000Y-44220000D01*
X66650000Y-42140000D02*
X66650000Y-40689000D01*
X66609000Y-45660000D02*
X66609000Y-44220000D01*
X66609000Y-42140000D02*
X66609000Y-40700000D01*
X66569000Y-45648000D02*
X66569000Y-44220000D01*
X66569000Y-42140000D02*
X66569000Y-40712000D01*
X66529000Y-45635000D02*
X66529000Y-44220000D01*
X66529000Y-42140000D02*
X66529000Y-40725000D01*
X66489000Y-45622000D02*
X66489000Y-44220000D01*
X66489000Y-42140000D02*
X66489000Y-40738000D01*
X66449000Y-45608000D02*
X66449000Y-44220000D01*
X66449000Y-42140000D02*
X66449000Y-40752000D01*
X66409000Y-45594000D02*
X66409000Y-44220000D01*
X66409000Y-42140000D02*
X66409000Y-40766000D01*
X66369000Y-45578000D02*
X66369000Y-44220000D01*
X66369000Y-42140000D02*
X66369000Y-40782000D01*
X66329000Y-45562000D02*
X66329000Y-44220000D01*
X66329000Y-42140000D02*
X66329000Y-40798000D01*
X66289000Y-45545000D02*
X66289000Y-44220000D01*
X66289000Y-42140000D02*
X66289000Y-40815000D01*
X66249000Y-45528000D02*
X66249000Y-44220000D01*
X66249000Y-42140000D02*
X66249000Y-40832000D01*
X66209000Y-45509000D02*
X66209000Y-44220000D01*
X66209000Y-42140000D02*
X66209000Y-40851000D01*
X66169000Y-45490000D02*
X66169000Y-44220000D01*
X66169000Y-42140000D02*
X66169000Y-40870000D01*
X66129000Y-45470000D02*
X66129000Y-44220000D01*
X66129000Y-42140000D02*
X66129000Y-40890000D01*
X66089000Y-45448000D02*
X66089000Y-44220000D01*
X66089000Y-42140000D02*
X66089000Y-40912000D01*
X66049000Y-45427000D02*
X66049000Y-44220000D01*
X66049000Y-42140000D02*
X66049000Y-40933000D01*
X66009000Y-45404000D02*
X66009000Y-44220000D01*
X66009000Y-42140000D02*
X66009000Y-40956000D01*
X65969000Y-45380000D02*
X65969000Y-44220000D01*
X65969000Y-42140000D02*
X65969000Y-40980000D01*
X65929000Y-45355000D02*
X65929000Y-44220000D01*
X65929000Y-42140000D02*
X65929000Y-41005000D01*
X65889000Y-45329000D02*
X65889000Y-44220000D01*
X65889000Y-42140000D02*
X65889000Y-41031000D01*
X65849000Y-45302000D02*
X65849000Y-44220000D01*
X65849000Y-42140000D02*
X65849000Y-41058000D01*
X65809000Y-45275000D02*
X65809000Y-44220000D01*
X65809000Y-42140000D02*
X65809000Y-41085000D01*
X65769000Y-45245000D02*
X65769000Y-44220000D01*
X65769000Y-42140000D02*
X65769000Y-41115000D01*
X65729000Y-45215000D02*
X65729000Y-44220000D01*
X65729000Y-42140000D02*
X65729000Y-41145000D01*
X65689000Y-45184000D02*
X65689000Y-44220000D01*
X65689000Y-42140000D02*
X65689000Y-41176000D01*
X65649000Y-45151000D02*
X65649000Y-44220000D01*
X65649000Y-42140000D02*
X65649000Y-41209000D01*
X65609000Y-45117000D02*
X65609000Y-44220000D01*
X65609000Y-42140000D02*
X65609000Y-41243000D01*
X65569000Y-45081000D02*
X65569000Y-44220000D01*
X65569000Y-42140000D02*
X65569000Y-41279000D01*
X65529000Y-45044000D02*
X65529000Y-44220000D01*
X65529000Y-42140000D02*
X65529000Y-41316000D01*
X65489000Y-45006000D02*
X65489000Y-44220000D01*
X65489000Y-42140000D02*
X65489000Y-41354000D01*
X65449000Y-44965000D02*
X65449000Y-44220000D01*
X65449000Y-42140000D02*
X65449000Y-41395000D01*
X65409000Y-44923000D02*
X65409000Y-44220000D01*
X65409000Y-42140000D02*
X65409000Y-41437000D01*
X65369000Y-44879000D02*
X65369000Y-44220000D01*
X65369000Y-42140000D02*
X65369000Y-41481000D01*
X65329000Y-44833000D02*
X65329000Y-44220000D01*
X65329000Y-42140000D02*
X65329000Y-41527000D01*
X65289000Y-44785000D02*
X65289000Y-44220000D01*
X65289000Y-42140000D02*
X65289000Y-41575000D01*
X65249000Y-44734000D02*
X65249000Y-44220000D01*
X65249000Y-42140000D02*
X65249000Y-41626000D01*
X65209000Y-44680000D02*
X65209000Y-44220000D01*
X65209000Y-42140000D02*
X65209000Y-41680000D01*
X65169000Y-44623000D02*
X65169000Y-44220000D01*
X65169000Y-42140000D02*
X65169000Y-41737000D01*
X65129000Y-44563000D02*
X65129000Y-44220000D01*
X65129000Y-42140000D02*
X65129000Y-41797000D01*
X65089000Y-44499000D02*
X65089000Y-44220000D01*
X65089000Y-42140000D02*
X65089000Y-41861000D01*
X65049000Y-44431000D02*
X65049000Y-44220000D01*
X65049000Y-42140000D02*
X65049000Y-41929000D01*
X65009000Y-44358000D02*
X65009000Y-42002000D01*
X64969000Y-44278000D02*
X64969000Y-42082000D01*
X64929000Y-44191000D02*
X64929000Y-42169000D01*
X64889000Y-44095000D02*
X64889000Y-42265000D01*
X64849000Y-43985000D02*
X64849000Y-42375000D01*
X64809000Y-43857000D02*
X64809000Y-42503000D01*
X64769000Y-43698000D02*
X64769000Y-42662000D01*
X64729000Y-43464000D02*
X64729000Y-42896000D01*
X70134775Y-44655000D02*
X69634775Y-44655000D01*
X69884775Y-44905000D02*
X69884775Y-44405000D01*
D10*
X147391904Y-42632380D02*
X148058571Y-42632380D01*
X147630000Y-43632380D01*
X148868095Y-42965714D02*
X148868095Y-43632380D01*
X148630000Y-42584761D02*
X148391904Y-43299047D01*
X149010952Y-43299047D01*
X149391904Y-43632380D02*
X149391904Y-42632380D01*
X149391904Y-43108571D02*
X149963333Y-43108571D01*
X149963333Y-43632380D02*
X149963333Y-42632380D01*
X151010952Y-43537142D02*
X150963333Y-43584761D01*
X150820476Y-43632380D01*
X150725238Y-43632380D01*
X150582380Y-43584761D01*
X150487142Y-43489523D01*
X150439523Y-43394285D01*
X150391904Y-43203809D01*
X150391904Y-43060952D01*
X150439523Y-42870476D01*
X150487142Y-42775238D01*
X150582380Y-42680000D01*
X150725238Y-42632380D01*
X150820476Y-42632380D01*
X150963333Y-42680000D01*
X151010952Y-42727619D01*
X151868095Y-42965714D02*
X151868095Y-43632380D01*
X151630000Y-42584761D02*
X151391904Y-43299047D01*
X152010952Y-43299047D01*
X152582380Y-42632380D02*
X152677619Y-42632380D01*
X152772857Y-42680000D01*
X152820476Y-42727619D01*
X152868095Y-42822857D01*
X152915714Y-43013333D01*
X152915714Y-43251428D01*
X152868095Y-43441904D01*
X152820476Y-43537142D01*
X152772857Y-43584761D01*
X152677619Y-43632380D01*
X152582380Y-43632380D01*
X152487142Y-43584761D01*
X152439523Y-43537142D01*
X152391904Y-43441904D01*
X152344285Y-43251428D01*
X152344285Y-43013333D01*
X152391904Y-42822857D01*
X152439523Y-42727619D01*
X152487142Y-42680000D01*
X152582380Y-42632380D01*
X153868095Y-43632380D02*
X153296666Y-43632380D01*
X153582380Y-43632380D02*
X153582380Y-42632380D01*
X153487142Y-42775238D01*
X153391904Y-42870476D01*
X153296666Y-42918095D01*
X154201428Y-42632380D02*
X154868095Y-42632380D01*
X154439523Y-43632380D01*
X117689523Y-43632380D02*
X117213333Y-43632380D01*
X117213333Y-42632380D01*
X118022857Y-43632380D02*
X118022857Y-42632380D01*
X118356190Y-43346666D01*
X118689523Y-42632380D01*
X118689523Y-43632380D01*
X119070476Y-42632380D02*
X119689523Y-42632380D01*
X119356190Y-43013333D01*
X119499047Y-43013333D01*
X119594285Y-43060952D01*
X119641904Y-43108571D01*
X119689523Y-43203809D01*
X119689523Y-43441904D01*
X119641904Y-43537142D01*
X119594285Y-43584761D01*
X119499047Y-43632380D01*
X119213333Y-43632380D01*
X119118095Y-43584761D01*
X119070476Y-43537142D01*
X120594285Y-42632380D02*
X120118095Y-42632380D01*
X120070476Y-43108571D01*
X120118095Y-43060952D01*
X120213333Y-43013333D01*
X120451428Y-43013333D01*
X120546666Y-43060952D01*
X120594285Y-43108571D01*
X120641904Y-43203809D01*
X120641904Y-43441904D01*
X120594285Y-43537142D01*
X120546666Y-43584761D01*
X120451428Y-43632380D01*
X120213333Y-43632380D01*
X120118095Y-43584761D01*
X120070476Y-43537142D01*
X121213333Y-43060952D02*
X121118095Y-43013333D01*
X121070476Y-42965714D01*
X121022857Y-42870476D01*
X121022857Y-42822857D01*
X121070476Y-42727619D01*
X121118095Y-42680000D01*
X121213333Y-42632380D01*
X121403809Y-42632380D01*
X121499047Y-42680000D01*
X121546666Y-42727619D01*
X121594285Y-42822857D01*
X121594285Y-42870476D01*
X121546666Y-42965714D01*
X121499047Y-43013333D01*
X121403809Y-43060952D01*
X121213333Y-43060952D01*
X121118095Y-43108571D01*
X121070476Y-43156190D01*
X121022857Y-43251428D01*
X121022857Y-43441904D01*
X121070476Y-43537142D01*
X121118095Y-43584761D01*
X121213333Y-43632380D01*
X121403809Y-43632380D01*
X121499047Y-43584761D01*
X121546666Y-43537142D01*
X121594285Y-43441904D01*
X121594285Y-43251428D01*
X121546666Y-43156190D01*
X121499047Y-43108571D01*
X121403809Y-43060952D01*
X81447142Y-42632380D02*
X82113809Y-42632380D01*
X81685238Y-43632380D01*
X82923333Y-42965714D02*
X82923333Y-43632380D01*
X82685238Y-42584761D02*
X82447142Y-43299047D01*
X83066190Y-43299047D01*
X83447142Y-43632380D02*
X83447142Y-42632380D01*
X83447142Y-43108571D02*
X84018571Y-43108571D01*
X84018571Y-43632380D02*
X84018571Y-42632380D01*
X85066190Y-43537142D02*
X85018571Y-43584761D01*
X84875714Y-43632380D01*
X84780476Y-43632380D01*
X84637619Y-43584761D01*
X84542380Y-43489523D01*
X84494761Y-43394285D01*
X84447142Y-43203809D01*
X84447142Y-43060952D01*
X84494761Y-42870476D01*
X84542380Y-42775238D01*
X84637619Y-42680000D01*
X84780476Y-42632380D01*
X84875714Y-42632380D01*
X85018571Y-42680000D01*
X85066190Y-42727619D01*
X85351904Y-42632380D02*
X85923333Y-42632380D01*
X85637619Y-43632380D02*
X85637619Y-42632380D01*
X86780476Y-43632380D02*
X86209047Y-43632380D01*
X86494761Y-43632380D02*
X86494761Y-42632380D01*
X86399523Y-42775238D01*
X86304285Y-42870476D01*
X86209047Y-42918095D01*
X87113809Y-42632380D02*
X87732857Y-42632380D01*
X87399523Y-43013333D01*
X87542380Y-43013333D01*
X87637619Y-43060952D01*
X87685238Y-43108571D01*
X87732857Y-43203809D01*
X87732857Y-43441904D01*
X87685238Y-43537142D01*
X87637619Y-43584761D01*
X87542380Y-43632380D01*
X87256666Y-43632380D01*
X87161428Y-43584761D01*
X87113809Y-43537142D01*
X88113809Y-42727619D02*
X88161428Y-42680000D01*
X88256666Y-42632380D01*
X88494761Y-42632380D01*
X88590000Y-42680000D01*
X88637619Y-42727619D01*
X88685238Y-42822857D01*
X88685238Y-42918095D01*
X88637619Y-43060952D01*
X88066190Y-43632380D01*
X88685238Y-43632380D01*
X172172380Y-67643333D02*
X172886666Y-67643333D01*
X173029523Y-67690952D01*
X173124761Y-67786190D01*
X173172380Y-67929047D01*
X173172380Y-68024285D01*
X172267619Y-67214761D02*
X172220000Y-67167142D01*
X172172380Y-67071904D01*
X172172380Y-66833809D01*
X172220000Y-66738571D01*
X172267619Y-66690952D01*
X172362857Y-66643333D01*
X172458095Y-66643333D01*
X172600952Y-66690952D01*
X173172380Y-67262380D01*
X173172380Y-66643333D01*
X134652380Y-34234285D02*
X133652380Y-34234285D01*
X133652380Y-33996190D01*
X133700000Y-33853333D01*
X133795238Y-33758095D01*
X133890476Y-33710476D01*
X134080952Y-33662857D01*
X134223809Y-33662857D01*
X134414285Y-33710476D01*
X134509523Y-33758095D01*
X134604761Y-33853333D01*
X134652380Y-33996190D01*
X134652380Y-34234285D01*
X134652380Y-32710476D02*
X134652380Y-33281904D01*
X134652380Y-32996190D02*
X133652380Y-32996190D01*
X133795238Y-33091428D01*
X133890476Y-33186666D01*
X133938095Y-33281904D01*
X133652380Y-31853333D02*
X133652380Y-32043809D01*
X133700000Y-32139047D01*
X133747619Y-32186666D01*
X133890476Y-32281904D01*
X134080952Y-32329523D01*
X134461904Y-32329523D01*
X134557142Y-32281904D01*
X134604761Y-32234285D01*
X134652380Y-32139047D01*
X134652380Y-31948571D01*
X134604761Y-31853333D01*
X134557142Y-31805714D01*
X134461904Y-31758095D01*
X134223809Y-31758095D01*
X134128571Y-31805714D01*
X134080952Y-31853333D01*
X134033333Y-31948571D01*
X134033333Y-32139047D01*
X134080952Y-32234285D01*
X134128571Y-32281904D01*
X134223809Y-32329523D01*
X137612380Y-45092857D02*
X137136190Y-45426190D01*
X137612380Y-45664285D02*
X136612380Y-45664285D01*
X136612380Y-45283333D01*
X136660000Y-45188095D01*
X136707619Y-45140476D01*
X136802857Y-45092857D01*
X136945714Y-45092857D01*
X137040952Y-45140476D01*
X137088571Y-45188095D01*
X137136190Y-45283333D01*
X137136190Y-45664285D01*
X137612380Y-44140476D02*
X137612380Y-44711904D01*
X137612380Y-44426190D02*
X136612380Y-44426190D01*
X136755238Y-44521428D01*
X136850476Y-44616666D01*
X136898095Y-44711904D01*
X136612380Y-43283333D02*
X136612380Y-43473809D01*
X136660000Y-43569047D01*
X136707619Y-43616666D01*
X136850476Y-43711904D01*
X137040952Y-43759523D01*
X137421904Y-43759523D01*
X137517142Y-43711904D01*
X137564761Y-43664285D01*
X137612380Y-43569047D01*
X137612380Y-43378571D01*
X137564761Y-43283333D01*
X137517142Y-43235714D01*
X137421904Y-43188095D01*
X137183809Y-43188095D01*
X137088571Y-43235714D01*
X137040952Y-43283333D01*
X136993333Y-43378571D01*
X136993333Y-43569047D01*
X137040952Y-43664285D01*
X137088571Y-43711904D01*
X137183809Y-43759523D01*
X92742380Y-76938095D02*
X91742380Y-76938095D01*
X91742380Y-76700000D01*
X91790000Y-76557142D01*
X91885238Y-76461904D01*
X91980476Y-76414285D01*
X92170952Y-76366666D01*
X92313809Y-76366666D01*
X92504285Y-76414285D01*
X92599523Y-76461904D01*
X92694761Y-76557142D01*
X92742380Y-76700000D01*
X92742380Y-76938095D01*
X91742380Y-76033333D02*
X91742380Y-75366666D01*
X92742380Y-75795238D01*
X83653333Y-60142380D02*
X83320000Y-59666190D01*
X83081904Y-60142380D02*
X83081904Y-59142380D01*
X83462857Y-59142380D01*
X83558095Y-59190000D01*
X83605714Y-59237619D01*
X83653333Y-59332857D01*
X83653333Y-59475714D01*
X83605714Y-59570952D01*
X83558095Y-59618571D01*
X83462857Y-59666190D01*
X83081904Y-59666190D01*
X84558095Y-59142380D02*
X84081904Y-59142380D01*
X84034285Y-59618571D01*
X84081904Y-59570952D01*
X84177142Y-59523333D01*
X84415238Y-59523333D01*
X84510476Y-59570952D01*
X84558095Y-59618571D01*
X84605714Y-59713809D01*
X84605714Y-59951904D01*
X84558095Y-60047142D01*
X84510476Y-60094761D01*
X84415238Y-60142380D01*
X84177142Y-60142380D01*
X84081904Y-60094761D01*
X84034285Y-60047142D01*
X92376666Y-49192380D02*
X92376666Y-49906666D01*
X92329047Y-50049523D01*
X92233809Y-50144761D01*
X92090952Y-50192380D01*
X91995714Y-50192380D01*
X93281428Y-49525714D02*
X93281428Y-50192380D01*
X93043333Y-49144761D02*
X92805238Y-49859047D01*
X93424285Y-49859047D01*
X83081904Y-52522380D02*
X83081904Y-51522380D01*
X83320000Y-51522380D01*
X83462857Y-51570000D01*
X83558095Y-51665238D01*
X83605714Y-51760476D01*
X83653333Y-51950952D01*
X83653333Y-52093809D01*
X83605714Y-52284285D01*
X83558095Y-52379523D01*
X83462857Y-52474761D01*
X83320000Y-52522380D01*
X83081904Y-52522380D01*
X84605714Y-52522380D02*
X84034285Y-52522380D01*
X84320000Y-52522380D02*
X84320000Y-51522380D01*
X84224761Y-51665238D01*
X84129523Y-51760476D01*
X84034285Y-51808095D01*
X80042380Y-82018095D02*
X79042380Y-82018095D01*
X79042380Y-81780000D01*
X79090000Y-81637142D01*
X79185238Y-81541904D01*
X79280476Y-81494285D01*
X79470952Y-81446666D01*
X79613809Y-81446666D01*
X79804285Y-81494285D01*
X79899523Y-81541904D01*
X79994761Y-81637142D01*
X80042380Y-81780000D01*
X80042380Y-82018095D01*
X79042380Y-80589523D02*
X79042380Y-80780000D01*
X79090000Y-80875238D01*
X79137619Y-80922857D01*
X79280476Y-81018095D01*
X79470952Y-81065714D01*
X79851904Y-81065714D01*
X79947142Y-81018095D01*
X79994761Y-80970476D01*
X80042380Y-80875238D01*
X80042380Y-80684761D01*
X79994761Y-80589523D01*
X79947142Y-80541904D01*
X79851904Y-80494285D01*
X79613809Y-80494285D01*
X79518571Y-80541904D01*
X79470952Y-80589523D01*
X79423333Y-80684761D01*
X79423333Y-80875238D01*
X79470952Y-80970476D01*
X79518571Y-81018095D01*
X79613809Y-81065714D01*
X60793333Y-67762380D02*
X60460000Y-67286190D01*
X60221904Y-67762380D02*
X60221904Y-66762380D01*
X60602857Y-66762380D01*
X60698095Y-66810000D01*
X60745714Y-66857619D01*
X60793333Y-66952857D01*
X60793333Y-67095714D01*
X60745714Y-67190952D01*
X60698095Y-67238571D01*
X60602857Y-67286190D01*
X60221904Y-67286190D01*
X61174285Y-66857619D02*
X61221904Y-66810000D01*
X61317142Y-66762380D01*
X61555238Y-66762380D01*
X61650476Y-66810000D01*
X61698095Y-66857619D01*
X61745714Y-66952857D01*
X61745714Y-67048095D01*
X61698095Y-67190952D01*
X61126666Y-67762380D01*
X61745714Y-67762380D01*
X66873333Y-29627142D02*
X66825714Y-29674761D01*
X66682857Y-29722380D01*
X66587619Y-29722380D01*
X66444761Y-29674761D01*
X66349523Y-29579523D01*
X66301904Y-29484285D01*
X66254285Y-29293809D01*
X66254285Y-29150952D01*
X66301904Y-28960476D01*
X66349523Y-28865238D01*
X66444761Y-28770000D01*
X66587619Y-28722380D01*
X66682857Y-28722380D01*
X66825714Y-28770000D01*
X66873333Y-28817619D01*
X67825714Y-29722380D02*
X67254285Y-29722380D01*
X67540000Y-29722380D02*
X67540000Y-28722380D01*
X67444761Y-28865238D01*
X67349523Y-28960476D01*
X67254285Y-29008095D01*
X59626666Y-58824761D02*
X59769523Y-58872380D01*
X60007619Y-58872380D01*
X60102857Y-58824761D01*
X60150476Y-58777142D01*
X60198095Y-58681904D01*
X60198095Y-58586666D01*
X60150476Y-58491428D01*
X60102857Y-58443809D01*
X60007619Y-58396190D01*
X59817142Y-58348571D01*
X59721904Y-58300952D01*
X59674285Y-58253333D01*
X59626666Y-58158095D01*
X59626666Y-58062857D01*
X59674285Y-57967619D01*
X59721904Y-57920000D01*
X59817142Y-57872380D01*
X60055238Y-57872380D01*
X60198095Y-57920000D01*
X60531428Y-57872380D02*
X60769523Y-58872380D01*
X60960000Y-58158095D01*
X61150476Y-58872380D01*
X61388571Y-57872380D01*
X61721904Y-57967619D02*
X61769523Y-57920000D01*
X61864761Y-57872380D01*
X62102857Y-57872380D01*
X62198095Y-57920000D01*
X62245714Y-57967619D01*
X62293333Y-58062857D01*
X62293333Y-58158095D01*
X62245714Y-58300952D01*
X61674285Y-58872380D01*
X62293333Y-58872380D01*
X147328095Y-31344380D02*
X147899523Y-31344380D01*
X147613809Y-32344380D02*
X147613809Y-31344380D01*
X148232857Y-32344380D02*
X148232857Y-31344380D01*
X148613809Y-31344380D01*
X148709047Y-31392000D01*
X148756666Y-31439619D01*
X148804285Y-31534857D01*
X148804285Y-31677714D01*
X148756666Y-31772952D01*
X148709047Y-31820571D01*
X148613809Y-31868190D01*
X148232857Y-31868190D01*
X149375714Y-31772952D02*
X149280476Y-31725333D01*
X149232857Y-31677714D01*
X149185238Y-31582476D01*
X149185238Y-31534857D01*
X149232857Y-31439619D01*
X149280476Y-31392000D01*
X149375714Y-31344380D01*
X149566190Y-31344380D01*
X149661428Y-31392000D01*
X149709047Y-31439619D01*
X149756666Y-31534857D01*
X149756666Y-31582476D01*
X149709047Y-31677714D01*
X149661428Y-31725333D01*
X149566190Y-31772952D01*
X149375714Y-31772952D01*
X149280476Y-31820571D01*
X149232857Y-31868190D01*
X149185238Y-31963428D01*
X149185238Y-32153904D01*
X149232857Y-32249142D01*
X149280476Y-32296761D01*
X149375714Y-32344380D01*
X149566190Y-32344380D01*
X149661428Y-32296761D01*
X149709047Y-32249142D01*
X149756666Y-32153904D01*
X149756666Y-31963428D01*
X149709047Y-31868190D01*
X149661428Y-31820571D01*
X149566190Y-31772952D01*
X92718095Y-32614380D02*
X93289523Y-32614380D01*
X93003809Y-33614380D02*
X93003809Y-32614380D01*
X93622857Y-33614380D02*
X93622857Y-32614380D01*
X94003809Y-32614380D01*
X94099047Y-32662000D01*
X94146666Y-32709619D01*
X94194285Y-32804857D01*
X94194285Y-32947714D01*
X94146666Y-33042952D01*
X94099047Y-33090571D01*
X94003809Y-33138190D01*
X93622857Y-33138190D01*
X94527619Y-32614380D02*
X95194285Y-32614380D01*
X94765714Y-33614380D01*
X99068095Y-32614380D02*
X99639523Y-32614380D01*
X99353809Y-33614380D02*
X99353809Y-32614380D01*
X99972857Y-33614380D02*
X99972857Y-32614380D01*
X100353809Y-32614380D01*
X100449047Y-32662000D01*
X100496666Y-32709619D01*
X100544285Y-32804857D01*
X100544285Y-32947714D01*
X100496666Y-33042952D01*
X100449047Y-33090571D01*
X100353809Y-33138190D01*
X99972857Y-33138190D01*
X101401428Y-32614380D02*
X101210952Y-32614380D01*
X101115714Y-32662000D01*
X101068095Y-32709619D01*
X100972857Y-32852476D01*
X100925238Y-33042952D01*
X100925238Y-33423904D01*
X100972857Y-33519142D01*
X101020476Y-33566761D01*
X101115714Y-33614380D01*
X101306190Y-33614380D01*
X101401428Y-33566761D01*
X101449047Y-33519142D01*
X101496666Y-33423904D01*
X101496666Y-33185809D01*
X101449047Y-33090571D01*
X101401428Y-33042952D01*
X101306190Y-32995333D01*
X101115714Y-32995333D01*
X101020476Y-33042952D01*
X100972857Y-33090571D01*
X100925238Y-33185809D01*
X125738095Y-32614380D02*
X126309523Y-32614380D01*
X126023809Y-33614380D02*
X126023809Y-32614380D01*
X126642857Y-33614380D02*
X126642857Y-32614380D01*
X127023809Y-32614380D01*
X127119047Y-32662000D01*
X127166666Y-32709619D01*
X127214285Y-32804857D01*
X127214285Y-32947714D01*
X127166666Y-33042952D01*
X127119047Y-33090571D01*
X127023809Y-33138190D01*
X126642857Y-33138190D01*
X128119047Y-32614380D02*
X127642857Y-32614380D01*
X127595238Y-33090571D01*
X127642857Y-33042952D01*
X127738095Y-32995333D01*
X127976190Y-32995333D01*
X128071428Y-33042952D01*
X128119047Y-33090571D01*
X128166666Y-33185809D01*
X128166666Y-33423904D01*
X128119047Y-33519142D01*
X128071428Y-33566761D01*
X127976190Y-33614380D01*
X127738095Y-33614380D01*
X127642857Y-33566761D01*
X127595238Y-33519142D01*
X120658095Y-31344380D02*
X121229523Y-31344380D01*
X120943809Y-32344380D02*
X120943809Y-31344380D01*
X121562857Y-32344380D02*
X121562857Y-31344380D01*
X121943809Y-31344380D01*
X122039047Y-31392000D01*
X122086666Y-31439619D01*
X122134285Y-31534857D01*
X122134285Y-31677714D01*
X122086666Y-31772952D01*
X122039047Y-31820571D01*
X121943809Y-31868190D01*
X121562857Y-31868190D01*
X122991428Y-31677714D02*
X122991428Y-32344380D01*
X122753333Y-31296761D02*
X122515238Y-32011047D01*
X123134285Y-32011047D01*
X83828095Y-31344380D02*
X84399523Y-31344380D01*
X84113809Y-32344380D02*
X84113809Y-31344380D01*
X84732857Y-32344380D02*
X84732857Y-31344380D01*
X85113809Y-31344380D01*
X85209047Y-31392000D01*
X85256666Y-31439619D01*
X85304285Y-31534857D01*
X85304285Y-31677714D01*
X85256666Y-31772952D01*
X85209047Y-31820571D01*
X85113809Y-31868190D01*
X84732857Y-31868190D01*
X85637619Y-31344380D02*
X86256666Y-31344380D01*
X85923333Y-31725333D01*
X86066190Y-31725333D01*
X86161428Y-31772952D01*
X86209047Y-31820571D01*
X86256666Y-31915809D01*
X86256666Y-32153904D01*
X86209047Y-32249142D01*
X86161428Y-32296761D01*
X86066190Y-32344380D01*
X85780476Y-32344380D01*
X85685238Y-32296761D01*
X85637619Y-32249142D01*
X158758095Y-33742380D02*
X159329523Y-33742380D01*
X159043809Y-34742380D02*
X159043809Y-33742380D01*
X159662857Y-34742380D02*
X159662857Y-33742380D01*
X160043809Y-33742380D01*
X160139047Y-33790000D01*
X160186666Y-33837619D01*
X160234285Y-33932857D01*
X160234285Y-34075714D01*
X160186666Y-34170952D01*
X160139047Y-34218571D01*
X160043809Y-34266190D01*
X159662857Y-34266190D01*
X160615238Y-33837619D02*
X160662857Y-33790000D01*
X160758095Y-33742380D01*
X160996190Y-33742380D01*
X161091428Y-33790000D01*
X161139047Y-33837619D01*
X161186666Y-33932857D01*
X161186666Y-34028095D01*
X161139047Y-34170952D01*
X160567619Y-34742380D01*
X161186666Y-34742380D01*
X167648095Y-28804380D02*
X168219523Y-28804380D01*
X167933809Y-29804380D02*
X167933809Y-28804380D01*
X168552857Y-29804380D02*
X168552857Y-28804380D01*
X168933809Y-28804380D01*
X169029047Y-28852000D01*
X169076666Y-28899619D01*
X169124285Y-28994857D01*
X169124285Y-29137714D01*
X169076666Y-29232952D01*
X169029047Y-29280571D01*
X168933809Y-29328190D01*
X168552857Y-29328190D01*
X170076666Y-29804380D02*
X169505238Y-29804380D01*
X169790952Y-29804380D02*
X169790952Y-28804380D01*
X169695714Y-28947238D01*
X169600476Y-29042476D01*
X169505238Y-29090095D01*
X57086666Y-62634761D02*
X57229523Y-62682380D01*
X57467619Y-62682380D01*
X57562857Y-62634761D01*
X57610476Y-62587142D01*
X57658095Y-62491904D01*
X57658095Y-62396666D01*
X57610476Y-62301428D01*
X57562857Y-62253809D01*
X57467619Y-62206190D01*
X57277142Y-62158571D01*
X57181904Y-62110952D01*
X57134285Y-62063333D01*
X57086666Y-61968095D01*
X57086666Y-61872857D01*
X57134285Y-61777619D01*
X57181904Y-61730000D01*
X57277142Y-61682380D01*
X57515238Y-61682380D01*
X57658095Y-61730000D01*
X57991428Y-61682380D02*
X58229523Y-62682380D01*
X58420000Y-61968095D01*
X58610476Y-62682380D01*
X58848571Y-61682380D01*
X59753333Y-62682380D02*
X59181904Y-62682380D01*
X59467619Y-62682380D02*
X59467619Y-61682380D01*
X59372380Y-61825238D01*
X59277142Y-61920476D01*
X59181904Y-61968095D01*
X129992380Y-45092857D02*
X129516190Y-45426190D01*
X129992380Y-45664285D02*
X128992380Y-45664285D01*
X128992380Y-45283333D01*
X129040000Y-45188095D01*
X129087619Y-45140476D01*
X129182857Y-45092857D01*
X129325714Y-45092857D01*
X129420952Y-45140476D01*
X129468571Y-45188095D01*
X129516190Y-45283333D01*
X129516190Y-45664285D01*
X129992380Y-44140476D02*
X129992380Y-44711904D01*
X129992380Y-44426190D02*
X128992380Y-44426190D01*
X129135238Y-44521428D01*
X129230476Y-44616666D01*
X129278095Y-44711904D01*
X129325714Y-43283333D02*
X129992380Y-43283333D01*
X128944761Y-43521428D02*
X129659047Y-43759523D01*
X129659047Y-43140476D01*
X170632380Y-45092857D02*
X170156190Y-45426190D01*
X170632380Y-45664285D02*
X169632380Y-45664285D01*
X169632380Y-45283333D01*
X169680000Y-45188095D01*
X169727619Y-45140476D01*
X169822857Y-45092857D01*
X169965714Y-45092857D01*
X170060952Y-45140476D01*
X170108571Y-45188095D01*
X170156190Y-45283333D01*
X170156190Y-45664285D01*
X170632380Y-44140476D02*
X170632380Y-44711904D01*
X170632380Y-44426190D02*
X169632380Y-44426190D01*
X169775238Y-44521428D01*
X169870476Y-44616666D01*
X169918095Y-44711904D01*
X170060952Y-43569047D02*
X170013333Y-43664285D01*
X169965714Y-43711904D01*
X169870476Y-43759523D01*
X169822857Y-43759523D01*
X169727619Y-43711904D01*
X169680000Y-43664285D01*
X169632380Y-43569047D01*
X169632380Y-43378571D01*
X169680000Y-43283333D01*
X169727619Y-43235714D01*
X169822857Y-43188095D01*
X169870476Y-43188095D01*
X169965714Y-43235714D01*
X170013333Y-43283333D01*
X170060952Y-43378571D01*
X170060952Y-43569047D01*
X170108571Y-43664285D01*
X170156190Y-43711904D01*
X170251428Y-43759523D01*
X170441904Y-43759523D01*
X170537142Y-43711904D01*
X170584761Y-43664285D01*
X170632380Y-43569047D01*
X170632380Y-43378571D01*
X170584761Y-43283333D01*
X170537142Y-43235714D01*
X170441904Y-43188095D01*
X170251428Y-43188095D01*
X170156190Y-43235714D01*
X170108571Y-43283333D01*
X170060952Y-43378571D01*
X112212380Y-39536666D02*
X111736190Y-39870000D01*
X112212380Y-40108095D02*
X111212380Y-40108095D01*
X111212380Y-39727142D01*
X111260000Y-39631904D01*
X111307619Y-39584285D01*
X111402857Y-39536666D01*
X111545714Y-39536666D01*
X111640952Y-39584285D01*
X111688571Y-39631904D01*
X111736190Y-39727142D01*
X111736190Y-40108095D01*
X112212380Y-39060476D02*
X112212380Y-38870000D01*
X112164761Y-38774761D01*
X112117142Y-38727142D01*
X111974285Y-38631904D01*
X111783809Y-38584285D01*
X111402857Y-38584285D01*
X111307619Y-38631904D01*
X111260000Y-38679523D01*
X111212380Y-38774761D01*
X111212380Y-38965238D01*
X111260000Y-39060476D01*
X111307619Y-39108095D01*
X111402857Y-39155714D01*
X111640952Y-39155714D01*
X111736190Y-39108095D01*
X111783809Y-39060476D01*
X111831428Y-38965238D01*
X111831428Y-38774761D01*
X111783809Y-38679523D01*
X111736190Y-38631904D01*
X111640952Y-38584285D01*
X60793333Y-71572380D02*
X60460000Y-71096190D01*
X60221904Y-71572380D02*
X60221904Y-70572380D01*
X60602857Y-70572380D01*
X60698095Y-70620000D01*
X60745714Y-70667619D01*
X60793333Y-70762857D01*
X60793333Y-70905714D01*
X60745714Y-71000952D01*
X60698095Y-71048571D01*
X60602857Y-71096190D01*
X60221904Y-71096190D01*
X61126666Y-70572380D02*
X61745714Y-70572380D01*
X61412380Y-70953333D01*
X61555238Y-70953333D01*
X61650476Y-71000952D01*
X61698095Y-71048571D01*
X61745714Y-71143809D01*
X61745714Y-71381904D01*
X61698095Y-71477142D01*
X61650476Y-71524761D01*
X61555238Y-71572380D01*
X61269523Y-71572380D01*
X61174285Y-71524761D01*
X61126666Y-71477142D01*
X109847142Y-67762380D02*
X109513809Y-67286190D01*
X109275714Y-67762380D02*
X109275714Y-66762380D01*
X109656666Y-66762380D01*
X109751904Y-66810000D01*
X109799523Y-66857619D01*
X109847142Y-66952857D01*
X109847142Y-67095714D01*
X109799523Y-67190952D01*
X109751904Y-67238571D01*
X109656666Y-67286190D01*
X109275714Y-67286190D01*
X110799523Y-67762380D02*
X110228095Y-67762380D01*
X110513809Y-67762380D02*
X110513809Y-66762380D01*
X110418571Y-66905238D01*
X110323333Y-67000476D01*
X110228095Y-67048095D01*
X111132857Y-66762380D02*
X111751904Y-66762380D01*
X111418571Y-67143333D01*
X111561428Y-67143333D01*
X111656666Y-67190952D01*
X111704285Y-67238571D01*
X111751904Y-67333809D01*
X111751904Y-67571904D01*
X111704285Y-67667142D01*
X111656666Y-67714761D01*
X111561428Y-67762380D01*
X111275714Y-67762380D01*
X111180476Y-67714761D01*
X111132857Y-67667142D01*
X166822380Y-45092857D02*
X166346190Y-45426190D01*
X166822380Y-45664285D02*
X165822380Y-45664285D01*
X165822380Y-45283333D01*
X165870000Y-45188095D01*
X165917619Y-45140476D01*
X166012857Y-45092857D01*
X166155714Y-45092857D01*
X166250952Y-45140476D01*
X166298571Y-45188095D01*
X166346190Y-45283333D01*
X166346190Y-45664285D01*
X166822380Y-44140476D02*
X166822380Y-44711904D01*
X166822380Y-44426190D02*
X165822380Y-44426190D01*
X165965238Y-44521428D01*
X166060476Y-44616666D01*
X166108095Y-44711904D01*
X165822380Y-43807142D02*
X165822380Y-43140476D01*
X166822380Y-43569047D01*
X133802380Y-45092857D02*
X133326190Y-45426190D01*
X133802380Y-45664285D02*
X132802380Y-45664285D01*
X132802380Y-45283333D01*
X132850000Y-45188095D01*
X132897619Y-45140476D01*
X132992857Y-45092857D01*
X133135714Y-45092857D01*
X133230952Y-45140476D01*
X133278571Y-45188095D01*
X133326190Y-45283333D01*
X133326190Y-45664285D01*
X133802380Y-44140476D02*
X133802380Y-44711904D01*
X133802380Y-44426190D02*
X132802380Y-44426190D01*
X132945238Y-44521428D01*
X133040476Y-44616666D01*
X133088095Y-44711904D01*
X132802380Y-43235714D02*
X132802380Y-43711904D01*
X133278571Y-43759523D01*
X133230952Y-43711904D01*
X133183333Y-43616666D01*
X133183333Y-43378571D01*
X133230952Y-43283333D01*
X133278571Y-43235714D01*
X133373809Y-43188095D01*
X133611904Y-43188095D01*
X133707142Y-43235714D01*
X133754761Y-43283333D01*
X133802380Y-43378571D01*
X133802380Y-43616666D01*
X133754761Y-43711904D01*
X133707142Y-43759523D01*
X108402380Y-47156666D02*
X107926190Y-47490000D01*
X108402380Y-47728095D02*
X107402380Y-47728095D01*
X107402380Y-47347142D01*
X107450000Y-47251904D01*
X107497619Y-47204285D01*
X107592857Y-47156666D01*
X107735714Y-47156666D01*
X107830952Y-47204285D01*
X107878571Y-47251904D01*
X107926190Y-47347142D01*
X107926190Y-47728095D01*
X107830952Y-46585238D02*
X107783333Y-46680476D01*
X107735714Y-46728095D01*
X107640476Y-46775714D01*
X107592857Y-46775714D01*
X107497619Y-46728095D01*
X107450000Y-46680476D01*
X107402380Y-46585238D01*
X107402380Y-46394761D01*
X107450000Y-46299523D01*
X107497619Y-46251904D01*
X107592857Y-46204285D01*
X107640476Y-46204285D01*
X107735714Y-46251904D01*
X107783333Y-46299523D01*
X107830952Y-46394761D01*
X107830952Y-46585238D01*
X107878571Y-46680476D01*
X107926190Y-46728095D01*
X108021428Y-46775714D01*
X108211904Y-46775714D01*
X108307142Y-46728095D01*
X108354761Y-46680476D01*
X108402380Y-46585238D01*
X108402380Y-46394761D01*
X108354761Y-46299523D01*
X108307142Y-46251904D01*
X108211904Y-46204285D01*
X108021428Y-46204285D01*
X107926190Y-46251904D01*
X107878571Y-46299523D01*
X107830952Y-46394761D01*
X109847142Y-60142380D02*
X109513809Y-59666190D01*
X109275714Y-60142380D02*
X109275714Y-59142380D01*
X109656666Y-59142380D01*
X109751904Y-59190000D01*
X109799523Y-59237619D01*
X109847142Y-59332857D01*
X109847142Y-59475714D01*
X109799523Y-59570952D01*
X109751904Y-59618571D01*
X109656666Y-59666190D01*
X109275714Y-59666190D01*
X110799523Y-60142380D02*
X110228095Y-60142380D01*
X110513809Y-60142380D02*
X110513809Y-59142380D01*
X110418571Y-59285238D01*
X110323333Y-59380476D01*
X110228095Y-59428095D01*
X111751904Y-60142380D02*
X111180476Y-60142380D01*
X111466190Y-60142380D02*
X111466190Y-59142380D01*
X111370952Y-59285238D01*
X111275714Y-59380476D01*
X111180476Y-59428095D01*
X109847142Y-56332380D02*
X109513809Y-55856190D01*
X109275714Y-56332380D02*
X109275714Y-55332380D01*
X109656666Y-55332380D01*
X109751904Y-55380000D01*
X109799523Y-55427619D01*
X109847142Y-55522857D01*
X109847142Y-55665714D01*
X109799523Y-55760952D01*
X109751904Y-55808571D01*
X109656666Y-55856190D01*
X109275714Y-55856190D01*
X110799523Y-56332380D02*
X110228095Y-56332380D01*
X110513809Y-56332380D02*
X110513809Y-55332380D01*
X110418571Y-55475238D01*
X110323333Y-55570476D01*
X110228095Y-55618095D01*
X111418571Y-55332380D02*
X111513809Y-55332380D01*
X111609047Y-55380000D01*
X111656666Y-55427619D01*
X111704285Y-55522857D01*
X111751904Y-55713333D01*
X111751904Y-55951428D01*
X111704285Y-56141904D01*
X111656666Y-56237142D01*
X111609047Y-56284761D01*
X111513809Y-56332380D01*
X111418571Y-56332380D01*
X111323333Y-56284761D01*
X111275714Y-56237142D01*
X111228095Y-56141904D01*
X111180476Y-55951428D01*
X111180476Y-55713333D01*
X111228095Y-55522857D01*
X111275714Y-55427619D01*
X111323333Y-55380000D01*
X111418571Y-55332380D01*
X109847142Y-63952380D02*
X109513809Y-63476190D01*
X109275714Y-63952380D02*
X109275714Y-62952380D01*
X109656666Y-62952380D01*
X109751904Y-63000000D01*
X109799523Y-63047619D01*
X109847142Y-63142857D01*
X109847142Y-63285714D01*
X109799523Y-63380952D01*
X109751904Y-63428571D01*
X109656666Y-63476190D01*
X109275714Y-63476190D01*
X110799523Y-63952380D02*
X110228095Y-63952380D01*
X110513809Y-63952380D02*
X110513809Y-62952380D01*
X110418571Y-63095238D01*
X110323333Y-63190476D01*
X110228095Y-63238095D01*
X111180476Y-63047619D02*
X111228095Y-63000000D01*
X111323333Y-62952380D01*
X111561428Y-62952380D01*
X111656666Y-63000000D01*
X111704285Y-63047619D01*
X111751904Y-63142857D01*
X111751904Y-63238095D01*
X111704285Y-63380952D01*
X111132857Y-63952380D01*
X111751904Y-63952380D01*
X61412380Y-43346666D02*
X60936190Y-43680000D01*
X61412380Y-43918095D02*
X60412380Y-43918095D01*
X60412380Y-43537142D01*
X60460000Y-43441904D01*
X60507619Y-43394285D01*
X60602857Y-43346666D01*
X60745714Y-43346666D01*
X60840952Y-43394285D01*
X60888571Y-43441904D01*
X60936190Y-43537142D01*
X60936190Y-43918095D01*
X61412380Y-42394285D02*
X61412380Y-42965714D01*
X61412380Y-42680000D02*
X60412380Y-42680000D01*
X60555238Y-42775238D01*
X60650476Y-42870476D01*
X60698095Y-42965714D01*
X83653333Y-63952380D02*
X83320000Y-63476190D01*
X83081904Y-63952380D02*
X83081904Y-62952380D01*
X83462857Y-62952380D01*
X83558095Y-63000000D01*
X83605714Y-63047619D01*
X83653333Y-63142857D01*
X83653333Y-63285714D01*
X83605714Y-63380952D01*
X83558095Y-63428571D01*
X83462857Y-63476190D01*
X83081904Y-63476190D01*
X84510476Y-62952380D02*
X84320000Y-62952380D01*
X84224761Y-63000000D01*
X84177142Y-63047619D01*
X84081904Y-63190476D01*
X84034285Y-63380952D01*
X84034285Y-63761904D01*
X84081904Y-63857142D01*
X84129523Y-63904761D01*
X84224761Y-63952380D01*
X84415238Y-63952380D01*
X84510476Y-63904761D01*
X84558095Y-63857142D01*
X84605714Y-63761904D01*
X84605714Y-63523809D01*
X84558095Y-63428571D01*
X84510476Y-63380952D01*
X84415238Y-63333333D01*
X84224761Y-63333333D01*
X84129523Y-63380952D01*
X84081904Y-63428571D01*
X84034285Y-63523809D01*
X83653333Y-67762380D02*
X83320000Y-67286190D01*
X83081904Y-67762380D02*
X83081904Y-66762380D01*
X83462857Y-66762380D01*
X83558095Y-66810000D01*
X83605714Y-66857619D01*
X83653333Y-66952857D01*
X83653333Y-67095714D01*
X83605714Y-67190952D01*
X83558095Y-67238571D01*
X83462857Y-67286190D01*
X83081904Y-67286190D01*
X83986666Y-66762380D02*
X84653333Y-66762380D01*
X84224761Y-67762380D01*
X83653333Y-56332380D02*
X83320000Y-55856190D01*
X83081904Y-56332380D02*
X83081904Y-55332380D01*
X83462857Y-55332380D01*
X83558095Y-55380000D01*
X83605714Y-55427619D01*
X83653333Y-55522857D01*
X83653333Y-55665714D01*
X83605714Y-55760952D01*
X83558095Y-55808571D01*
X83462857Y-55856190D01*
X83081904Y-55856190D01*
X84510476Y-55665714D02*
X84510476Y-56332380D01*
X84272380Y-55284761D02*
X84034285Y-55999047D01*
X84653333Y-55999047D01*
X121824761Y-51597619D02*
X121729523Y-51550000D01*
X121634285Y-51454761D01*
X121491428Y-51311904D01*
X121396190Y-51264285D01*
X121300952Y-51264285D01*
X121348571Y-51502380D02*
X121253333Y-51454761D01*
X121158095Y-51359523D01*
X121110476Y-51169047D01*
X121110476Y-50835714D01*
X121158095Y-50645238D01*
X121253333Y-50550000D01*
X121348571Y-50502380D01*
X121539047Y-50502380D01*
X121634285Y-50550000D01*
X121729523Y-50645238D01*
X121777142Y-50835714D01*
X121777142Y-51169047D01*
X121729523Y-51359523D01*
X121634285Y-51454761D01*
X121539047Y-51502380D01*
X121348571Y-51502380D01*
X122158095Y-50597619D02*
X122205714Y-50550000D01*
X122300952Y-50502380D01*
X122539047Y-50502380D01*
X122634285Y-50550000D01*
X122681904Y-50597619D01*
X122729523Y-50692857D01*
X122729523Y-50788095D01*
X122681904Y-50930952D01*
X122110476Y-51502380D01*
X122729523Y-51502380D01*
X97694761Y-51597619D02*
X97599523Y-51550000D01*
X97504285Y-51454761D01*
X97361428Y-51311904D01*
X97266190Y-51264285D01*
X97170952Y-51264285D01*
X97218571Y-51502380D02*
X97123333Y-51454761D01*
X97028095Y-51359523D01*
X96980476Y-51169047D01*
X96980476Y-50835714D01*
X97028095Y-50645238D01*
X97123333Y-50550000D01*
X97218571Y-50502380D01*
X97409047Y-50502380D01*
X97504285Y-50550000D01*
X97599523Y-50645238D01*
X97647142Y-50835714D01*
X97647142Y-51169047D01*
X97599523Y-51359523D01*
X97504285Y-51454761D01*
X97409047Y-51502380D01*
X97218571Y-51502380D01*
X98599523Y-51502380D02*
X98028095Y-51502380D01*
X98313809Y-51502380D02*
X98313809Y-50502380D01*
X98218571Y-50645238D01*
X98123333Y-50740476D01*
X98028095Y-50788095D01*
X164552380Y-57483333D02*
X165266666Y-57483333D01*
X165409523Y-57530952D01*
X165504761Y-57626190D01*
X165552380Y-57769047D01*
X165552380Y-57864285D01*
X164552380Y-57102380D02*
X164552380Y-56483333D01*
X164933333Y-56816666D01*
X164933333Y-56673809D01*
X164980952Y-56578571D01*
X165028571Y-56530952D01*
X165123809Y-56483333D01*
X165361904Y-56483333D01*
X165457142Y-56530952D01*
X165504761Y-56578571D01*
X165552380Y-56673809D01*
X165552380Y-56959523D01*
X165504761Y-57054761D01*
X165457142Y-57102380D01*
X168472380Y-56863333D02*
X169186666Y-56863333D01*
X169329523Y-56910952D01*
X169424761Y-57006190D01*
X169472380Y-57149047D01*
X169472380Y-57244285D01*
X169472380Y-55863333D02*
X169472380Y-56434761D01*
X169472380Y-56149047D02*
X168472380Y-56149047D01*
X168615238Y-56244285D01*
X168710476Y-56339523D01*
X168758095Y-56434761D01*
X127452380Y-55824285D02*
X126452380Y-55824285D01*
X126452380Y-55586190D01*
X126500000Y-55443333D01*
X126595238Y-55348095D01*
X126690476Y-55300476D01*
X126880952Y-55252857D01*
X127023809Y-55252857D01*
X127214285Y-55300476D01*
X127309523Y-55348095D01*
X127404761Y-55443333D01*
X127452380Y-55586190D01*
X127452380Y-55824285D01*
X127452380Y-54300476D02*
X127452380Y-54871904D01*
X127452380Y-54586190D02*
X126452380Y-54586190D01*
X126595238Y-54681428D01*
X126690476Y-54776666D01*
X126738095Y-54871904D01*
X126452380Y-53395714D02*
X126452380Y-53871904D01*
X126928571Y-53919523D01*
X126880952Y-53871904D01*
X126833333Y-53776666D01*
X126833333Y-53538571D01*
X126880952Y-53443333D01*
X126928571Y-53395714D01*
X127023809Y-53348095D01*
X127261904Y-53348095D01*
X127357142Y-53395714D01*
X127404761Y-53443333D01*
X127452380Y-53538571D01*
X127452380Y-53776666D01*
X127404761Y-53871904D01*
X127357142Y-53919523D01*
X152432380Y-35504285D02*
X151432380Y-35504285D01*
X151432380Y-35266190D01*
X151480000Y-35123333D01*
X151575238Y-35028095D01*
X151670476Y-34980476D01*
X151860952Y-34932857D01*
X152003809Y-34932857D01*
X152194285Y-34980476D01*
X152289523Y-35028095D01*
X152384761Y-35123333D01*
X152432380Y-35266190D01*
X152432380Y-35504285D01*
X152432380Y-33980476D02*
X152432380Y-34551904D01*
X152432380Y-34266190D02*
X151432380Y-34266190D01*
X151575238Y-34361428D01*
X151670476Y-34456666D01*
X151718095Y-34551904D01*
X151432380Y-33647142D02*
X151432380Y-32980476D01*
X152432380Y-33409047D01*
X104172380Y-35504285D02*
X103172380Y-35504285D01*
X103172380Y-35266190D01*
X103220000Y-35123333D01*
X103315238Y-35028095D01*
X103410476Y-34980476D01*
X103600952Y-34932857D01*
X103743809Y-34932857D01*
X103934285Y-34980476D01*
X104029523Y-35028095D01*
X104124761Y-35123333D01*
X104172380Y-35266190D01*
X104172380Y-35504285D01*
X104172380Y-33980476D02*
X104172380Y-34551904D01*
X104172380Y-34266190D02*
X103172380Y-34266190D01*
X103315238Y-34361428D01*
X103410476Y-34456666D01*
X103458095Y-34551904D01*
X103505714Y-33123333D02*
X104172380Y-33123333D01*
X103124761Y-33361428D02*
X103839047Y-33599523D01*
X103839047Y-32980476D01*
X168942380Y-78684285D02*
X167942380Y-78684285D01*
X167942380Y-78446190D01*
X167990000Y-78303333D01*
X168085238Y-78208095D01*
X168180476Y-78160476D01*
X168370952Y-78112857D01*
X168513809Y-78112857D01*
X168704285Y-78160476D01*
X168799523Y-78208095D01*
X168894761Y-78303333D01*
X168942380Y-78446190D01*
X168942380Y-78684285D01*
X168942380Y-77160476D02*
X168942380Y-77731904D01*
X168942380Y-77446190D02*
X167942380Y-77446190D01*
X168085238Y-77541428D01*
X168180476Y-77636666D01*
X168228095Y-77731904D01*
X167942380Y-76827142D02*
X167942380Y-76208095D01*
X168323333Y-76541428D01*
X168323333Y-76398571D01*
X168370952Y-76303333D01*
X168418571Y-76255714D01*
X168513809Y-76208095D01*
X168751904Y-76208095D01*
X168847142Y-76255714D01*
X168894761Y-76303333D01*
X168942380Y-76398571D01*
X168942380Y-76684285D01*
X168894761Y-76779523D01*
X168847142Y-76827142D01*
X156242380Y-76144285D02*
X155242380Y-76144285D01*
X155242380Y-75906190D01*
X155290000Y-75763333D01*
X155385238Y-75668095D01*
X155480476Y-75620476D01*
X155670952Y-75572857D01*
X155813809Y-75572857D01*
X156004285Y-75620476D01*
X156099523Y-75668095D01*
X156194761Y-75763333D01*
X156242380Y-75906190D01*
X156242380Y-76144285D01*
X156242380Y-74620476D02*
X156242380Y-75191904D01*
X156242380Y-74906190D02*
X155242380Y-74906190D01*
X155385238Y-75001428D01*
X155480476Y-75096666D01*
X155528095Y-75191904D01*
X155337619Y-74239523D02*
X155290000Y-74191904D01*
X155242380Y-74096666D01*
X155242380Y-73858571D01*
X155290000Y-73763333D01*
X155337619Y-73715714D01*
X155432857Y-73668095D01*
X155528095Y-73668095D01*
X155670952Y-73715714D01*
X156242380Y-74287142D01*
X156242380Y-73668095D01*
X143542380Y-71064285D02*
X142542380Y-71064285D01*
X142542380Y-70826190D01*
X142590000Y-70683333D01*
X142685238Y-70588095D01*
X142780476Y-70540476D01*
X142970952Y-70492857D01*
X143113809Y-70492857D01*
X143304285Y-70540476D01*
X143399523Y-70588095D01*
X143494761Y-70683333D01*
X143542380Y-70826190D01*
X143542380Y-71064285D01*
X143542380Y-69540476D02*
X143542380Y-70111904D01*
X143542380Y-69826190D02*
X142542380Y-69826190D01*
X142685238Y-69921428D01*
X142780476Y-70016666D01*
X142828095Y-70111904D01*
X143542380Y-68588095D02*
X143542380Y-69159523D01*
X143542380Y-68873809D02*
X142542380Y-68873809D01*
X142685238Y-68969047D01*
X142780476Y-69064285D01*
X142828095Y-69159523D01*
X130842380Y-78684285D02*
X129842380Y-78684285D01*
X129842380Y-78446190D01*
X129890000Y-78303333D01*
X129985238Y-78208095D01*
X130080476Y-78160476D01*
X130270952Y-78112857D01*
X130413809Y-78112857D01*
X130604285Y-78160476D01*
X130699523Y-78208095D01*
X130794761Y-78303333D01*
X130842380Y-78446190D01*
X130842380Y-78684285D01*
X130842380Y-77160476D02*
X130842380Y-77731904D01*
X130842380Y-77446190D02*
X129842380Y-77446190D01*
X129985238Y-77541428D01*
X130080476Y-77636666D01*
X130128095Y-77731904D01*
X129842380Y-76541428D02*
X129842380Y-76446190D01*
X129890000Y-76350952D01*
X129937619Y-76303333D01*
X130032857Y-76255714D01*
X130223333Y-76208095D01*
X130461428Y-76208095D01*
X130651904Y-76255714D01*
X130747142Y-76303333D01*
X130794761Y-76350952D01*
X130842380Y-76446190D01*
X130842380Y-76541428D01*
X130794761Y-76636666D01*
X130747142Y-76684285D01*
X130651904Y-76731904D01*
X130461428Y-76779523D01*
X130223333Y-76779523D01*
X130032857Y-76731904D01*
X129937619Y-76684285D01*
X129890000Y-76636666D01*
X129842380Y-76541428D01*
X118142380Y-74398095D02*
X117142380Y-74398095D01*
X117142380Y-74160000D01*
X117190000Y-74017142D01*
X117285238Y-73921904D01*
X117380476Y-73874285D01*
X117570952Y-73826666D01*
X117713809Y-73826666D01*
X117904285Y-73874285D01*
X117999523Y-73921904D01*
X118094761Y-74017142D01*
X118142380Y-74160000D01*
X118142380Y-74398095D01*
X118142380Y-73350476D02*
X118142380Y-73160000D01*
X118094761Y-73064761D01*
X118047142Y-73017142D01*
X117904285Y-72921904D01*
X117713809Y-72874285D01*
X117332857Y-72874285D01*
X117237619Y-72921904D01*
X117190000Y-72969523D01*
X117142380Y-73064761D01*
X117142380Y-73255238D01*
X117190000Y-73350476D01*
X117237619Y-73398095D01*
X117332857Y-73445714D01*
X117570952Y-73445714D01*
X117666190Y-73398095D01*
X117713809Y-73350476D01*
X117761428Y-73255238D01*
X117761428Y-73064761D01*
X117713809Y-72969523D01*
X117666190Y-72921904D01*
X117570952Y-72874285D01*
X105442380Y-82018095D02*
X104442380Y-82018095D01*
X104442380Y-81780000D01*
X104490000Y-81637142D01*
X104585238Y-81541904D01*
X104680476Y-81494285D01*
X104870952Y-81446666D01*
X105013809Y-81446666D01*
X105204285Y-81494285D01*
X105299523Y-81541904D01*
X105394761Y-81637142D01*
X105442380Y-81780000D01*
X105442380Y-82018095D01*
X104870952Y-80875238D02*
X104823333Y-80970476D01*
X104775714Y-81018095D01*
X104680476Y-81065714D01*
X104632857Y-81065714D01*
X104537619Y-81018095D01*
X104490000Y-80970476D01*
X104442380Y-80875238D01*
X104442380Y-80684761D01*
X104490000Y-80589523D01*
X104537619Y-80541904D01*
X104632857Y-80494285D01*
X104680476Y-80494285D01*
X104775714Y-80541904D01*
X104823333Y-80589523D01*
X104870952Y-80684761D01*
X104870952Y-80875238D01*
X104918571Y-80970476D01*
X104966190Y-81018095D01*
X105061428Y-81065714D01*
X105251904Y-81065714D01*
X105347142Y-81018095D01*
X105394761Y-80970476D01*
X105442380Y-80875238D01*
X105442380Y-80684761D01*
X105394761Y-80589523D01*
X105347142Y-80541904D01*
X105251904Y-80494285D01*
X105061428Y-80494285D01*
X104966190Y-80541904D01*
X104918571Y-80589523D01*
X104870952Y-80684761D01*
X67342380Y-78208095D02*
X66342380Y-78208095D01*
X66342380Y-77970000D01*
X66390000Y-77827142D01*
X66485238Y-77731904D01*
X66580476Y-77684285D01*
X66770952Y-77636666D01*
X66913809Y-77636666D01*
X67104285Y-77684285D01*
X67199523Y-77731904D01*
X67294761Y-77827142D01*
X67342380Y-77970000D01*
X67342380Y-78208095D01*
X66342380Y-76731904D02*
X66342380Y-77208095D01*
X66818571Y-77255714D01*
X66770952Y-77208095D01*
X66723333Y-77112857D01*
X66723333Y-76874761D01*
X66770952Y-76779523D01*
X66818571Y-76731904D01*
X66913809Y-76684285D01*
X67151904Y-76684285D01*
X67247142Y-76731904D01*
X67294761Y-76779523D01*
X67342380Y-76874761D01*
X67342380Y-77112857D01*
X67294761Y-77208095D01*
X67247142Y-77255714D01*
X54642380Y-80748095D02*
X53642380Y-80748095D01*
X53642380Y-80510000D01*
X53690000Y-80367142D01*
X53785238Y-80271904D01*
X53880476Y-80224285D01*
X54070952Y-80176666D01*
X54213809Y-80176666D01*
X54404285Y-80224285D01*
X54499523Y-80271904D01*
X54594761Y-80367142D01*
X54642380Y-80510000D01*
X54642380Y-80748095D01*
X53975714Y-79319523D02*
X54642380Y-79319523D01*
X53594761Y-79557619D02*
X54309047Y-79795714D01*
X54309047Y-79176666D01*
X103322380Y-45188095D02*
X102322380Y-45188095D01*
X102322380Y-44950000D01*
X102370000Y-44807142D01*
X102465238Y-44711904D01*
X102560476Y-44664285D01*
X102750952Y-44616666D01*
X102893809Y-44616666D01*
X103084285Y-44664285D01*
X103179523Y-44711904D01*
X103274761Y-44807142D01*
X103322380Y-44950000D01*
X103322380Y-45188095D01*
X102322380Y-44283333D02*
X102322380Y-43664285D01*
X102703333Y-43997619D01*
X102703333Y-43854761D01*
X102750952Y-43759523D01*
X102798571Y-43711904D01*
X102893809Y-43664285D01*
X103131904Y-43664285D01*
X103227142Y-43711904D01*
X103274761Y-43759523D01*
X103322380Y-43854761D01*
X103322380Y-44140476D01*
X103274761Y-44235714D01*
X103227142Y-44283333D01*
X98242380Y-45188095D02*
X97242380Y-45188095D01*
X97242380Y-44950000D01*
X97290000Y-44807142D01*
X97385238Y-44711904D01*
X97480476Y-44664285D01*
X97670952Y-44616666D01*
X97813809Y-44616666D01*
X98004285Y-44664285D01*
X98099523Y-44711904D01*
X98194761Y-44807142D01*
X98242380Y-44950000D01*
X98242380Y-45188095D01*
X97337619Y-44235714D02*
X97290000Y-44188095D01*
X97242380Y-44092857D01*
X97242380Y-43854761D01*
X97290000Y-43759523D01*
X97337619Y-43711904D01*
X97432857Y-43664285D01*
X97528095Y-43664285D01*
X97670952Y-43711904D01*
X98242380Y-44283333D01*
X98242380Y-43664285D01*
X97643333Y-66337142D02*
X97595714Y-66384761D01*
X97452857Y-66432380D01*
X97357619Y-66432380D01*
X97214761Y-66384761D01*
X97119523Y-66289523D01*
X97071904Y-66194285D01*
X97024285Y-66003809D01*
X97024285Y-65860952D01*
X97071904Y-65670476D01*
X97119523Y-65575238D01*
X97214761Y-65480000D01*
X97357619Y-65432380D01*
X97452857Y-65432380D01*
X97595714Y-65480000D01*
X97643333Y-65527619D01*
X98500476Y-65765714D02*
X98500476Y-66432380D01*
X98262380Y-65384761D02*
X98024285Y-66099047D01*
X98643333Y-66099047D01*
X143073333Y-30897142D02*
X143025714Y-30944761D01*
X142882857Y-30992380D01*
X142787619Y-30992380D01*
X142644761Y-30944761D01*
X142549523Y-30849523D01*
X142501904Y-30754285D01*
X142454285Y-30563809D01*
X142454285Y-30420952D01*
X142501904Y-30230476D01*
X142549523Y-30135238D01*
X142644761Y-30040000D01*
X142787619Y-29992380D01*
X142882857Y-29992380D01*
X143025714Y-30040000D01*
X143073333Y-30087619D01*
X143930476Y-29992380D02*
X143740000Y-29992380D01*
X143644761Y-30040000D01*
X143597142Y-30087619D01*
X143501904Y-30230476D01*
X143454285Y-30420952D01*
X143454285Y-30801904D01*
X143501904Y-30897142D01*
X143549523Y-30944761D01*
X143644761Y-30992380D01*
X143835238Y-30992380D01*
X143930476Y-30944761D01*
X143978095Y-30897142D01*
X144025714Y-30801904D01*
X144025714Y-30563809D01*
X143978095Y-30468571D01*
X143930476Y-30420952D01*
X143835238Y-30373333D01*
X143644761Y-30373333D01*
X143549523Y-30420952D01*
X143501904Y-30468571D01*
X143454285Y-30563809D01*
X116403333Y-30897142D02*
X116355714Y-30944761D01*
X116212857Y-30992380D01*
X116117619Y-30992380D01*
X115974761Y-30944761D01*
X115879523Y-30849523D01*
X115831904Y-30754285D01*
X115784285Y-30563809D01*
X115784285Y-30420952D01*
X115831904Y-30230476D01*
X115879523Y-30135238D01*
X115974761Y-30040000D01*
X116117619Y-29992380D01*
X116212857Y-29992380D01*
X116355714Y-30040000D01*
X116403333Y-30087619D01*
X117308095Y-29992380D02*
X116831904Y-29992380D01*
X116784285Y-30468571D01*
X116831904Y-30420952D01*
X116927142Y-30373333D01*
X117165238Y-30373333D01*
X117260476Y-30420952D01*
X117308095Y-30468571D01*
X117355714Y-30563809D01*
X117355714Y-30801904D01*
X117308095Y-30897142D01*
X117260476Y-30944761D01*
X117165238Y-30992380D01*
X116927142Y-30992380D01*
X116831904Y-30944761D01*
X116784285Y-30897142D01*
X78303333Y-30897142D02*
X78255714Y-30944761D01*
X78112857Y-30992380D01*
X78017619Y-30992380D01*
X77874761Y-30944761D01*
X77779523Y-30849523D01*
X77731904Y-30754285D01*
X77684285Y-30563809D01*
X77684285Y-30420952D01*
X77731904Y-30230476D01*
X77779523Y-30135238D01*
X77874761Y-30040000D01*
X78017619Y-29992380D01*
X78112857Y-29992380D01*
X78255714Y-30040000D01*
X78303333Y-30087619D01*
X78636666Y-29992380D02*
X79255714Y-29992380D01*
X78922380Y-30373333D01*
X79065238Y-30373333D01*
X79160476Y-30420952D01*
X79208095Y-30468571D01*
X79255714Y-30563809D01*
X79255714Y-30801904D01*
X79208095Y-30897142D01*
X79160476Y-30944761D01*
X79065238Y-30992380D01*
X78779523Y-30992380D01*
X78684285Y-30944761D01*
X78636666Y-30897142D01*
X162413333Y-68877142D02*
X162365714Y-68924761D01*
X162222857Y-68972380D01*
X162127619Y-68972380D01*
X161984761Y-68924761D01*
X161889523Y-68829523D01*
X161841904Y-68734285D01*
X161794285Y-68543809D01*
X161794285Y-68400952D01*
X161841904Y-68210476D01*
X161889523Y-68115238D01*
X161984761Y-68020000D01*
X162127619Y-67972380D01*
X162222857Y-67972380D01*
X162365714Y-68020000D01*
X162413333Y-68067619D01*
X162746666Y-67972380D02*
X163413333Y-67972380D01*
X162984761Y-68972380D01*
X67163333Y-47287142D02*
X67115714Y-47334761D01*
X66972857Y-47382380D01*
X66877619Y-47382380D01*
X66734761Y-47334761D01*
X66639523Y-47239523D01*
X66591904Y-47144285D01*
X66544285Y-46953809D01*
X66544285Y-46810952D01*
X66591904Y-46620476D01*
X66639523Y-46525238D01*
X66734761Y-46430000D01*
X66877619Y-46382380D01*
X66972857Y-46382380D01*
X67115714Y-46430000D01*
X67163333Y-46477619D01*
X67544285Y-46477619D02*
X67591904Y-46430000D01*
X67687142Y-46382380D01*
X67925238Y-46382380D01*
X68020476Y-46430000D01*
X68068095Y-46477619D01*
X68115714Y-46572857D01*
X68115714Y-46668095D01*
X68068095Y-46810952D01*
X67496666Y-47382380D01*
X68115714Y-47382380D01*
%LPC*%
D14*
X142240000Y-39370000D03*
X160020000Y-46990000D03*
X144780000Y-39370000D03*
X157480000Y-46990000D03*
X147320000Y-39370000D03*
X154940000Y-46990000D03*
X149860000Y-39370000D03*
X152400000Y-46990000D03*
X152400000Y-39370000D03*
X149860000Y-46990000D03*
X154940000Y-39370000D03*
X147320000Y-46990000D03*
X157480000Y-39370000D03*
X144780000Y-46990000D03*
X160020000Y-39370000D03*
D15*
X142240000Y-46990000D03*
D14*
X115570000Y-39370000D03*
X123190000Y-46990000D03*
X118110000Y-39370000D03*
X120650000Y-46990000D03*
X120650000Y-39370000D03*
X118110000Y-46990000D03*
X123190000Y-39370000D03*
D15*
X115570000Y-46990000D03*
D14*
X77470000Y-39370000D03*
X92710000Y-46990000D03*
X80010000Y-39370000D03*
X90170000Y-46990000D03*
X82550000Y-39370000D03*
X87630000Y-46990000D03*
X85090000Y-39370000D03*
X85090000Y-46990000D03*
X87630000Y-39370000D03*
X82550000Y-46990000D03*
X90170000Y-39370000D03*
X80010000Y-46990000D03*
X92710000Y-39370000D03*
D15*
X77470000Y-46990000D03*
D16*
X170180000Y-65110000D03*
X170180000Y-69510000D03*
D17*
X173030000Y-62860000D03*
X167580000Y-62860000D03*
X173030000Y-71760000D03*
X167580000Y-71760000D03*
D18*
X167480000Y-65710000D03*
X167480000Y-66510000D03*
X167480000Y-67310000D03*
X167480000Y-68110000D03*
X167480000Y-68910000D03*
D19*
X137160000Y-31750000D03*
D20*
X137160000Y-34290000D03*
D14*
X137160000Y-49530000D03*
D21*
X137160000Y-39370000D03*
D19*
X95250000Y-73660000D03*
X95250000Y-76200000D03*
D20*
X95250000Y-78740000D03*
D14*
X78740000Y-59690000D03*
D21*
X88900000Y-59690000D03*
D22*
X92710000Y-54610000D03*
D23*
X92710000Y-52070000D03*
D24*
X88900000Y-52070000D03*
D25*
X78740000Y-52070000D03*
D19*
X82550000Y-78740000D03*
X82550000Y-81280000D03*
D20*
X82550000Y-83820000D03*
D14*
X66040000Y-67310000D03*
D21*
X55880000Y-67310000D03*
D26*
X68040000Y-33020000D03*
X66040000Y-33020000D03*
D27*
X58270000Y-59690000D03*
X58270000Y-55190000D03*
X64770000Y-59690000D03*
X64770000Y-55190000D03*
D28*
X148590000Y-34290000D03*
X93980000Y-35560000D03*
X100330000Y-35560000D03*
X127000000Y-35560000D03*
X121920000Y-34290000D03*
X85090000Y-34290000D03*
X160020000Y-31750000D03*
X168910000Y-31750000D03*
D29*
X68580000Y-54690000D03*
X68580000Y-59690000D03*
X56080000Y-54690000D03*
X56080000Y-59690000D03*
D14*
X129540000Y-39370000D03*
D21*
X129540000Y-49530000D03*
D14*
X170180000Y-49530000D03*
D21*
X170180000Y-39370000D03*
D14*
X111760000Y-34290000D03*
D21*
X111760000Y-44450000D03*
D14*
X66040000Y-71120000D03*
D21*
X55880000Y-71120000D03*
D14*
X115570000Y-67310000D03*
D21*
X105410000Y-67310000D03*
D14*
X166370000Y-39370000D03*
D21*
X166370000Y-49530000D03*
D14*
X133350000Y-49530000D03*
D21*
X133350000Y-39370000D03*
D14*
X107950000Y-41910000D03*
D21*
X107950000Y-52070000D03*
D14*
X105410000Y-55880000D03*
D21*
X115570000Y-55880000D03*
D14*
X115570000Y-59690000D03*
D21*
X105410000Y-59690000D03*
D14*
X105410000Y-63500000D03*
D21*
X115570000Y-63500000D03*
D14*
X60960000Y-48260000D03*
D21*
X60960000Y-38100000D03*
D14*
X78740000Y-63500000D03*
D21*
X88900000Y-63500000D03*
D14*
X88900000Y-67310000D03*
D21*
X78740000Y-67310000D03*
D14*
X88900000Y-55880000D03*
D21*
X78740000Y-55880000D03*
D30*
X120650000Y-54610000D03*
D31*
X123190000Y-54610000D03*
X121920000Y-54610000D03*
D30*
X96520000Y-54610000D03*
D31*
X99060000Y-54610000D03*
X97790000Y-54610000D03*
D22*
X162560000Y-55880000D03*
D23*
X162560000Y-58420000D03*
D32*
X173820000Y-53030000D03*
X173820000Y-60030000D03*
D33*
X173820000Y-53630000D03*
X173820000Y-59430000D03*
D34*
X173820000Y-55530000D03*
X173820000Y-57530000D03*
D35*
X171120000Y-54030000D03*
X171120000Y-59030000D03*
D36*
X171120000Y-55230000D03*
X171120000Y-55880000D03*
X171120000Y-56530000D03*
X171120000Y-57180000D03*
X171120000Y-57830000D03*
D19*
X129540000Y-55880000D03*
D20*
X129540000Y-53340000D03*
D19*
X154940000Y-33020000D03*
D20*
X154940000Y-35560000D03*
D19*
X106680000Y-33020000D03*
D20*
X106680000Y-35560000D03*
D19*
X171450000Y-76200000D03*
D20*
X171450000Y-78740000D03*
D19*
X158750000Y-72390000D03*
X158750000Y-74930000D03*
D20*
X158750000Y-77470000D03*
D19*
X146050000Y-67310000D03*
X146050000Y-69850000D03*
D20*
X146050000Y-72390000D03*
D19*
X133350000Y-74930000D03*
X133350000Y-77470000D03*
D20*
X133350000Y-80010000D03*
D19*
X120650000Y-71120000D03*
X120650000Y-73660000D03*
D20*
X120650000Y-76200000D03*
D19*
X107950000Y-78740000D03*
X107950000Y-81280000D03*
D20*
X107950000Y-83820000D03*
D19*
X69850000Y-74930000D03*
X69850000Y-77470000D03*
D20*
X69850000Y-80010000D03*
D19*
X57150000Y-77470000D03*
X57150000Y-80010000D03*
D20*
X57150000Y-82550000D03*
D24*
X102870000Y-49530000D03*
D25*
X102870000Y-39370000D03*
D24*
X97790000Y-49530000D03*
D25*
X97790000Y-39370000D03*
D21*
X96560000Y-62230000D03*
D15*
X99060000Y-62230000D03*
D26*
X144240000Y-34290000D03*
X142240000Y-34290000D03*
X117570000Y-34290000D03*
X115570000Y-34290000D03*
X79470000Y-34290000D03*
X77470000Y-34290000D03*
D21*
X161330000Y-64770000D03*
D15*
X163830000Y-64770000D03*
D21*
X66080000Y-43180000D03*
D15*
X68580000Y-43180000D03*
M02*
