%FSLAX45Y45*%
G04 Gerber Fmt 4.5, Leading zero omitted, Abs format (unit mm)*
G04 Created by KiCad (PCBNEW (5.1.10)-1) date 2021-10-13 19:52:33*
%MOMM*%
%LPD*%
G01*
G04 APERTURE LIST*
%TA.AperFunction,Profile*%
%ADD10C,0.100000*%
%TD*%
%ADD11C,0.200000*%
%ADD12C,0.300000*%
G04 APERTURE END LIST*
D10*
X17526000Y-2794000D02*
X17526000Y-8636000D01*
X5334000Y-2794000D02*
X17526000Y-2794000D01*
X5334000Y-8636000D02*
X5334000Y-2794000D01*
X17526000Y-8636000D02*
X5334000Y-8636000D01*
D11*
X16968000Y-6461000D02*
X17068000Y-6561000D01*
X17068000Y-6461000D02*
X16968000Y-6561000D01*
X16968000Y-6901000D02*
X17068000Y-7001000D01*
X17068000Y-6901000D02*
X16968000Y-7001000D01*
D12*
X5615428Y-9106714D02*
X5615428Y-8806714D01*
X5686857Y-8806714D01*
X5729714Y-8821000D01*
X5758286Y-8849572D01*
X5772571Y-8878143D01*
X5786857Y-8935286D01*
X5786857Y-8978143D01*
X5772571Y-9035286D01*
X5758286Y-9063857D01*
X5729714Y-9092429D01*
X5686857Y-9106714D01*
X5615428Y-9106714D01*
X5915428Y-9106714D02*
X5915428Y-8906714D01*
X5915428Y-8963857D02*
X5929714Y-8935286D01*
X5944000Y-8921000D01*
X5972571Y-8906714D01*
X6001143Y-8906714D01*
X6101143Y-9106714D02*
X6101143Y-8906714D01*
X6101143Y-8806714D02*
X6086857Y-8821000D01*
X6101143Y-8835286D01*
X6115428Y-8821000D01*
X6101143Y-8806714D01*
X6101143Y-8835286D01*
X6286857Y-9106714D02*
X6258286Y-9092429D01*
X6244000Y-9063857D01*
X6244000Y-8806714D01*
X6444000Y-9106714D02*
X6415428Y-9092429D01*
X6401143Y-9063857D01*
X6401143Y-8806714D01*
X6786857Y-9106714D02*
X6786857Y-8806714D01*
X6886857Y-9021000D01*
X6986857Y-8806714D01*
X6986857Y-9106714D01*
X7258286Y-9106714D02*
X7258286Y-8949572D01*
X7244000Y-8921000D01*
X7215428Y-8906714D01*
X7158286Y-8906714D01*
X7129714Y-8921000D01*
X7258286Y-9092429D02*
X7229714Y-9106714D01*
X7158286Y-9106714D01*
X7129714Y-9092429D01*
X7115428Y-9063857D01*
X7115428Y-9035286D01*
X7129714Y-9006714D01*
X7158286Y-8992429D01*
X7229714Y-8992429D01*
X7258286Y-8978143D01*
X7401143Y-8906714D02*
X7401143Y-9206714D01*
X7401143Y-8921000D02*
X7429714Y-8906714D01*
X7486857Y-8906714D01*
X7515428Y-8921000D01*
X7529714Y-8935286D01*
X7544000Y-8963857D01*
X7544000Y-9049572D01*
X7529714Y-9078143D01*
X7515428Y-9092429D01*
X7486857Y-9106714D01*
X7429714Y-9106714D01*
X7401143Y-9092429D01*
X7672571Y-9078143D02*
X7686857Y-9092429D01*
X7672571Y-9106714D01*
X7658286Y-9092429D01*
X7672571Y-9078143D01*
X7672571Y-9106714D01*
X7672571Y-8921000D02*
X7686857Y-8935286D01*
X7672571Y-8949572D01*
X7658286Y-8935286D01*
X7672571Y-8921000D01*
X7672571Y-8949572D01*
X5229000Y-9551000D02*
X5329000Y-9651000D01*
X5329000Y-9551000D02*
X5229000Y-9651000D01*
X5772571Y-9736714D02*
X5601143Y-9736714D01*
X5686857Y-9736714D02*
X5686857Y-9436714D01*
X5658286Y-9479572D01*
X5629714Y-9508143D01*
X5601143Y-9522429D01*
X5901143Y-9708143D02*
X5915428Y-9722429D01*
X5901143Y-9736714D01*
X5886857Y-9722429D01*
X5901143Y-9708143D01*
X5901143Y-9736714D01*
X6101143Y-9436714D02*
X6129714Y-9436714D01*
X6158286Y-9451000D01*
X6172571Y-9465286D01*
X6186857Y-9493857D01*
X6201143Y-9551000D01*
X6201143Y-9622429D01*
X6186857Y-9679572D01*
X6172571Y-9708143D01*
X6158286Y-9722429D01*
X6129714Y-9736714D01*
X6101143Y-9736714D01*
X6072571Y-9722429D01*
X6058286Y-9708143D01*
X6044000Y-9679572D01*
X6029714Y-9622429D01*
X6029714Y-9551000D01*
X6044000Y-9493857D01*
X6058286Y-9465286D01*
X6072571Y-9451000D01*
X6101143Y-9436714D01*
X6386857Y-9436714D02*
X6415428Y-9436714D01*
X6444000Y-9451000D01*
X6458286Y-9465286D01*
X6472571Y-9493857D01*
X6486857Y-9551000D01*
X6486857Y-9622429D01*
X6472571Y-9679572D01*
X6458286Y-9708143D01*
X6444000Y-9722429D01*
X6415428Y-9736714D01*
X6386857Y-9736714D01*
X6358286Y-9722429D01*
X6344000Y-9708143D01*
X6329714Y-9679572D01*
X6315428Y-9622429D01*
X6315428Y-9551000D01*
X6329714Y-9493857D01*
X6344000Y-9465286D01*
X6358286Y-9451000D01*
X6386857Y-9436714D01*
X6672571Y-9436714D02*
X6701143Y-9436714D01*
X6729714Y-9451000D01*
X6744000Y-9465286D01*
X6758286Y-9493857D01*
X6772571Y-9551000D01*
X6772571Y-9622429D01*
X6758286Y-9679572D01*
X6744000Y-9708143D01*
X6729714Y-9722429D01*
X6701143Y-9736714D01*
X6672571Y-9736714D01*
X6644000Y-9722429D01*
X6629714Y-9708143D01*
X6615428Y-9679572D01*
X6601143Y-9622429D01*
X6601143Y-9551000D01*
X6615428Y-9493857D01*
X6629714Y-9465286D01*
X6644000Y-9451000D01*
X6672571Y-9436714D01*
X6901143Y-9736714D02*
X6901143Y-9536714D01*
X6901143Y-9565286D02*
X6915428Y-9551000D01*
X6944000Y-9536714D01*
X6986857Y-9536714D01*
X7015428Y-9551000D01*
X7029714Y-9579572D01*
X7029714Y-9736714D01*
X7029714Y-9579572D02*
X7044000Y-9551000D01*
X7072571Y-9536714D01*
X7115428Y-9536714D01*
X7144000Y-9551000D01*
X7158286Y-9579572D01*
X7158286Y-9736714D01*
X7301143Y-9736714D02*
X7301143Y-9536714D01*
X7301143Y-9565286D02*
X7315428Y-9551000D01*
X7344000Y-9536714D01*
X7386857Y-9536714D01*
X7415428Y-9551000D01*
X7429714Y-9579572D01*
X7429714Y-9736714D01*
X7429714Y-9579572D02*
X7444000Y-9551000D01*
X7472571Y-9536714D01*
X7515428Y-9536714D01*
X7544000Y-9551000D01*
X7558286Y-9579572D01*
X7558286Y-9736714D01*
X8144000Y-9422429D02*
X7886857Y-9808143D01*
X8529714Y-9436714D02*
X8558286Y-9436714D01*
X8586857Y-9451000D01*
X8601143Y-9465286D01*
X8615428Y-9493857D01*
X8629714Y-9551000D01*
X8629714Y-9622429D01*
X8615428Y-9679572D01*
X8601143Y-9708143D01*
X8586857Y-9722429D01*
X8558286Y-9736714D01*
X8529714Y-9736714D01*
X8501143Y-9722429D01*
X8486857Y-9708143D01*
X8472571Y-9679572D01*
X8458286Y-9622429D01*
X8458286Y-9551000D01*
X8472571Y-9493857D01*
X8486857Y-9465286D01*
X8501143Y-9451000D01*
X8529714Y-9436714D01*
X8758286Y-9708143D02*
X8772571Y-9722429D01*
X8758286Y-9736714D01*
X8744000Y-9722429D01*
X8758286Y-9708143D01*
X8758286Y-9736714D01*
X8958286Y-9436714D02*
X8986857Y-9436714D01*
X9015428Y-9451000D01*
X9029714Y-9465286D01*
X9044000Y-9493857D01*
X9058286Y-9551000D01*
X9058286Y-9622429D01*
X9044000Y-9679572D01*
X9029714Y-9708143D01*
X9015428Y-9722429D01*
X8986857Y-9736714D01*
X8958286Y-9736714D01*
X8929714Y-9722429D01*
X8915428Y-9708143D01*
X8901143Y-9679572D01*
X8886857Y-9622429D01*
X8886857Y-9551000D01*
X8901143Y-9493857D01*
X8915428Y-9465286D01*
X8929714Y-9451000D01*
X8958286Y-9436714D01*
X9158286Y-9436714D02*
X9344000Y-9436714D01*
X9244000Y-9551000D01*
X9286857Y-9551000D01*
X9315428Y-9565286D01*
X9329714Y-9579572D01*
X9344000Y-9608143D01*
X9344000Y-9679572D01*
X9329714Y-9708143D01*
X9315428Y-9722429D01*
X9286857Y-9736714D01*
X9201143Y-9736714D01*
X9172571Y-9722429D01*
X9158286Y-9708143D01*
X9486857Y-9736714D02*
X9544000Y-9736714D01*
X9572571Y-9722429D01*
X9586857Y-9708143D01*
X9615428Y-9665286D01*
X9629714Y-9608143D01*
X9629714Y-9493857D01*
X9615428Y-9465286D01*
X9601143Y-9451000D01*
X9572571Y-9436714D01*
X9515428Y-9436714D01*
X9486857Y-9451000D01*
X9472571Y-9465286D01*
X9458286Y-9493857D01*
X9458286Y-9565286D01*
X9472571Y-9593857D01*
X9486857Y-9608143D01*
X9515428Y-9622429D01*
X9572571Y-9622429D01*
X9601143Y-9608143D01*
X9615428Y-9593857D01*
X9629714Y-9565286D01*
X9886857Y-9536714D02*
X9886857Y-9736714D01*
X9815428Y-9422429D02*
X9744000Y-9636714D01*
X9929714Y-9636714D01*
X10029714Y-9436714D02*
X10029714Y-9493857D01*
X10144000Y-9436714D02*
X10144000Y-9493857D01*
X10586857Y-9851000D02*
X10572571Y-9836714D01*
X10544000Y-9793857D01*
X10529714Y-9765286D01*
X10515428Y-9722429D01*
X10501143Y-9651000D01*
X10501143Y-9593857D01*
X10515428Y-9522429D01*
X10529714Y-9479572D01*
X10544000Y-9451000D01*
X10572571Y-9408143D01*
X10586857Y-9393857D01*
X10686857Y-9465286D02*
X10701143Y-9451000D01*
X10729714Y-9436714D01*
X10801143Y-9436714D01*
X10829714Y-9451000D01*
X10844000Y-9465286D01*
X10858286Y-9493857D01*
X10858286Y-9522429D01*
X10844000Y-9565286D01*
X10672571Y-9736714D01*
X10858286Y-9736714D01*
X11215428Y-9736714D02*
X11215428Y-9436714D01*
X11344000Y-9736714D02*
X11344000Y-9579572D01*
X11329714Y-9551000D01*
X11301143Y-9536714D01*
X11258286Y-9536714D01*
X11229714Y-9551000D01*
X11215428Y-9565286D01*
X11529714Y-9736714D02*
X11501143Y-9722429D01*
X11486857Y-9708143D01*
X11472571Y-9679572D01*
X11472571Y-9593857D01*
X11486857Y-9565286D01*
X11501143Y-9551000D01*
X11529714Y-9536714D01*
X11572571Y-9536714D01*
X11601143Y-9551000D01*
X11615428Y-9565286D01*
X11629714Y-9593857D01*
X11629714Y-9679572D01*
X11615428Y-9708143D01*
X11601143Y-9722429D01*
X11572571Y-9736714D01*
X11529714Y-9736714D01*
X11801143Y-9736714D02*
X11772571Y-9722429D01*
X11758286Y-9693857D01*
X11758286Y-9436714D01*
X12029714Y-9722429D02*
X12001143Y-9736714D01*
X11944000Y-9736714D01*
X11915428Y-9722429D01*
X11901143Y-9693857D01*
X11901143Y-9579572D01*
X11915428Y-9551000D01*
X11944000Y-9536714D01*
X12001143Y-9536714D01*
X12029714Y-9551000D01*
X12044000Y-9579572D01*
X12044000Y-9608143D01*
X11901143Y-9636714D01*
X12158286Y-9722429D02*
X12186857Y-9736714D01*
X12244000Y-9736714D01*
X12272571Y-9722429D01*
X12286857Y-9693857D01*
X12286857Y-9679572D01*
X12272571Y-9651000D01*
X12244000Y-9636714D01*
X12201143Y-9636714D01*
X12172571Y-9622429D01*
X12158286Y-9593857D01*
X12158286Y-9579572D01*
X12172571Y-9551000D01*
X12201143Y-9536714D01*
X12244000Y-9536714D01*
X12272571Y-9551000D01*
X12386857Y-9851000D02*
X12401143Y-9836714D01*
X12429714Y-9793857D01*
X12444000Y-9765286D01*
X12458286Y-9722429D01*
X12472571Y-9651000D01*
X12472571Y-9593857D01*
X12458286Y-9522429D01*
X12444000Y-9479572D01*
X12429714Y-9451000D01*
X12401143Y-9408143D01*
X12386857Y-9393857D01*
X12929714Y-9851000D02*
X12915428Y-9836714D01*
X12886857Y-9793857D01*
X12872571Y-9765286D01*
X12858286Y-9722429D01*
X12844000Y-9651000D01*
X12844000Y-9593857D01*
X12858286Y-9522429D01*
X12872571Y-9479572D01*
X12886857Y-9451000D01*
X12915428Y-9408143D01*
X12929714Y-9393857D01*
X13044000Y-9536714D02*
X13044000Y-9736714D01*
X13044000Y-9565286D02*
X13058286Y-9551000D01*
X13086857Y-9536714D01*
X13129714Y-9536714D01*
X13158286Y-9551000D01*
X13172571Y-9579572D01*
X13172571Y-9736714D01*
X13358286Y-9736714D02*
X13329714Y-9722429D01*
X13315428Y-9708143D01*
X13301143Y-9679572D01*
X13301143Y-9593857D01*
X13315428Y-9565286D01*
X13329714Y-9551000D01*
X13358286Y-9536714D01*
X13401143Y-9536714D01*
X13429714Y-9551000D01*
X13444000Y-9565286D01*
X13458286Y-9593857D01*
X13458286Y-9679572D01*
X13444000Y-9708143D01*
X13429714Y-9722429D01*
X13401143Y-9736714D01*
X13358286Y-9736714D01*
X13544000Y-9536714D02*
X13658286Y-9536714D01*
X13586857Y-9436714D02*
X13586857Y-9693857D01*
X13601143Y-9722429D01*
X13629714Y-9736714D01*
X13658286Y-9736714D01*
X13986857Y-9536714D02*
X13986857Y-9836714D01*
X13986857Y-9551000D02*
X14015428Y-9536714D01*
X14072571Y-9536714D01*
X14101143Y-9551000D01*
X14115428Y-9565286D01*
X14129714Y-9593857D01*
X14129714Y-9679572D01*
X14115428Y-9708143D01*
X14101143Y-9722429D01*
X14072571Y-9736714D01*
X14015428Y-9736714D01*
X13986857Y-9722429D01*
X14301143Y-9736714D02*
X14272571Y-9722429D01*
X14258286Y-9693857D01*
X14258286Y-9436714D01*
X14544000Y-9736714D02*
X14544000Y-9579572D01*
X14529714Y-9551000D01*
X14501143Y-9536714D01*
X14444000Y-9536714D01*
X14415428Y-9551000D01*
X14544000Y-9722429D02*
X14515428Y-9736714D01*
X14444000Y-9736714D01*
X14415428Y-9722429D01*
X14401143Y-9693857D01*
X14401143Y-9665286D01*
X14415428Y-9636714D01*
X14444000Y-9622429D01*
X14515428Y-9622429D01*
X14544000Y-9608143D01*
X14644000Y-9536714D02*
X14758286Y-9536714D01*
X14686857Y-9436714D02*
X14686857Y-9693857D01*
X14701143Y-9722429D01*
X14729714Y-9736714D01*
X14758286Y-9736714D01*
X14972571Y-9722429D02*
X14944000Y-9736714D01*
X14886857Y-9736714D01*
X14858286Y-9722429D01*
X14844000Y-9693857D01*
X14844000Y-9579572D01*
X14858286Y-9551000D01*
X14886857Y-9536714D01*
X14944000Y-9536714D01*
X14972571Y-9551000D01*
X14986857Y-9579572D01*
X14986857Y-9608143D01*
X14844000Y-9636714D01*
X15244000Y-9736714D02*
X15244000Y-9436714D01*
X15244000Y-9722429D02*
X15215428Y-9736714D01*
X15158286Y-9736714D01*
X15129714Y-9722429D01*
X15115428Y-9708143D01*
X15101143Y-9679572D01*
X15101143Y-9593857D01*
X15115428Y-9565286D01*
X15129714Y-9551000D01*
X15158286Y-9536714D01*
X15215428Y-9536714D01*
X15244000Y-9551000D01*
X15358286Y-9851000D02*
X15372571Y-9836714D01*
X15401143Y-9793857D01*
X15415428Y-9765286D01*
X15429714Y-9722429D01*
X15444000Y-9651000D01*
X15444000Y-9593857D01*
X15429714Y-9522429D01*
X15415428Y-9479572D01*
X15401143Y-9451000D01*
X15372571Y-9408143D01*
X15358286Y-9393857D01*
M02*
